<?xml version="1.0" standalone="no"?>
<!DOCTYPE svg PUBLIC "-//W3C//DTD SVG 1.1//EN" "http://www.w3.org/Graphics/SVG/1.1/DTD/svg11.dtd" >
<svg xmlns="http://www.w3.org/2000/svg">
<metadata></metadata>
<defs>
<font id="helveticarounded_lt_std_bdcRg" horiz-adv-x="491" >
<font-face units-per-em="2048" ascent="1501" descent="-547" />
<missing-glyph horiz-adv-x="500" />
<glyph unicode="&#xfb01;" horiz-adv-x="1024" d="M0 1014q0 51 27 72.5t84 21.5h26v147q0 137 65.5 191.5t209.5 54.5q63 0 94 -26.5t31 -83.5q0 -38 -19.5 -61.5t-56.5 -24.5q-44 -1 -59 -22t-15 -73v-102h39q57 0 84 -21.5t27 -72.5q0 -50 -27 -71t-84 -21h-39v-799q0 -75 -33 -112.5t-92 -37.5t-92 37.5t-33 112.5v799 h-26q-57 0 -84 21t-27 71zM635 1366q0 60 41.5 101.5t101.5 41.5t102 -41.5t42 -101.5t-42 -101.5t-102 -41.5t-101.5 41.5t-41.5 101.5zM653 123v862q0 75 33 112.5t92 37.5t92 -37.5t33 -112.5v-862q0 -75 -33 -112.5t-92 -37.5t-92 37.5t-33 112.5z" />
<glyph unicode="&#xfb02;" horiz-adv-x="1024" d="M0 1014q0 51 27 72.5t84 21.5h26v147q0 137 65.5 191.5t209.5 54.5q63 0 94 -26.5t31 -83.5q0 -38 -19.5 -61.5t-56.5 -24.5q-44 -1 -59 -22t-15 -73v-102h39q57 0 84 -21.5t27 -72.5q0 -50 -27 -71t-84 -21h-39v-799q0 -75 -33 -112.5t-92 -37.5t-92 37.5t-33 112.5v799 h-26q-57 0 -84 21t-27 71zM653 123v1229q0 74 33 111.5t92 37.5t92 -37.5t33 -111.5v-1229q0 -75 -33 -112.5t-92 -37.5t-92 37.5t-33 112.5z" />
<glyph horiz-adv-x="2048" />
<glyph horiz-adv-x="2048" />
<glyph unicode="&#xd;" horiz-adv-x="2048" />
<glyph unicode=" " />
<glyph unicode="!" horiz-adv-x="569" d="M129 129q0 65 45.5 110.5t110.5 45.5q64 0 109.5 -45.5t45.5 -110.5t-45.5 -110.5t-109.5 -45.5q-65 0 -110.5 45.5t-45.5 110.5zM147 1042v316q0 67 34.5 105t103.5 38q68 0 102.5 -38t34.5 -105v-316q0 -59 -8 -143l-39 -434q-5 -59 -23 -84t-67 -25t-67 25t-23 84 l-39 434q-9 95 -9 143z" />
<glyph unicode="&#x22;" horiz-adv-x="872" d="M119 1071v309q0 56 34.5 92.5t82.5 36.5t82 -36.5t34 -92.5v-309q0 -56 -34 -92.5t-82 -36.5t-82.5 36.5t-34.5 92.5zM520 1071v309q0 56 34.5 92.5t82.5 36.5t82.5 -36.5t34.5 -92.5v-309q0 -56 -34.5 -92.5t-82.5 -36.5t-82.5 36.5t-34.5 92.5z" />
<glyph unicode="#" horiz-adv-x="983" d="M0 502q0 40 22 69t68 29h105l32 248h-80q-46 0 -68 29t-22 69t22 69t68 29h105l41 322q7 51 31 80t79 29q36 0 61 -25t25 -61q0 -10 -8 -68l-37 -277h177l43 322q5 51 29 80t81 29q35 0 59.5 -25.5t24.5 -60.5q0 -10 -8 -68l-39 -277h80q46 0 69 -29t23 -69t-23 -69 t-69 -29h-105l-32 -248h80q46 0 68 -29t22 -69t-22 -69.5t-68 -29.5h-105l-41 -321q-7 -51 -31 -80t-79 -29q-36 0 -61 25t-25 61q0 10 8 68l37 276h-177l-43 -321q-5 -51 -29 -80t-81 -29q-35 0 -59.5 25.5t-24.5 60.5q0 10 8 68l39 276h-80q-46 0 -68 29.5t-22 69.5z M387 600h176l31 248h-176z" />
<glyph unicode="$" horiz-adv-x="983" d="M70 338q0 60 28.5 99.5t83.5 39.5q54 0 84 -32.5t37 -102.5q16 -161 137 -172v446l-131 84q-225 144 -225 390q0 165 95.5 273t260.5 112v53q0 55 47 55q48 0 48 -55v-53q143 0 241 -86.5t98 -223.5q0 -51 -31 -84.5t-81 -33.5q-60 0 -84.5 29.5t-36.5 90.5 q-11 55 -40.5 83t-65.5 28v-404l118 -69q126 -73 193 -167.5t67 -231.5q0 -197 -98.5 -310.5t-279.5 -122.5v-157q0 -54 -48 -54q-47 0 -47 54v157q-160 0 -265 104.5t-105 260.5zM317 1116q0 -56 24 -93t99 -97v352q-60 -10 -91.5 -53t-31.5 -109zM535 170q58 9 93.5 63.5 t35.5 124.5q0 74 -31.5 123.5t-97.5 85.5v-397z" />
<glyph unicode="%" horiz-adv-x="1781" d="M90 1102q0 183 70.5 278t245.5 95t245 -95t70 -278t-70 -278t-245 -95t-245.5 95t-70.5 278zM297 1079q0 -97 25.5 -145.5t83.5 -48.5t83 48.5t25 145.5v68q0 51 -7.5 86t-32.5 60.5t-68 25.5q-109 0 -109 -172v-68zM494 -14q0 32 12 59l620 1428q24 53 88 53 q34 0 53 -19t19 -45q0 -32 -12 -59l-621 -1428q-24 -53 -88 -53q-34 0 -52.5 19t-18.5 45zM1061 346q0 183 70 278t245 95t245.5 -95t70.5 -278t-70.5 -278t-245.5 -95t-245 95t-70 278zM1268 324q0 -98 25 -146.5t83 -48.5t83.5 49t25.5 146v67q0 172 -109 172 q-43 0 -68 -25.5t-32.5 -60.5t-7.5 -86v-67z" />
<glyph unicode="&#x26;" horiz-adv-x="1290" d="M129 403q0 150 71.5 263.5t209.5 203.5q-117 187 -117 297q0 141 94 224.5t242 83.5q150 0 230.5 -81.5t80.5 -197.5q0 -106 -58 -203.5t-163 -167.5l180 -309q24 64 45 195q9 57 34.5 80.5t74.5 23.5q56 0 82 -34.5t26 -92.5q0 -75 -39.5 -195t-87.5 -204l58 -94 q41 -66 41 -111q0 -53 -38.5 -86t-93.5 -33q-60 0 -106 70l-37 53q-121 -115 -311 -115q-195 0 -306.5 118.5t-111.5 311.5zM379 434q0 -102 59.5 -173t141.5 -71q53 0 92.5 18.5t81.5 63.5l-232 402q-63 -46 -103 -112.5t-40 -127.5zM526 1208q0 -55 27 -102l55 -94l27 24 q49 44 68.5 78t19.5 84q0 43 -27.5 71.5t-68.5 28.5q-43 0 -72 -26t-29 -64z" />
<glyph unicode="'" horiz-adv-x="454" d="M111 1071v309q0 56 34 92.5t82 36.5t82.5 -36.5t34.5 -92.5v-309q0 -56 -34.5 -92.5t-82.5 -36.5t-82 36.5t-34 92.5z" />
<glyph unicode="(" horiz-adv-x="606" d="M104 567q0 167 28 325.5t71.5 273.5t94 203t98 132.5t81.5 44.5q88 0 88 -90q0 -17 -20.5 -62t-49.5 -116t-58 -164.5t-49.5 -238.5t-20.5 -308t20.5 -308t49.5 -238.5t58 -164.5t49.5 -116t20.5 -62q0 -90 -88 -90q-34 0 -81.5 44.5t-98 132.5t-94 203t-71.5 273.5 t-28 325.5z" />
<glyph unicode=")" horiz-adv-x="606" d="M41 -322q0 17 20.5 62t49.5 116t58.5 164.5t50 238.5t20.5 308t-20.5 308t-50 238.5t-58.5 164.5t-49.5 116t-20.5 62q0 90 88 90q34 0 81.5 -44.5t98 -132.5t94 -203t71.5 -273.5t28 -325.5t-28 -325.5t-71.5 -273.5t-94 -203t-98 -132.5t-81.5 -44.5q-88 0 -88 90z" />
<glyph unicode="*" horiz-adv-x="757" d="M61 1270q21 70 107 41l139 -45v147q0 88 72 88t72 -88v-147h2l139 45q83 29 104 -41q23 -68 -61 -96l-139 -46l86 -118q53 -70 -7 -113q-56 -43 -110 29l-86 118l-86 -118q-55 -72 -111 -29q-59 42 -6 113l86 118l-139 48q-85 26 -62 94z" />
<glyph unicode="+" horiz-adv-x="1228" d="M35 580q0 45 40 76.5t103 31.5h328v328q0 62 31 102.5t77 40.5t77.5 -40.5t31.5 -102.5v-328h328q63 0 103 -31.5t40 -76.5t-40 -77t-103 -32h-328v-328q0 -62 -31.5 -102.5t-77.5 -40.5t-77 40.5t-31 102.5v328h-328q-63 0 -103 32t-40 77z" />
<glyph unicode="," d="M82 123q0 67 46.5 114.5t117.5 47.5q79 0 121.5 -60.5t42.5 -136.5q0 -154 -89.5 -262.5t-183.5 -108.5q-24 0 -39.5 16t-15.5 36q0 23 11 34.5t42 22.5q42 14 87.5 56.5t56.5 92.5q-18 -2 -43 -2q-76 0 -115 48.5t-39 101.5z" />
<glyph unicode="-" horiz-adv-x="681" d="M80 580q0 49 32.5 82.5t94.5 33.5h268q62 0 94.5 -33.5t32.5 -82.5q0 -50 -32.5 -83.5t-94.5 -33.5h-268q-62 0 -94.5 33.5t-32.5 83.5z" />
<glyph unicode="." d="M90 129q0 65 46 110.5t110 45.5t109.5 -45.5t45.5 -110.5t-45.5 -110.5t-109.5 -45.5t-110 45.5t-46 110.5z" />
<glyph unicode="/" horiz-adv-x="681" d="M-6 39q0 42 12 72l469 1308q14 38 45.5 64t69.5 26q40 0 69 -20t29 -53q0 -42 -12 -72l-469 -1309q-14 -38 -45.5 -64t-69.5 -26q-40 0 -69 20.5t-29 53.5z" />
<glyph unicode="0" horiz-adv-x="983" d="M80 475v496q0 57 2.5 103t12.5 100.5t27.5 95.5t48.5 81t74 66t105.5 42t141.5 16t141.5 -16t105 -42t74 -66t48.5 -81t27 -95.5t12.5 -100t2.5 -103.5v-496q0 -57 -2.5 -102.5t-12.5 -99.5t-27 -95t-48.5 -81t-74 -66t-105 -42t-141.5 -16t-141.5 16t-105.5 42t-74 66 t-48.5 81t-27.5 95t-12.5 99.5t-2.5 102.5zM354 438q0 -147 28.5 -207.5t109.5 -60.5q80 0 108.5 60.5t28.5 207.5v572q0 148 -28 208t-109 60t-109.5 -60t-28.5 -208v-572z" />
<glyph unicode="1" horiz-adv-x="681" d="M-29 1118q0 77 86 92q115 20 176 59.5t99 112.5q37 70 58.5 87.5t74.5 17.5q37 0 62.5 -27.5t25.5 -83.5v-1261q0 -63 -40 -102.5t-97 -39.5t-97 39.5t-40 102.5v919h-191q-117 0 -117 84z" />
<glyph unicode="2" horiz-adv-x="983" d="M74 117q0 45 12 99.5t40 125.5t85 154t137 163l96 97q105 106 142 174t37 153q0 86 -35.5 135.5t-102.5 49.5q-73 0 -105 -50.5t-40 -150.5q-4 -58 -39 -87.5t-86 -29.5q-69 0 -97 44t-28 108q0 167 103 270t282 103q205 0 313.5 -100.5t108.5 -295.5q0 -215 -180 -395 l-170 -170q-82 -82 -126 -148t-63 -133h404q74 0 110.5 -26t36.5 -90t-37 -90.5t-110 -26.5h-567q-62 0 -91.5 28t-29.5 89z" />
<glyph unicode="3" horiz-adv-x="983" d="M68 348q0 76 32 120t93 44t97 -38.5t40 -115.5q10 -188 151 -188q148 0 148 254q0 63 -7.5 107.5t-20 72.5t-35 44.5t-47 23.5t-60.5 10q-82 9 -111 30t-29 66q0 44 25 65t102 34q88 15 121 62.5t33 166.5q0 76 -30.5 124t-98.5 48q-109 0 -131 -137q-17 -125 -133 -125 q-55 0 -86 34.5t-31 90.5q0 149 95.5 241.5t281.5 92.5q210 0 308.5 -103t98.5 -276q0 -114 -41.5 -193.5t-125.5 -109.5q111 -41 153.5 -127.5t42.5 -239.5q0 -453 -426 -453q-99 0 -175.5 27.5t-119.5 68.5t-70 94.5t-35.5 97.5t-8.5 87z" />
<glyph unicode="4" horiz-adv-x="983" d="M25 408q0 59 41 145l399 833q30 62 64 81.5t104 19.5q71 0 105 -36t34 -93v-846h47q44 0 78.5 -26.5t34.5 -82.5t-34.5 -82t-78.5 -26h-47v-172q0 -75 -33 -112.5t-92 -37.5t-92 37.5t-33 112.5v172h-348q-75 0 -112 26t-37 87zM246 512h276v592h-4z" />
<glyph unicode="5" horiz-adv-x="983" d="M80 336q0 69 30.5 114.5t96.5 45.5t99 -37t36 -97q5 -92 37 -142t102 -50q86 0 117 71.5t31 231.5q0 179 -36.5 252.5t-127.5 73.5q-35 0 -60 -15t-40.5 -36.5t-32 -43t-46 -36.5t-71.5 -15q-57 0 -86 35.5t-29 85.5q0 10 4 68l27 504q2 45 24 73.5t66 28.5h498 q73 0 110 -26.5t37 -90.5t-37 -90.5t-110 -26.5h-375l-18 -296q77 77 219 77q80 0 141.5 -23t112 -75.5t77.5 -149.5t27 -235q0 -99 -10 -175t-38 -147t-74 -116.5t-122 -73t-178 -27.5q-85 0 -152.5 19t-109.5 52t-71 70.5t-43 81t-19.5 76.5t-5.5 64z" />
<glyph unicode="6" horiz-adv-x="983" d="M74 649v156q0 131 11 229.5t39.5 184.5t76 140t122.5 85t177 31q176 0 269 -70t93 -174q0 -54 -33 -86.5t-88 -32.5q-44 0 -67.5 16.5t-52.5 69.5q-30 50 -50.5 65t-64.5 15q-85 0 -121.5 -74.5t-36.5 -216.5v-84q85 82 215 82q346 0 346 -463q0 -94 -10 -169.5 t-37 -148.5t-72 -122t-119 -79t-173 -30q-63 0 -115.5 10.5t-92.5 28.5t-72 48t-54.5 63t-38.5 80t-26 93t-15.5 107t-7.5 117t-2 129zM348 477q0 -160 30 -233.5t114 -73.5t113.5 73.5t29.5 233.5q0 158 -29.5 229.5t-113.5 71.5t-114 -71.5t-30 -229.5z" />
<glyph unicode="7" horiz-adv-x="909" d="M20 1323q0 44 33.5 84.5t96.5 40.5h628q68 0 99.5 -21t31.5 -81q0 -20 -14 -56t-66 -135q-102 -197 -192 -499t-113 -541q-6 -66 -44.5 -104t-104.5 -38q-64 0 -94.5 39t-30.5 103q0 147 114.5 496.5t253.5 590.5h-468q-62 0 -96 39.5t-34 81.5z" />
<glyph unicode="8" horiz-adv-x="983" d="M72 410q0 137 41 233t145 145q-87 44 -124.5 116.5t-37.5 178.5q0 187 99.5 289.5t296.5 102.5t296 -102.5t99 -289.5q0 -106 -37.5 -178.5t-124.5 -116.5q104 -49 145 -145t41 -233q0 -69 -9 -125.5t-36 -117t-71.5 -101t-122 -67t-180.5 -26.5t-180.5 26.5t-122.5 67 t-72 100.5t-36 117t-9 126zM346 377q0 -44 6 -78t21 -64.5t45 -47.5t74 -17t73.5 17t44.5 47.5t21 64.5t6 78v108q0 28 -3 54t-12.5 55t-25 49.5t-42.5 34.5t-62 14t-62 -14t-42.5 -34.5t-25.5 -49.5t-13 -55t-3 -54v-108zM358 1083q0 -41 5 -72t18.5 -60.5t41.5 -45.5 t69 -16t69 16t41 46t18 60.5t5 71.5q0 40 -5 71t-18 61t-41 46.5t-69 16.5q-67 0 -100.5 -52t-33.5 -143z" />
<glyph unicode="9" horiz-adv-x="983" d="M74 926q0 94 10 169.5t37 148.5t72 122t119 79t173 30q63 0 115.5 -10.5t92.5 -28.5t72 -48t54.5 -63t38.5 -80t26 -93t15.5 -107t7.5 -117t2 -129v-156q0 -131 -11 -229.5t-39.5 -184.5t-76 -140t-122.5 -85t-177 -31q-176 0 -269 70t-93 174q0 54 33 86.5t88 32.5 q44 0 67.5 -16.5t52.5 -69.5q30 -50 50.5 -65t64.5 -15q85 0 121.5 74.5t36.5 216.5v84q-85 -82 -215 -82q-346 0 -346 463zM348 971q0 -158 30 -229.5t114 -71.5t113.5 71.5t29.5 229.5q0 160 -29.5 233.5t-113.5 73.5t-114 -73.5t-30 -233.5z" />
<glyph unicode=":" d="M90 129q0 65 46 110.5t110 45.5t109.5 -45.5t45.5 -110.5t-45.5 -110.5t-109.5 -45.5t-110 45.5t-46 110.5zM90 952q0 64 46 110t110 46t109.5 -45.5t45.5 -110.5q0 -64 -45.5 -109.5t-109.5 -45.5q-65 0 -110.5 45.5t-45.5 109.5z" />
<glyph unicode=";" d="M82 123q0 67 46.5 114.5t117.5 47.5q79 0 121.5 -60.5t42.5 -136.5q0 -154 -89.5 -262.5t-183.5 -108.5q-24 0 -39.5 16t-15.5 36q0 23 11 34.5t42 22.5q42 14 87.5 56.5t56.5 92.5q-18 -2 -43 -2q-76 0 -115 48.5t-39 101.5zM90 952q0 64 46 110t110 46t109.5 -45.5 t45.5 -110.5q0 -64 -45.5 -109.5t-109.5 -45.5q-65 0 -110.5 45.5t-45.5 109.5z" />
<glyph unicode="&#x3c;" horiz-adv-x="1228" d="M47 580q0 37 21.5 69t54.5 47l833 383q59 29 113 29q47 0 80 -25.5t33 -52.5q0 -36 -19.5 -66t-77.5 -55l-751 -329l751 -330q58 -25 77.5 -55t19.5 -66q0 -27 -33 -52.5t-80 -25.5q-54 0 -113 29l-833 383q-33 15 -54.5 47.5t-21.5 69.5z" />
<glyph unicode="=" horiz-adv-x="1228" d="M35 338q0 45 40 76.5t103 31.5h873q63 0 103 -31.5t40 -76.5t-40 -77t-103 -32h-873q-63 0 -103 32t-40 77zM35 821q0 45 40 77t103 32h873q63 0 103 -32t40 -77t-40 -76.5t-103 -31.5h-873q-63 0 -103 31.5t-40 76.5z" />
<glyph unicode="&#x3e;" horiz-adv-x="1228" d="M47 129q0 37 19 66.5t77 54.5l752 330l-752 329q-58 25 -77 54.5t-19 66.5q0 27 33 52.5t80 25.5q53 0 112 -29l834 -383q33 -15 54.5 -47t21.5 -69t-21.5 -69.5t-54.5 -47.5l-834 -383q-59 -29 -112 -29q-47 0 -80 25.5t-33 52.5z" />
<glyph unicode="?" horiz-adv-x="985" d="M104 1171q0 145 97 237.5t264 92.5q197 0 298 -96.5t101 -286.5q0 -99 -37 -178.5t-116 -167.5l-60 -65q-69 -75 -93.5 -122t-31.5 -122q-5 -47 -34 -77t-82 -30q-51 0 -84 34.5t-33 94.5q0 74 30 154.5t89 148.5l73 84q68 78 92.5 140.5t24.5 124.5q0 69 -33 113t-94 44 q-48 0 -81 -30t-40 -82q-9 -75 -38 -105t-89 -30q-56 0 -89.5 33.5t-33.5 90.5zM254 129q0 65 46 110.5t110 45.5t109.5 -45.5t45.5 -110.5t-45.5 -110.5t-109.5 -45.5t-110 45.5t-46 110.5z" />
<glyph unicode="@" horiz-adv-x="1638" d="M47 735q0 162 64 306.5t172.5 246.5t257.5 161.5t313 59.5q150 0 284 -44.5t234.5 -125t159.5 -201t59 -264.5q0 -96 -21.5 -178t-57 -139.5t-82.5 -103t-95 -73.5t-97.5 -46.5t-88 -25.5t-68.5 -7q-126 0 -143 88h-4q-82 -88 -229 -88q-127 0 -215.5 99.5t-88.5 283.5 q0 113 57 218t152.5 170t200.5 65q89 0 147 -30.5t111 -98.5l8 36q16 76 94 76q40 0 67.5 -24t27.5 -66q0 -14 -9 -57l-69 -340q-10 -63 -10 -92q0 -39 41 -39q73 0 129.5 80t56.5 235q0 244 -151 375t-406 131q-154 0 -284.5 -77.5t-206.5 -213t-76 -297.5 q0 -181 78 -314.5t209.5 -201t297.5 -67.5q89 0 161.5 13.5t115.5 32t74.5 37.5t55.5 32.5t42 13.5q34 0 58 -21t24 -53q0 -28 -43.5 -68.5t-113 -79.5t-171.5 -66.5t-203 -27.5q-223 0 -410 97.5t-298 275t-111 397.5zM635 690q0 -79 34 -125.5t107 -46.5q105 0 165 63 t60 158q0 75 -41 119.5t-118 44.5q-87 0 -147 -64t-60 -149z" />
<glyph unicode="A" horiz-adv-x="1062" d="M27 92q0 47 16 113l262 1104q27 116 69.5 154t155.5 38q105 0 152.5 -40t73.5 -152l260 -1096q20 -90 20 -113q0 -64 -39 -95.5t-96 -31.5q-75 0 -110.5 38t-55.5 141l-43 217h-338l-55 -267q-14 -70 -46 -99.5t-97 -29.5q-61 0 -95 32t-34 87zM399 586h250l-121 612h-4z " />
<glyph unicode="B" horiz-adv-x="1062" d="M115 147v1180q0 76 36 112t111 36h369q325 0 325 -381q0 -110 -41 -193t-112 -110q107 -39 150.5 -123t43.5 -211q0 -94 -20.5 -173.5t-63.5 -144.5t-119 -102t-178 -37h-354q-75 0 -111 35.5t-36 111.5zM389 207h164q77 0 117.5 61.5t40.5 182.5q0 217 -162 217h-160 v-461zM389 874h125q168 0 168 203q0 191 -147 191h-146v-394z" />
<glyph unicode="C" horiz-adv-x="1024" d="M82 606v234q0 195 27 324t86.5 205.5t145.5 108t214 31.5q196 0 305 -104.5t109 -263.5q0 -164 -140 -164q-77 0 -106 35t-41 131q-20 149 -127 149q-41 0 -67.5 -9.5t-51.5 -38t-38 -83t-21 -144t-8 -220.5v-82q0 -77 0.5 -125t3 -106t8 -93t14 -73.5t21.5 -60t31.5 -41 t43 -27t56.5 -7.5q53 0 93.5 44t43.5 106q6 130 35 177.5t112 47.5q69 0 104.5 -43t35.5 -119q0 -221 -118.5 -325.5t-328.5 -104.5q-70 0 -128.5 13t-101 34t-76 56t-55.5 69t-38 84.5t-24 90.5t-12.5 98t-5.5 97.5t-1 98.5z" />
<glyph unicode="D" horiz-adv-x="1099" d="M115 147v1180q0 76 36 112t111 36h359q211 0 304 -154.5t93 -491.5v-190q0 -639 -410 -639h-346q-75 0 -111 35.5t-36 111.5zM389 217h127q76 0 120.5 38t69.5 143t25 292v119q0 252 -41.5 350t-165.5 98h-135v-1040z" />
<glyph unicode="E" horiz-adv-x="1024" d="M115 147v1180q0 76 36 112t111 36h535q73 0 108 -33.5t35 -89.5t-35 -89.5t-108 -33.5h-408v-340h381q73 0 108 -33.5t35 -89.5t-35 -89.5t-108 -33.5h-381v-397h422q73 0 108 -33.5t35 -89.5t-35 -89.5t-108 -33.5h-549q-75 0 -111 35.5t-36 111.5z" />
<glyph unicode="F" horiz-adv-x="983" d="M115 115v1212q0 76 36 112t111 36h508q73 0 108 -33.5t35 -89.5t-35 -89.5t-108 -33.5h-381v-340h381q73 0 108 -33.5t35 -89.5t-35 -89.5t-108 -33.5h-381v-528q0 -63 -40 -102.5t-97 -39.5t-97 39.5t-40 102.5z" />
<glyph unicode="G" horiz-adv-x="1062" d="M82 682v149q0 251 48 399t149 213.5t272 65.5q105 0 188 -31.5t131.5 -83.5t73.5 -114t25 -129q0 -164 -138 -164q-70 0 -99 39t-38 137q-5 55 -42 92t-113 37q-40 0 -68.5 -15t-53 -56t-36.5 -123t-12 -205v-205q0 -281 36 -389.5t146 -108.5q86 0 121 76.5t35 222.5v84 h-113q-55 0 -83 33t-28 84q0 117 119 117h229q73 0 105.5 -32.5t32.5 -102.5v-586q0 -113 -107 -113q-53 0 -80.5 33.5t-27.5 87.5v39h-4q-89 -160 -275 -160q-95 0 -165 34t-113.5 93t-69.5 151t-35.5 194t-9.5 237z" />
<glyph unicode="H" horiz-adv-x="1138" d="M115 115v1245q0 63 40 102t97 39t97 -39t40 -102v-471h361v471q0 63 40 102t97 39t97 -39t40 -102v-1245q0 -63 -40 -102.5t-97 -39.5t-97 39.5t-40 102.5v557h-361v-557q0 -63 -40 -102.5t-97 -39.5t-97 39.5t-40 102.5z" />
<glyph unicode="I" horiz-adv-x="528" d="M127 115v1245q0 63 40 102t97 39t97 -39t40 -102v-1245q0 -63 -40 -102.5t-97 -39.5t-97 39.5t-40 102.5z" />
<glyph unicode="J" horiz-adv-x="909" d="M49 348q0 85 37.5 128.5t97.5 43.5q75 0 107.5 -47t32.5 -145q0 -146 94 -146q53 0 77.5 35t24.5 117v1026q0 63 40 102t97 39t97.5 -39t40.5 -102v-1032q0 -180 -96.5 -271.5t-284.5 -91.5q-365 0 -365 383z" />
<glyph unicode="K" horiz-adv-x="1062" d="M115 115v1245q0 63 40 102t97 39t97 -39t40 -102v-541h4l328 596q27 49 55.5 67.5t71.5 18.5q57 0 97 -33.5t40 -85.5q0 -45 -37 -106l-268 -432l319 -658q29 -60 29 -94q0 -51 -39 -85t-106 -34q-60 0 -89 25t-59 86l-233 489l-113 -170v-288q0 -63 -40 -102.5 t-97 -39.5t-97 39.5t-40 102.5z" />
<glyph unicode="L" horiz-adv-x="985" d="M115 147v1213q0 63 40 102t97 39t97 -39t40 -102v-1114h412q73 0 108 -33.5t35 -89.5t-35 -89.5t-108 -33.5h-539q-75 0 -111 35.5t-36 111.5z" />
<glyph unicode="M" horiz-adv-x="1441" d="M119 115v1183q0 106 47 154.5t174 48.5q107 0 163.5 -48t80.5 -171l135 -709h4l135 709q24 123 80.5 171t163.5 48q127 0 174 -48.5t47 -154.5v-1183q0 -63 -40 -102.5t-97 -39.5t-97 39.5t-40 102.5v1059h-5l-225 -1111q-9 -43 -29 -66.5t-69 -23.5t-69 23.5t-29 66.5 l-226 1111h-4v-1059q0 -63 -40 -102.5t-97 -39.5t-97 39.5t-40 102.5z" />
<glyph unicode="N" horiz-adv-x="1175" d="M115 115v1245q0 65 40 103t111 38t113.5 -27.5t77.5 -111.5l325 -807h4v805q0 63 40.5 102t97.5 39t97 -39t40 -102v-1233q0 -71 -39.5 -112.5t-97.5 -41.5q-87 0 -129.5 28t-75.5 112l-326 819h-4v-817q0 -63 -40 -102.5t-97 -39.5t-97 39.5t-40 102.5z" />
<glyph unicode="O" horiz-adv-x="1064" d="M82 594v311q0 113 13.5 203.5t35.5 153t56.5 108t71 72t85 42t91.5 20.5t97 5q42 0 76 -3t73 -11t70 -22t63 -37.5t56.5 -55.5t46.5 -78t36 -102.5t22 -131.5t8 -163v-311q0 -117 -12 -209.5t-32.5 -158t-53.5 -113t-68.5 -76t-84.5 -45t-95 -22t-105 -5.5t-105 5.5 t-95 22t-84.5 45t-68 76t-53 113t-32.5 158t-12 209.5zM369 594q0 -133 9 -216t31.5 -125.5t50 -56.5t72.5 -14q46 0 73.5 14t49.5 56.5t31.5 125.5t9.5 216v311q0 155 -19 241t-53 116t-92 30t-91.5 -30t-52.5 -116t-19 -241v-311z" />
<glyph unicode="P" horiz-adv-x="1024" d="M115 115v1212q0 76 36 112t111 36h342q373 0 373 -416q0 -89 -21.5 -166t-63 -137t-110 -94.5t-155.5 -34.5h-238v-512q0 -63 -40 -102.5t-97 -39.5t-97 39.5t-40 102.5zM389 834h123q90 0 134 56.5t44 156.5q0 221 -164 221h-137v-434z" />
<glyph unicode="Q" horiz-adv-x="1064" d="M82 594v311q0 113 13.5 203.5t35.5 153t56.5 108t71 72t85 42t91.5 20.5t97 5q42 0 76 -3t73 -11t70 -22t63 -37.5t56.5 -55.5t46.5 -78t36 -102.5t22 -131.5t8 -163v-311q0 -302 -80 -449l78 -73q59 -56 59 -107q0 -34 -28.5 -61t-61.5 -27q-51 0 -125 74l-57 59 q-83 -45 -236 -45q-59 0 -105 5.5t-95 22t-84.5 45t-68 76t-53 113t-32.5 158t-12 209.5zM369 594q0 -133 9 -216t31.5 -125.5t50 -56.5t72.5 -14q32 0 56 8l-13 13q-36 36 -36 78q0 40 29 66t67 26q24 0 47 -23q14 83 14 244v311q0 155 -19 241t-53 116t-92 30t-91.5 -30 t-52.5 -116t-19 -241v-311z" />
<glyph unicode="R" horiz-adv-x="1062" d="M115 115v1212q0 76 36 112t111 36h377q90 0 156 -29.5t103.5 -82.5t55 -119t17.5 -148q0 -144 -41.5 -219.5t-136.5 -114.5q103 -36 136.5 -105t33.5 -208v-158q0 -42 9 -118t9 -112t-33.5 -62t-97.5 -26q-162 0 -168 140l-12 376q-6 154 -162 154h-119v-528 q0 -63 -40 -102.5t-97 -39.5t-97 39.5t-40 102.5zM389 850h107q90 0 139 47.5t49 161.5q0 112 -39.5 160.5t-136.5 48.5h-119v-418z" />
<glyph unicode="S" horiz-adv-x="1024" d="M76 356q0 86 29.5 136.5t109.5 50.5q66 0 97.5 -40.5t37.5 -137.5q5 -81 45 -132t119 -51q78 0 119 48.5t41 123.5q0 72 -30 117t-109 102l-265 187q-103 74 -144.5 160t-41.5 204q0 95 35 169.5t95 121t137.5 70.5t166.5 24q88 0 160 -24t117 -62t75.5 -88t43 -99 t12.5 -97q0 -67 -37.5 -103.5t-97.5 -36.5q-78 0 -104 34.5t-36 121.5q-16 137 -147 137q-64 0 -105 -38t-41 -103q0 -61 28 -109t120 -110l203 -133q81 -53 130 -105.5t79 -131.5t30 -183q0 -195 -118 -304.5t-349 -109.5q-74 0 -135.5 18t-102.5 46.5t-72.5 67t-48.5 75.5 t-28 75.5t-14.5 64t-3.5 44.5z" />
<glyph unicode="T" horiz-adv-x="1064" d="M35 1352q0 56 35 89.5t108 33.5h709q73 0 108 -33.5t35 -89.5t-35 -89.5t-108 -33.5h-217v-1114q0 -63 -40.5 -102.5t-97.5 -39.5t-97 39.5t-40 102.5v1114h-217q-73 0 -108 33.5t-35 89.5z" />
<glyph unicode="U" horiz-adv-x="1099" d="M104 391v969q0 63 40.5 102t97.5 39t97 -39t40 -102v-942q0 -118 45.5 -177t126.5 -59q79 0 124.5 59t45.5 177v942q0 63 40 102t97 39t97 -39t40 -102v-969q0 -198 -113.5 -312t-330.5 -114t-332 114t-115 312z" />
<glyph unicode="V" horiz-adv-x="1024" d="M39 1368q0 54 39.5 93.5t101.5 39.5q63 0 95 -28t44 -93l209 -1089h4l181 1065q12 71 42 108t95 37q64 0 99.5 -33t35.5 -92q0 -35 -14 -110l-244 -1145q-19 -90 -64.5 -119t-148.5 -29q-100 0 -142 38t-61 120l-254 1133q-18 87 -18 104z" />
<glyph unicode="W" horiz-adv-x="1554" d="M41 1380q0 54 39 87.5t108 33.5q110 0 127 -115l168 -1028h4l166 1031q10 59 36.5 85.5t88.5 26.5t88.5 -26.5t36.5 -85.5l184 -1031h5l147 1020q10 67 45 95t96 28q133 0 133 -127q0 -36 -12 -98l-209 -1153q-19 -98 -53 -124t-141 -26q-74 0 -109 13.5t-50.5 44 t-27.5 102.5l-135 787h-4l-137 -834q-12 -68 -49 -90.5t-127 -22.5q-93 0 -131 29t-49 92l-224 1180q-14 82 -14 106z" />
<glyph unicode="X" horiz-adv-x="1024" d="M51 96q0 46 43 133l260 525l-256 518q-32 65 -32 106q0 54 41 88.5t100 34.5q54 0 90 -27.5t68 -105.5l145 -364l176 397q25 54 54.5 77t72.5 23q65 0 104 -32.5t39 -88.5q0 -41 -22 -86l-268 -540l282 -576q25 -56 25 -80q0 -52 -38 -88.5t-104 -36.5q-55 0 -87.5 25 t-55.5 78l-184 420l-191 -437q-38 -86 -127 -86q-59 0 -97 33.5t-38 89.5z" />
<glyph unicode="Y" horiz-adv-x="985" d="M33 1376q0 62 39 93.5t96 31.5q63 0 91 -25t58 -104l177 -467l186 488q24 64 57 86t84 22q56 0 93.5 -33.5t37.5 -76.5q0 -39 -20 -84l-301 -686v-506q0 -63 -40 -102.5t-97 -39.5t-97.5 39.5t-40.5 102.5v491l-299 674q-24 57 -24 96z" />
<glyph unicode="Z" horiz-adv-x="1062" d="M47 129q0 28 9 53.5t36 71.5l557 975h-424q-73 0 -108 33.5t-35 89.5t35 89.5t108 33.5h631q145 0 145 -121q0 -63 -51 -146l-559 -962h481q73 0 108.5 -33.5t35.5 -89.5t-35.5 -89.5t-108.5 -33.5h-682q-67 0 -105 40t-38 89z" />
<glyph unicode="[" horiz-adv-x="606" d="M141 -219v1573q0 147 158 147h170q43 0 70.5 -26.5t27.5 -71.5t-27.5 -71.5t-70.5 -26.5h-78v-1475h78q43 0 70.5 -26.5t27.5 -71.5t-27.5 -72t-70.5 -27h-170q-158 0 -158 148z" />
<glyph unicode="\" horiz-adv-x="681" d="M-6 1436q0 33 29 53t69 20q38 0 69.5 -26t45.5 -64l469 -1308q12 -30 12 -72q0 -33 -29 -53.5t-69 -20.5q-38 0 -69.5 26t-45.5 64l-469 1309q-12 30 -12 72z" />
<glyph unicode="]" horiz-adv-x="606" d="M39 -268q0 45 27.5 71.5t70.5 26.5h78v1475h-78q-43 0 -70.5 26.5t-27.5 71.5t27.5 71.5t70.5 26.5h170q158 0 158 -147v-1573q0 -148 -158 -148h-170q-43 0 -70.5 27t-27.5 72z" />
<glyph unicode="^" horiz-adv-x="1228" d="M137 723q0 37 27 90l315 573q28 51 60 70t75 19q44 0 76.5 -19t59.5 -70l315 -573q27 -53 27 -90q0 -29 -22 -51.5t-75 -22.5q-45 0 -76 17t-57 65l-248 457l-247 -457q-26 -48 -57.5 -65t-76.5 -17q-53 0 -74.5 22.5t-21.5 51.5z" />
<glyph unicode="_" horiz-adv-x="1024" d="M-25 -205q0 23 7.5 37t17.5 14h1024q10 0 17.5 -14t7.5 -37t-7.5 -37t-17.5 -14h-1024q-10 0 -17.5 14t-7.5 37z" />
<glyph unicode="`" d="M14 1483q0 39 27.5 63.5t62.5 24.5q27 0 43 -6t37 -27l172 -174q31 -31 31 -68q0 -39 -23.5 -64.5t-62.5 -25.5q-36 0 -74 33l-161 150q-52 48 -52 94z" />
<glyph unicode="a" horiz-adv-x="909" d="M78 270q0 128 40.5 205t137.5 129l223 117q80 42 80 117q0 47 -25.5 78.5t-70.5 31.5q-62 0 -88.5 -31t-34.5 -100q-4 -37 -36.5 -58.5t-82.5 -21.5t-90.5 25.5t-40.5 77.5q0 140 98.5 217.5t249.5 77.5q70 0 125.5 -9t94 -24t66.5 -39.5t44 -50.5t25.5 -61.5t12.5 -68 t3 -75.5v-569q0 -41 7 -97t7 -69q0 -99 -125 -99q-58 0 -94.5 33t-36.5 109l-4 -2q-32 -71 -93 -105.5t-134 -34.5q-117 0 -187.5 73.5t-70.5 223.5zM340 301q0 -62 24 -96.5t64 -34.5q60 0 95.5 58.5t35.5 148.5v196l-88 -61q-82 -57 -106.5 -98t-24.5 -113z" />
<glyph unicode="b" horiz-adv-x="948" d="M121 123v1229q0 74 33 111.5t92 37.5t92 -37.5t33 -111.5v-346h4q33 62 92 95.5t129 33.5q65 0 113.5 -24t77.5 -62.5t46 -97t23 -117t6 -132.5v-296q0 -74 -6 -132.5t-23 -117t-46 -97t-77.5 -62.5t-113.5 -24q-155 0 -221 129h-4q0 -56 -35 -92.5t-90 -36.5 q-59 0 -92 37.5t-33 112.5zM371 451q0 -130 28 -200.5t97 -70.5q64 0 84 68.5t20 222.5v145q0 184 -21.5 248t-84.5 64q-123 0 -123 -269v-208z" />
<glyph unicode="c" horiz-adv-x="872" d="M86 453v202q0 91 6 153.5t27.5 129t60 106.5t107.5 65.5t166 25.5q82 0 146 -22.5t100.5 -55.5t60 -76t31.5 -79.5t8 -70.5q0 -70 -34 -105.5t-89 -35.5q-65 0 -96 33t-31 108q0 51 -26.5 79t-67.5 28q-36 0 -58.5 -18.5t-32.5 -58.5t-13 -79t-3 -104v-246 q0 -140 24 -201t83 -61q91 0 94 113q4 102 34 141t93 39q56 0 89.5 -39t33.5 -107q0 -26 -3.5 -54t-13.5 -62.5t-26 -65.5t-43 -61.5t-62 -52t-86 -35t-112 -13.5q-97 0 -166 25.5t-107.5 65.5t-60 106.5t-27.5 129t-6 153.5z" />
<glyph unicode="d" horiz-adv-x="948" d="M86 406v296q0 74 6 132.5t23 117t46 97t77.5 62.5t113.5 24q70 0 129 -33.5t92 -95.5h5v346q0 75 32.5 112t91.5 37t92 -37.5t33 -111.5v-1229q0 -75 -33 -112.5t-92 -37.5q-55 0 -89.5 36.5t-34.5 92.5h-5q-66 -129 -221 -129q-65 0 -113.5 24t-77.5 62.5t-46 97 t-23 117t-6 132.5zM348 471q0 -154 20.5 -222.5t84.5 -68.5q69 0 97 70.5t28 200.5v208q0 269 -123 269q-63 0 -85 -64.5t-22 -247.5v-145z" />
<glyph unicode="e" horiz-adv-x="872" d="M78 438v232q0 66 3 115t13 100.5t27 87t45.5 68t68.5 52t96 31t128 11.5q190 0 269 -106t79 -331q0 -43 -4 -71t-17.5 -54.5t-42.5 -39.5t-75 -13h-328v-112q0 -57 3.5 -94.5t14.5 -73t34.5 -53t60.5 -17.5q39 0 66.5 34.5t29.5 80.5q3 76 34 104.5t89 28.5q61 0 94 -27 t33 -96q0 -149 -93 -235.5t-247 -86.5q-72 0 -128 11.5t-96 31t-68.5 52t-45.5 68t-27 87t-13 100.5t-3 115zM340 696h217v92q0 150 -108 150q-109 0 -109 -150v-92z" />
<glyph unicode="f" horiz-adv-x="530" d="M0 1014q0 51 27 72.5t84 21.5h26v147q0 137 65.5 191.5t209.5 54.5q63 0 94 -26.5t31 -83.5q0 -38 -19.5 -61.5t-56.5 -24.5q-44 -1 -59 -22t-15 -73v-102h39q57 0 84 -21.5t27 -72.5q0 -50 -27 -71t-84 -21h-39v-799q0 -75 -33 -112.5t-92 -37.5t-92 37.5t-33 112.5v799 h-26q-57 0 -84 21t-27 71z" />
<glyph unicode="g" horiz-adv-x="948" d="M86 432v287q0 85 12.5 155t41 131t82.5 95.5t130 34.5q74 0 138 -40t92 -110h4q0 150 123 150q54 0 86 -38t32 -112v-1046q0 -187 -92.5 -275t-281.5 -88q-148 0 -238 51.5t-90 155.5q0 51 35 81t90 30q40 0 68.5 -21t41.5 -53q28 -68 86 -68q78 0 105 50t27 169v154h-5 q-41 -74 -89.5 -99.5t-131.5 -25.5q-65 0 -113.5 24t-77.5 62t-46 96.5t-23 117t-6 132.5zM348 508q0 -183 22 -247t85 -64q123 0 123 268v194q0 79 -11.5 135.5t-30.5 83.5t-38 38.5t-39 11.5q-55 0 -83 -57t-28 -187v-176z" />
<glyph unicode="h" horiz-adv-x="948" d="M111 123v1229q0 74 33 111.5t92 37.5t91.5 -37t32.5 -112v-361h5q30 69 94 106.5t139 37.5q109 0 174.5 -69.5t65.5 -205.5v-737q0 -75 -33 -112.5t-92 -37.5t-92 37.5t-33 112.5v678q0 58 -27 87.5t-69 29.5q-62 0 -97 -49t-35 -150v-596q0 -75 -32.5 -112.5 t-91.5 -37.5t-92 37.5t-33 112.5z" />
<glyph unicode="i" d="M102 1366q0 60 42 101.5t102 41.5t101.5 -41.5t41.5 -101.5t-41.5 -101.5t-101.5 -41.5t-102 41.5t-42 101.5zM121 123v862q0 75 33 112.5t92 37.5t92 -37.5t33 -112.5v-862q0 -75 -33 -112.5t-92 -37.5t-92 37.5t-33 112.5z" />
<glyph unicode="j" d="M0 -317q0 48 20 68t64 30q37 8 37 88v1116q0 75 33 112.5t92 37.5t92 -37.5t33 -112.5v-1171q0 -121 -67 -179.5t-187 -58.5q-66 0 -91.5 29t-25.5 78zM102 1366q0 60 42 101.5t102 41.5t101.5 -41.5t41.5 -101.5t-41.5 -101.5t-101.5 -41.5t-102 41.5t-42 101.5z" />
<glyph unicode="k" horiz-adv-x="909" d="M111 123v1229q0 74 33 111.5t92 37.5t91.5 -37t32.5 -112v-662h5l217 340q67 105 135 105q45 0 84 -28.5t39 -78.5q0 -40 -33 -86l-189 -270l228 -525q14 -32 14 -71q0 -45 -35.5 -74t-87.5 -29q-51 0 -82.5 22t-54.5 75l-160 376l-80 -102v-221q0 -75 -32.5 -112.5 t-91.5 -37.5t-92 37.5t-33 112.5z" />
<glyph unicode="l" d="M121 123v1229q0 74 33 111.5t92 37.5t92 -37.5t33 -111.5v-1229q0 -75 -33 -112.5t-92 -37.5t-92 37.5t-33 112.5z" />
<glyph unicode="m" horiz-adv-x="1404" d="M102 123v862q0 75 33 112.5t92 37.5q58 0 91.5 -37t33.5 -107h4q30 69 94 106.5t140 37.5q84 0 135.5 -28.5t87.5 -96.5q55 68 112.5 96.5t137.5 28.5q109 0 174.5 -69.5t65.5 -205.5v-737q0 -75 -33 -112.5t-92 -37.5t-92 37.5t-33 112.5v678q0 58 -27 87.5t-70 29.5 q-61 0 -95 -49t-34 -150v-596q0 -75 -33 -112.5t-92 -37.5t-91.5 37.5t-32.5 112.5v678q0 58 -27 87.5t-70 29.5q-61 0 -95 -49t-34 -150v-596q0 -75 -33 -112.5t-92 -37.5t-92 37.5t-33 112.5z" />
<glyph unicode="n" horiz-adv-x="948" d="M111 123v862q0 75 33 112.5t92 37.5q58 0 91 -36.5t33 -107.5h5q30 69 94 106.5t139 37.5q109 0 174.5 -69.5t65.5 -205.5v-737q0 -75 -33 -112.5t-92 -37.5t-92 37.5t-33 112.5v678q0 58 -27 87.5t-69 29.5q-62 0 -97 -49t-35 -150v-596q0 -75 -32.5 -112.5t-91.5 -37.5 t-92 37.5t-33 112.5z" />
<glyph unicode="o" horiz-adv-x="909" d="M78 403v302q0 75 10.5 136.5t36.5 117.5t68 93.5t108.5 60t153.5 22.5t153.5 -22.5t108 -60t68 -93.5t36.5 -117.5t10 -136.5v-302q0 -75 -10 -136.5t-36.5 -117.5t-68 -93.5t-108 -60t-153.5 -22.5t-153.5 22.5t-108.5 60t-68 93.5t-36.5 117.5t-10.5 136.5zM340 424 q0 -149 25.5 -201.5t89.5 -52.5t89 52.5t25 201.5v264q0 144 -27.5 197t-86.5 53q-39 0 -63 -20t-38 -76t-14 -154v-264z" />
<glyph unicode="p" horiz-adv-x="948" d="M121 -274v1259q0 75 33 112.5t92 37.5t92 -37.5t33 -112.5h4q31 70 92.5 110t128.5 40q65 0 113.5 -24t77.5 -62.5t46 -97t23 -117t6 -132.5v-296q0 -74 -6 -132.5t-23 -117t-46 -97t-77.5 -62.5t-113.5 -24q-72 0 -130 31.5t-91 93.5h-4v-372q0 -75 -33 -112.5 t-92 -37.5t-92 37.5t-33 112.5zM371 440q0 -130 28 -200t97 -70q64 0 84 68.5t20 222.5v155q0 184 -21.5 248t-84.5 64q-123 0 -123 -269v-219z" />
<glyph unicode="q" horiz-adv-x="948" d="M86 406v296q0 74 6 132.5t23 117t46 97t77.5 62.5t113.5 24q67 0 128.5 -40t92.5 -110h5q0 75 32.5 112.5t91.5 37.5t92 -37.5t33 -112.5v-1259q0 -75 -33 -112.5t-92 -37.5t-91.5 37.5t-32.5 112.5v372h-5q-33 -62 -91 -93.5t-130 -31.5q-65 0 -113.5 24t-77.5 62.5 t-46 97t-23 117t-6 132.5zM348 461q0 -154 20.5 -222.5t84.5 -68.5q69 0 97 70t28 200v219q0 269 -123 269q-63 0 -85 -64.5t-22 -247.5v-155z" />
<glyph unicode="r" horiz-adv-x="681" d="M111 123v876q0 136 116 136q117 0 117 -136v-104h4q29 110 77 175t110 65q54 0 88 -40.5t34 -121.5q0 -64 -37 -107t-118 -43q-61 0 -101.5 -40t-40.5 -111v-549q0 -75 -32.5 -112.5t-91.5 -37.5t-92 37.5t-33 112.5z" />
<glyph unicode="s" horiz-adv-x="833" d="M63 279q0 65 34 94.5t85 29.5q67 0 96 -36t35 -117q8 -90 109 -90q98 0 98 102q0 42 -18 71t-70 68l-190 142q-102 76 -135 138t-33 155q0 146 93 222.5t249 76.5q76 0 136.5 -20t97 -50t60.5 -68.5t33 -71.5t9 -63q0 -60 -30 -91.5t-101 -31.5q-97 0 -103 97 q-3 56 -31.5 84t-76.5 28q-39 0 -62.5 -23.5t-23.5 -62.5q0 -64 55 -106l153 -117q67 -50 104.5 -82.5t71.5 -74t48 -85t14 -98.5q0 -157 -101 -241.5t-261 -84.5q-77 0 -138.5 19.5t-99 50.5t-62.5 72.5t-35 82t-10 81.5z" />
<glyph unicode="t" horiz-adv-x="530" d="M0 1014q0 51 27 72.5t84 21.5h26v190q0 75 33 112.5t92 37.5t92 -37.5t33 -112.5v-190h57q57 0 84 -21.5t27 -72.5q0 -50 -27 -71t-84 -21h-57v-652q0 -38 14 -56t54 -21q46 -2 69 -22t23 -67q0 -62 -38.5 -89t-119.5 -27q-134 0 -193 58t-59 147v729h-26q-57 0 -84 21 t-27 71z" />
<glyph unicode="u" horiz-adv-x="948" d="M111 248v737q0 75 33 112.5t92 37.5t91.5 -37.5t32.5 -112.5v-678q0 -117 97 -117q67 0 99 48t32 151v596q0 75 33 112.5t92 37.5t92 -37.5t33 -112.5v-862q0 -75 -33 -112.5t-92 -37.5q-58 0 -91.5 37t-33.5 107h-4q-30 -69 -94 -106.5t-140 -37.5q-109 0 -174 69.5 t-65 205.5z" />
<glyph unicode="v" horiz-adv-x="872" d="M45 1020q0 53 37.5 84t89.5 31q63 0 96 -30.5t45 -100.5l131 -728h5l124 728q11 66 41 98.5t91 32.5t91.5 -32t30.5 -75q0 -40 -12 -86l-201 -856q-15 -59 -52 -86t-124 -27q-65 0 -102.5 19t-53.5 49.5t-30 89.5l-197 832q-10 42 -10 57z" />
<glyph unicode="w" horiz-adv-x="1327" d="M53 1008q0 60 34.5 93.5t92.5 33.5q115 0 135 -148l103 -686h4l104 629q18 112 46.5 158.5t89.5 46.5q95 0 116 -115l140 -719h4l102 698q21 136 133 136q51 0 84 -34t33 -91q0 -27 -8 -66l-168 -815q-16 -85 -50 -120.5t-118 -35.5q-87 0 -123 43t-55 144l-88 461h-5 l-94 -510q-25 -138 -166 -138q-75 0 -113 38.5t-57 129.5l-168 793q-8 36 -8 74z" />
<glyph unicode="x" horiz-adv-x="833" d="M39 88q0 39 33 100l200 373l-176 330q-41 78 -41 127q0 56 37.5 86.5t89.5 30.5t78 -21t53 -80l109 -227l117 244q41 84 116 84q58 0 92.5 -32.5t34.5 -84.5q0 -38 -45 -123l-178 -324l193 -356q43 -81 43 -125q0 -49 -39.5 -83t-96.5 -34q-84 0 -120 80l-125 275 l-138 -277q-22 -42 -46 -60t-58 -18q-58 0 -95.5 31.5t-37.5 83.5z" />
<glyph unicode="y" horiz-adv-x="872" d="M39 1018q0 54 36 85.5t97 31.5q112 0 129 -97l145 -772h5l122 731q12 67 42.5 102.5t93.5 35.5q55 0 90 -30t35 -81q0 -18 -15 -80l-260 -1096q-27 -114 -58.5 -169t-89 -79t-165.5 -24q-117 0 -117 109q0 42 21 65t77 29q22 2 31.5 4t23.5 8.5t19.5 20t5.5 36.5 q0 31 -8 62l-250 1042q-10 58 -10 66z" />
<glyph unicode="z" horiz-adv-x="872" d="M53 104q0 47 35 111l395 676h-301q-125 0 -125 106q0 111 125 111h502q129 0 129 -86q0 -32 -9 -57t-36 -72l-395 -676h321q125 0 125 -106q0 -111 -125 -111h-520q-63 0 -92 26t-29 78z" />
<glyph unicode="{" horiz-adv-x="643" d="M8 567q0 39 22 69t62 30q20 0 33 4t26.5 17t20 42t6.5 74v426q0 140 60.5 206t181.5 66h133q37 0 59.5 -24.5t22.5 -73.5t-22.5 -73.5t-59.5 -24.5h-45q-80 0 -80 -121v-404q0 -54 -15 -94t-34.5 -60.5t-50.5 -34t-49.5 -16.5t-45.5 -6v-4q27 -3 45.5 -6t49.5 -16.5 t50.5 -34t34.5 -60.5t15 -94v-403q0 -121 80 -121h45q37 0 59.5 -24.5t22.5 -73.5t-22.5 -74t-59.5 -25h-133q-120 0 -181 66.5t-61 206.5v426q0 45 -6.5 74t-20 42t-26.5 17t-33 4q-40 0 -62 29.5t-22 68.5z" />
<glyph unicode="|" horiz-adv-x="454" d="M111 115v1245q0 74 31.5 111.5t84.5 37.5t85 -37.5t32 -111.5v-1245q0 -74 -32 -112t-85 -38t-84.5 38t-31.5 112z" />
<glyph unicode="}" horiz-adv-x="643" d="M8 -268q0 49 22.5 73.5t59.5 24.5h45q80 0 80 121v403q0 54 15 94t34.5 60.5t50.5 34t49.5 16.5t45.5 6v4q-27 3 -45.5 6t-49.5 16.5t-50.5 34t-34.5 60.5t-15 94v404q0 121 -80 121h-45q-37 0 -59.5 24.5t-22.5 73.5t22.5 73.5t59.5 24.5h133q121 0 181.5 -66t60.5 -206 v-426q0 -45 6.5 -74t20 -42t26.5 -17t33 -4q40 0 62 -30t22 -69t-22 -68.5t-62 -29.5q-20 0 -33 -4t-26.5 -17t-20 -42t-6.5 -74v-426q0 -140 -61 -206.5t-181 -66.5h-133q-37 0 -59.5 25t-22.5 74z" />
<glyph unicode="~" horiz-adv-x="1228" d="M84 518q0 87 81.5 156t207.5 69q106 0 254 -55q152 -55 202 -55q38 0 71 15t53 33t48 33t56 15q88 0 88 -88q0 -87 -83.5 -156t-217.5 -69q-85 0 -244 55q-7 2 -43.5 15t-47.5 16.5t-36.5 11t-42 10t-31.5 2.5q-38 0 -71 -15.5t-52.5 -33.5t-47.5 -33.5t-56 -15.5 q-88 0 -88 90z" />
<glyph unicode="&#xa0;" />
<glyph unicode="&#xa1;" horiz-adv-x="569" d="M129 979q0 65 45.5 110.5t110.5 45.5q64 0 109.5 -45.5t45.5 -110.5t-45.5 -110.5t-109.5 -45.5q-65 0 -110.5 45.5t-45.5 110.5zM147 66q0 49 9 143l39 434q5 59 23 84t67 25t67 -25t23 -84l39 -434q8 -84 8 -143v-316q0 -67 -34.5 -105t-102.5 -38q-69 0 -103.5 38 t-34.5 105v316z" />
<glyph unicode="&#xa2;" horiz-adv-x="983" d="M125 453v202q0 64 2.5 111t12 100t25.5 90t44 73t67.5 58t96.5 35t129 13q46 0 82 -5l22 91q10 40 25.5 57.5t38.5 17.5q12 0 23.5 -10t11.5 -22q0 -17 -9 -47l-26 -103q198 -52 198 -299q0 -52 -26.5 -87.5t-81.5 -35.5q-64 0 -86 28t-33 111q-6 48 -25 70l-180 -713 q24 -18 74 -18q124 0 127 133q1 88 31 126t88 38q62 0 88 -37.5t26 -105.5q0 -85 -19 -147.5t-51.5 -101t-82 -62t-103 -32t-122.5 -8.5q-58 0 -107 9l-39 -150q-15 -57 -55 -57q-37 0 -37 41q0 24 8 55l35 141q-56 25 -91.5 67.5t-52.5 105t-22.5 122.5t-5.5 146zM375 408 q0 -55 2 -78h4l154 606q-2 2 -13 2q-41 0 -64.5 -8t-41.5 -26.5t-26 -61t-11.5 -100t-3.5 -154.5v-180z" />
<glyph unicode="&#xa3;" horiz-adv-x="983" d="M45 702q0 34 24 61.5t72 27.5h33q-23 52 -35.5 83t-24.5 86.5t-12 110.5q0 183 123.5 293.5t311.5 110.5q96 0 173.5 -29t125.5 -78t73 -111t25 -131q0 -64 -35 -98.5t-100 -34.5q-61 0 -89.5 31.5t-37.5 99.5q-21 144 -146 144q-81 0 -121 -57t-40 -140q0 -53 14 -109 t26.5 -86.5t38.5 -84.5h228q48 0 72 -27.5t24 -61.5t-24 -61t-72 -27h-166q16 -46 16 -86q0 -73 -49 -161t-143 -166l4 -4q84 30 160 30q59 0 124.5 -18.5t102.5 -18.5q35 0 76 13.5t69 13.5q40 0 68.5 -25t28.5 -73q0 -71 -72 -108.5t-174 -37.5q-66 0 -184 29t-168 29 q-40 0 -111 -23q-58 -20 -98 -20q-38 0 -61 33.5t-23 78.5q0 24 20.5 51.5t50 56.5t59 63.5t50 84t20.5 105.5q0 85 -20 153h-111q-48 0 -72 27t-24 61z" />
<glyph unicode="&#xa4;" horiz-adv-x="983" d="M0 723q0 148 80 272l-47 41q-29 25 -29 66q0 40 30 70t68 30q50 0 80 -33l37 -36q116 81 273 81t270 -81l37 36q33 33 80 33q38 0 68 -30t30 -70q0 -41 -29 -66l-47 -41q82 -127 82 -272t-82 -272l47 -41q29 -25 29 -66q0 -40 -30 -70t-68 -30q-45 0 -80 32l-37 37 q-114 -82 -270 -82q-155 0 -273 82l-37 -37q-32 -32 -80 -32q-38 0 -68 30t-30 70q0 41 29 66l47 41q-80 124 -80 272zM250 723q0 -123 64 -190.5t178 -67.5q113 0 177 67t64 191t-64 191t-177 67q-114 0 -178 -67.5t-64 -190.5z" />
<glyph unicode="&#xa5;" horiz-adv-x="983" d="M39 1366q0 44 35.5 76.5t95.5 32.5q47 0 74.5 -21.5t52.5 -87.5l195 -526l194 526q25 66 52.5 87.5t74.5 21.5q60 0 95.5 -32.5t35.5 -76.5q0 -37 -20 -82l-244 -545h133q50 0 75 -22t25 -60q0 -39 -25 -61.5t-75 -22.5h-190v-131h190q50 0 75 -22t25 -60 q0 -39 -25 -61.5t-75 -22.5h-190v-163q0 -61 -39 -100.5t-92 -39.5t-92.5 39.5t-39.5 100.5v163h-165q-50 0 -75.5 22.5t-25.5 61.5q0 38 25.5 60t75.5 22h165v131h-165q-50 0 -75.5 22.5t-25.5 61.5q0 38 25.5 60t75.5 22h108l-244 545q-20 45 -20 82z" />
<glyph unicode="&#xa6;" horiz-adv-x="454" d="M111 115v342q0 74 31.5 111.5t84.5 37.5t85 -37.5t32 -111.5v-342q0 -74 -32 -112t-85 -38t-84.5 38t-31.5 112zM111 1018v342q0 74 31.5 111.5t84.5 37.5t85 -37.5t32 -111.5v-342q0 -74 -32 -112t-85 -38t-84.5 38t-31.5 112z" />
<glyph unicode="&#xa7;" horiz-adv-x="985" d="M70 635q0 97 40 176t117 129q-90 94 -90 227q0 49 11.5 95t38.5 91.5t67.5 79.5t103.5 55t142 21q90 0 161 -23.5t112 -62.5t62 -84.5t21 -93.5q0 -52 -36.5 -84.5t-92.5 -32.5q-42 0 -69.5 22t-45.5 75q-16 51 -41 69.5t-63 18.5q-65 0 -93 -38t-28 -83q0 -43 28 -83.5 t95 -90.5l182 -139q124 -97 173.5 -174.5t49.5 -180.5q0 -90 -43 -165t-118 -126l24 -28q43 -51 61.5 -100t18.5 -113q0 -175 -107.5 -269t-277.5 -94q-78 0 -142 19.5t-105 49.5t-69 68.5t-39.5 75.5t-11.5 72q0 60 33.5 91.5t93.5 31.5q46 0 74 -22t41 -78 q14 -57 46.5 -84t90.5 -27q59 0 91 35.5t32 91.5q0 51 -33 96.5t-110 102.5l-203 151q-100 77 -146 158t-46 174zM303 674q0 -37 21 -69t71 -70l213 -168q37 25 55.5 56t18.5 58q0 42 -28 80t-99 94l-178 142q-74 -44 -74 -123z" />
<glyph unicode="&#xa8;" d="M-82 1364q0 57 40 97t97 40t97.5 -40t40.5 -97t-40.5 -97t-97.5 -40t-97 40t-40 97zM299 1364q0 57 40 97t97 40t97 -40t40 -97t-40 -97t-97 -40t-97 40t-40 97z" />
<glyph unicode="&#xa9;" horiz-adv-x="1638" d="M47 737q0 157 61 300t164.5 246.5t246.5 164.5t300 61t300 -61t246.5 -164.5t164.5 -246.5t61 -300t-61 -300t-164.5 -246.5t-246.5 -164.5t-300 -61t-300 61t-246.5 164.5t-164.5 246.5t-61 300zM281 737q0 -246 151 -400.5t387 -154.5t387.5 154.5t151.5 400.5 t-151.5 400.5t-387.5 154.5t-387 -154.5t-151 -400.5zM442 743q0 195 111 321t295 126q149 0 244.5 -80t95.5 -170q0 -43 -22.5 -71.5t-63.5 -28.5q-40 0 -65 21t-44 67q-29 76 -147 76q-87 0 -137 -68t-50 -188q0 -117 51.5 -190t139.5 -73q46 0 86.5 23.5t58.5 56.5 q47 92 115 92q39 0 62.5 -24.5t23.5 -65.5q0 -32 -24 -76t-65.5 -87.5t-109.5 -74t-145 -30.5q-182 0 -296 127t-114 317z" />
<glyph unicode="&#xaa;" horiz-adv-x="591" d="M25 956q0 78 26 127t88 74l172 70q51 21 51 67q0 25 -16 43.5t-45 18.5q-40 0 -57.5 -19t-22.5 -61q-6 -47 -112 -47q-32 0 -58 15t-26 46q0 91 68.5 138t189.5 47q62 0 108 -6.5t75.5 -20.5t48.5 -30t28.5 -40.5t12.5 -46.5t3 -53v-340q0 -24 4 -58.5t4 -41.5 q0 -60 -80 -60q-61 0 -89 19t-27 65h-4q-44 -84 -174 -84q-76 0 -122 44t-46 134zM221 983q0 -35 15.5 -54.5t42.5 -19.5q39 0 61 33t22 84v111l-55 -33q-54 -31 -70 -54.5t-16 -66.5z" />
<glyph unicode="&#xab;" horiz-adv-x="872" d="M68 580q0 39 15 69t58 68l148 133q29 29 63 29q36 0 63 -24.5t27 -66.5q0 -18 -13 -34.5t-42 -42.5l-149 -131l149 -131q55 -48 55 -78q0 -42 -27 -66t-63 -24q-35 0 -63 28l-148 133q-42 38 -57.5 68.5t-15.5 69.5zM430 580q0 38 15.5 68.5t58.5 68.5l147 133 q29 29 64 29q36 0 63 -24.5t27 -66.5q0 -18 -13 -34.5t-42 -42.5l-150 -131l150 -131q55 -48 55 -78q0 -42 -27 -66t-63 -24t-64 28l-147 133q-43 38 -58.5 69t-15.5 69z" />
<glyph unicode="&#xac;" horiz-adv-x="1228" d="M35 821q0 45 40 77t103 32h873q64 0 103.5 -33t39.5 -84v-440q0 -63 -32 -103.5t-77 -40.5t-76.5 40.5t-31.5 103.5v340h-799q-63 0 -103 31.5t-40 76.5z" />
<glyph unicode="&#xad;" horiz-adv-x="681" d="M80 580q0 49 32.5 82.5t94.5 33.5h268q62 0 94.5 -33.5t32.5 -82.5q0 -50 -32.5 -83.5t-94.5 -33.5h-268q-62 0 -94.5 33.5t-32.5 83.5z" />
<glyph unicode="&#xae;" horiz-adv-x="1638" d="M47 737q0 157 61 300t164.5 246.5t246.5 164.5t300 61t300 -61t246.5 -164.5t164.5 -246.5t61 -300t-61 -300t-164.5 -246.5t-246.5 -164.5t-300 -61t-300 61t-246.5 164.5t-164.5 246.5t-61 300zM281 737q0 -246 151 -400.5t387 -154.5t387.5 154.5t151.5 400.5 t-151.5 400.5t-387.5 154.5t-387 -154.5t-151 -400.5zM514 440v629q0 44 27.5 68t66.5 24h258q149 0 224 -55t75 -193q0 -105 -53 -166.5t-117 -66.5l142 -195q16 -20 16 -53q0 -36 -24.5 -61t-71.5 -25q-34 0 -55 15t-50 55l-190 264h-62v-240q0 -45 -26.5 -69.5 t-65.5 -24.5t-66.5 24.5t-27.5 69.5zM700 823h150q51 0 79.5 20t28.5 77t-28.5 77.5t-79.5 20.5h-150v-195z" />
<glyph unicode="&#xaf;" d="M-98 1360q0 88 100 88h487q101 0 101 -88t-101 -88h-487q-100 0 -100 88z" />
<glyph unicode="&#xb0;" horiz-adv-x="819" d="M117 1182q0 123 85 208t208 85t207.5 -85t84.5 -208t-84.5 -208t-207.5 -85t-208 85t-85 208zM272 1182q0 -57 40.5 -97.5t97.5 -40.5t97 40.5t40 97.5t-40 97t-97 40t-97.5 -40t-40.5 -97z" />
<glyph unicode="&#xb1;" horiz-adv-x="1228" d="M35 109q0 45 40 76.5t103 31.5h873q63 0 103 -31.5t40 -76.5t-40 -77t-103 -32h-873q-63 0 -103 32t-40 77zM35 745q0 45 40 77t103 32h328v162q0 62 31 102.5t77 40.5t77.5 -40.5t31.5 -102.5v-162h328q63 0 103 -32t40 -77t-40 -76.5t-103 -31.5h-328v-162 q0 -62 -31.5 -102.5t-77.5 -40.5t-77 40.5t-31 102.5v162h-328q-63 0 -103 31.5t-40 76.5z" />
<glyph unicode="&#xb2;" horiz-adv-x="638" d="M33 657q0 60 41.5 147t138.5 179l61 57q68 62 92.5 103t24.5 86q0 44 -21.5 73t-56.5 29q-72 0 -82 -121q-6 -69 -94 -69q-92 0 -92 98q0 109 68.5 172.5t195.5 63.5q141 0 215 -57.5t74 -164.5q0 -131 -117 -239l-110 -101q-99 -91 -123 -170h262q48 0 72 -16.5 t24 -60.5q0 -43 -24 -60.5t-72 -17.5h-397q-80 0 -80 69z" />
<glyph unicode="&#xb3;" horiz-adv-x="647" d="M25 799q0 98 94 98q96 0 102 -86q7 -106 98 -106q97 0 97 139q0 85 -25.5 113.5t-85.5 33.5q-53 4 -72.5 18.5t-19.5 45.5q0 32 16 45t68 22q56 9 77 36t21 91q0 39 -19.5 66.5t-62.5 27.5q-72 0 -86 -75q-12 -68 -98 -68q-44 0 -66 20t-22 54q0 91 65.5 146t202.5 55 q293 0 293 -228q0 -147 -115 -180v-4q75 -24 105.5 -75.5t30.5 -141.5q0 -134 -73.5 -203.5t-234.5 -69.5q-71 0 -125.5 17t-85 41t-49 56.5t-24.5 59t-6 52.5z" />
<glyph unicode="&#xb4;" d="M104 1296q0 37 31 68l172 174q21 21 37 27t43 6q35 0 62.5 -24.5t27.5 -63.5q0 -47 -51 -94l-162 -150q-38 -33 -74 -33q-39 0 -62.5 25.5t-23.5 64.5z" />
<glyph unicode="&#xb5;" horiz-adv-x="948" d="M111 -274v1259q0 75 33 112.5t92 37.5t91.5 -37.5t32.5 -112.5v-678q0 -117 97 -117q67 0 99 48t32 151v596q0 75 33 112.5t92 37.5t92 -37.5t33 -112.5v-862q0 -75 -33 -112.5t-92 -37.5q-58 0 -91.5 37t-33.5 107h-4q-24 -56 -74 -97q-57 -47 -113 -47q-26 0 -32 19h-5 v-266q0 -75 -32.5 -112.5t-91.5 -37.5t-92 37.5t-33 112.5z" />
<glyph unicode="&#xb6;" horiz-adv-x="985" d="M41 1110q0 85 20.5 151t52.5 105.5t76.5 64.5t88 34.5t92.5 9.5h432q46 0 73 -33.5t27 -89.5v-1565q0 -56 -27.5 -89.5t-74.5 -33.5q-49 0 -77 33.5t-28 89.5v1501h-157v-1501q0 -56 -28 -89.5t-77 -33.5q-47 0 -74.5 33.5t-27.5 89.5v973q-123 0 -207 95.5t-84 254.5z " />
<glyph unicode="&#xb7;" d="M90 625q0 64 45.5 109.5t110.5 45.5q64 0 109.5 -45t45.5 -110t-45.5 -110.5t-109.5 -45.5t-110 45.5t-46 110.5z" />
<glyph unicode="&#xb8;" d="M39 -365q0 23 11.5 37.5t29.5 14.5q19 0 54 -11.5t50 -11.5q37 0 63.5 19t26.5 55q0 27 -20.5 46t-48.5 19q-10 0 -32.5 -3t-31.5 -3q-17 0 -28 10t-11 23q0 11 23 47l78 123h106l-73 -115h26q82 0 130 -35t48 -108q0 -83 -69.5 -133.5t-171.5 -50.5q-68 0 -114 21.5 t-46 55.5z" />
<glyph unicode="&#xb9;" d="M10 1245q0 29 13.5 44t42.5 20q74 10 114 34t64 68q25 43 40.5 53.5t59.5 10.5q72 0 72 -68v-748q0 -39 -29.5 -62.5t-75.5 -23.5q-45 0 -73.5 23.5t-28.5 62.5v529h-123q-76 0 -76 57z" />
<glyph unicode="&#xba;" horiz-adv-x="591" d="M25 1036v181q0 58 11.5 101.5t40 80.5t83.5 56.5t135 19.5t135 -19.5t84 -56.5t41 -80.5t12 -101.5v-181q0 -57 -12 -100.5t-40.5 -80.5t-84 -57t-135.5 -20t-135 20t-83.5 57t-40 80.5t-11.5 100.5zM221 1061q0 -91 15.5 -121.5t58.5 -30.5q44 0 60 31t16 121v129 q0 91 -16 122t-60 31q-43 0 -58.5 -31t-15.5 -122v-129z" />
<glyph unicode="&#xbb;" horiz-adv-x="872" d="M68 371q0 30 55 78l149 131l-149 131q-29 26 -42 42.5t-13 34.5q0 42 27 66.5t63 24.5q34 0 63 -29l148 -133q43 -38 58 -68t15 -69t-15.5 -69.5t-57.5 -68.5l-148 -133q-28 -28 -63 -28q-36 0 -63 24t-27 66zM430 371q0 30 55 78l150 131l-150 131q-29 26 -42 42.5 t-13 34.5q0 42 27 66.5t63 24.5q35 0 64 -29l147 -133q43 -38 58.5 -68.5t15.5 -68.5t-15.5 -69t-58.5 -69l-147 -133q-28 -28 -64 -28t-63 24t-27 66z" />
<glyph unicode="&#xbc;" horiz-adv-x="1515" d="M-4 1245q0 56 55 64q74 10 114 34t64 68q25 43 41 53.5t60 10.5q71 0 71 -68v-748q0 -39 -29 -62.5t-75 -23.5q-45 0 -73.5 23.5t-28.5 62.5v529h-123q-76 0 -76 57zM334 -14q0 32 12 59l621 1428q24 53 88 53q34 0 52.5 -19t18.5 -45q0 -32 -12 -59l-620 -1428 q-24 -53 -88 -53q-34 0 -53 19t-19 45zM852 219q0 45 27 98l266 508q13 25 39.5 37t83.5 12q110 0 110 -77v-502h31q30 0 52 -18t22 -60t-22 -60t-52 -18h-31v-76q0 -90 -94 -90q-92 0 -92 90v76h-236q-54 0 -79 18t-25 62zM1012 295h180v350h-4z" />
<glyph unicode="&#xbd;" horiz-adv-x="1515" d="M-4 1245q0 56 55 64q74 10 114 34t64 68q25 43 41 53.5t60 10.5q71 0 71 -68v-748q0 -39 -29 -62.5t-75 -23.5q-45 0 -73.5 23.5t-28.5 62.5v529h-123q-76 0 -76 57zM326 -14q0 32 12 59l620 1428q24 53 89 53q34 0 52.5 -19t18.5 -45q0 -32 -12 -59l-621 -1428 q-24 -53 -88 -53q-34 0 -52.5 19t-18.5 45zM909 70q0 60 41.5 146.5t139.5 178.5l61 58q68 62 92.5 103t24.5 85t-21.5 73t-56.5 29q-39 0 -58 -30.5t-24 -89.5q-6 -70 -94 -70q-92 0 -92 98q0 109 68.5 172.5t195.5 63.5q141 0 215 -57t74 -164q0 -132 -117 -240l-111 -100 q-99 -91 -123 -170h262q48 0 72.5 -17t24.5 -61q0 -43 -24.5 -60.5t-72.5 -17.5h-397q-80 0 -80 70z" />
<glyph unicode="&#xbe;" horiz-adv-x="1515" d="M23 799q0 98 94 98q96 0 102 -86q7 -106 98 -106q97 0 97 139q0 85 -25.5 113.5t-85.5 33.5q-53 4 -72.5 18.5t-19.5 45.5q0 32 16 45t68 22q56 9 77 36t21 91q0 39 -19.5 66.5t-62.5 27.5q-72 0 -86 -75q-12 -68 -98 -68q-44 0 -66 20t-22 54q0 91 65.5 146t202.5 55 q293 0 293 -228q0 -147 -115 -180v-4q75 -24 105.5 -75.5t30.5 -141.5q0 -134 -73.5 -203.5t-234.5 -69.5q-71 0 -125.5 17t-85 41t-49 56.5t-24.5 59t-6 52.5zM399 -14q0 30 13 59l620 1428q24 53 88 53q34 0 53 -19t19 -45q0 -32 -12 -59l-621 -1428q-24 -53 -88 -53 q-34 0 -53 19t-19 45zM852 219q0 45 27 98l266 508q13 25 39.5 37t83.5 12q110 0 110 -77v-502h31q30 0 52 -18t22 -60t-22 -60t-52 -18h-31v-76q0 -90 -94 -90q-92 0 -92 90v76h-236q-54 0 -79 18t-25 62zM1012 295h180v350h-4z" />
<glyph unicode="&#xbf;" horiz-adv-x="985" d="M121 -10q0 99 37 178.5t116 167.5l60 65q69 75 93.5 122t31.5 122q5 47 34 77t82 30q51 0 84 -34.5t33 -94.5q0 -75 -30 -156t-89 -148l-73 -83q-68 -78 -92.5 -140.5t-24.5 -124.5q0 -69 33 -113t94 -44q48 0 81 30t40 82q9 75 38 105t89 30q56 0 89.5 -33.5t33.5 -90.5 q0 -145 -97 -237.5t-264 -92.5q-197 0 -298 96.5t-101 286.5zM420 979q0 65 45.5 110.5t109.5 45.5q65 0 110.5 -45.5t45.5 -110.5t-45.5 -110.5t-110.5 -45.5q-64 0 -109.5 45.5t-45.5 110.5z" />
<glyph unicode="&#xc0;" horiz-adv-x="1062" d="M27 92q0 47 16 113l262 1104q27 116 69.5 154t155.5 38q105 0 152.5 -40t73.5 -152l260 -1096q20 -90 20 -113q0 -64 -39 -95.5t-96 -31.5q-75 0 -110.5 38t-55.5 141l-43 217h-338l-55 -267q-14 -70 -46 -99.5t-97 -29.5q-61 0 -95 32t-34 87zM313 1849q0 39 27.5 63.5 t62.5 24.5q27 0 43.5 -6t36.5 -26l172 -174q31 -31 31 -68q0 -39 -23.5 -64.5t-62.5 -25.5q-36 0 -74 33l-161 149q-52 48 -52 94zM399 586h250l-121 612h-4z" />
<glyph unicode="&#xc1;" horiz-adv-x="1062" d="M27 92q0 47 16 113l262 1104q27 116 69.5 154t155.5 38q105 0 152.5 -40t73.5 -152l260 -1096q20 -90 20 -113q0 -64 -39 -95.5t-96 -31.5q-75 0 -110.5 38t-55.5 141l-43 217h-338l-55 -267q-14 -70 -46 -99.5t-97 -29.5q-61 0 -95 32t-34 87zM399 586h250l-121 612h-4z M403 1663q0 37 31 68l172 174q20 20 36.5 26t43.5 6q35 0 62.5 -24.5t27.5 -63.5q0 -47 -51 -94l-162 -149q-38 -33 -74 -33q-39 0 -62.5 25.5t-23.5 64.5z" />
<glyph unicode="&#xc2;" horiz-adv-x="1062" d="M27 92q0 47 16 113l262 1104q27 116 69.5 154t155.5 38q105 0 152.5 -40t73.5 -152l260 -1096q20 -90 20 -113q0 -64 -39 -95.5t-96 -31.5q-75 0 -110.5 38t-55.5 141l-43 217h-338l-55 -267q-14 -70 -46 -99.5t-97 -29.5q-61 0 -95 32t-34 87zM283 1657q0 27 24 63 l88 133q32 48 66.5 66t83.5 18t83 -17.5t66 -66.5l88 -133q25 -38 25 -63q0 -37 -25 -60.5t-65 -23.5q-47 0 -74 45l-98 164l-99 -164q-27 -45 -73 -45q-40 0 -65 23.5t-25 60.5zM399 586h250l-121 612h-4z" />
<glyph unicode="&#xc3;" horiz-adv-x="1062" d="M27 92q0 47 16 113l262 1104q27 116 69.5 154t155.5 38q105 0 152.5 -40t73.5 -152l260 -1096q20 -90 20 -113q0 -64 -39 -95.5t-96 -31.5q-75 0 -110.5 38t-55.5 141l-43 217h-338l-55 -267q-14 -70 -46 -99.5t-97 -29.5q-61 0 -95 32t-34 87zM207 1667q0 60 66 117 t135 57q58 0 141.5 -26.5t97.5 -26.5q32 0 78.5 36t75.5 36q35 0 58.5 -21t23.5 -53q0 -65 -62 -124.5t-137 -59.5q-21 0 -130 26.5t-122 26.5q-27 0 -67.5 -35t-69.5 -35q-38 0 -63 22.5t-25 59.5zM399 586h250l-121 612h-4z" />
<glyph unicode="&#xc4;" horiz-adv-x="1062" d="M27 92q0 47 16 113l262 1104q27 116 69.5 154t155.5 38q105 0 152.5 -40t73.5 -152l260 -1096q20 -90 20 -113q0 -64 -39 -95.5t-96 -31.5q-75 0 -110.5 38t-55.5 141l-43 217h-338l-55 -267q-14 -70 -46 -99.5t-97 -29.5q-61 0 -95 32t-34 87zM217 1731q0 57 40 97 t97 40t97.5 -40t40.5 -97t-40.5 -97.5t-97.5 -40.5t-97 40.5t-40 97.5zM399 586h250l-121 612h-4zM598 1731q0 57 40 97t97 40t97 -40t40 -97t-40 -97.5t-97 -40.5t-97 40.5t-40 97.5z" />
<glyph unicode="&#xc5;" horiz-adv-x="1062" d="M27 92q0 47 16 113l262 1104q27 116 69.5 154t155.5 38q105 0 152.5 -40t73.5 -152l260 -1096q20 -90 20 -113q0 -64 -39 -95.5t-96 -31.5q-75 0 -110.5 38t-55.5 141l-43 217h-338l-55 -267q-14 -70 -46 -99.5t-97 -29.5q-61 0 -95 32t-34 87zM315 1759q0 91 63 154 t154 63t154.5 -63t63.5 -154t-63.5 -154t-154.5 -63t-154 63t-63 154zM399 586h250l-121 612h-4zM434 1759q0 -41 28.5 -69.5t69.5 -28.5t70 28.5t29 69.5t-29 70t-70 29t-69.5 -29t-28.5 -70z" />
<glyph unicode="&#xc6;" horiz-adv-x="1593" d="M12 92q0 16 15 74l342 1198q16 56 50 83.5t97 27.5h864q73 0 108.5 -33.5t35.5 -89.5t-35.5 -89.5t-108.5 -33.5h-407v-340h383q73 0 108 -33.5t35 -89.5t-35 -89.5t-108 -33.5h-383v-397h407q73 0 108.5 -33.5t35.5 -89.5t-35.5 -89.5t-108.5 -33.5h-534 q-76 0 -112 35.5t-36 111.5v222h-336l-67 -248q-21 -73 -51 -110.5t-94 -37.5t-101 37t-37 82zM422 586h276v655h-98z" />
<glyph unicode="&#xc7;" horiz-adv-x="1024" d="M82 606v234q0 195 27 324t86.5 205.5t145.5 108t214 31.5q196 0 305 -104.5t109 -263.5q0 -164 -140 -164q-77 0 -106 35t-41 131q-20 149 -127 149q-41 0 -67.5 -9.5t-51.5 -38t-38 -83t-21 -144t-8 -220.5v-82q0 -77 0.5 -125t3 -106t8 -93t14 -73.5t21.5 -60t31.5 -41 t43 -27t56.5 -7.5q53 0 93.5 44t43.5 106q6 130 35 177.5t112 47.5q69 0 104.5 -43t35.5 -119q0 -207 -104.5 -312t-291.5 -118l-53 -80h27q82 0 130 -35t48 -108q0 -83 -69.5 -133.5t-172.5 -50.5q-68 0 -113.5 21.5t-45.5 55.5q0 23 11.5 37.5t29.5 14.5q19 0 54 -11.5 t50 -11.5q37 0 63.5 19t26.5 55q0 27 -20.5 46t-48.5 19q-10 0 -32.5 -3t-31.5 -3q-17 0 -28 10t-11 23q0 11 23 47l57 88q-61 5 -112.5 22t-88.5 40t-66.5 58.5t-49 69.5t-33 82.5t-21 87t-11 94.5t-4.5 93.5t-1 93.5z" />
<glyph unicode="&#xc8;" horiz-adv-x="1024" d="M115 147v1180q0 76 36 112t111 36h535q73 0 108 -33.5t35 -89.5t-35 -89.5t-108 -33.5h-408v-340h381q73 0 108 -33.5t35 -89.5t-35 -89.5t-108 -33.5h-381v-397h422q73 0 108 -33.5t35 -89.5t-35 -89.5t-108 -33.5h-549q-75 0 -111 35.5t-36 111.5zM305 1849 q0 39 27.5 63.5t62.5 24.5q27 0 43.5 -6t36.5 -26l172 -174q31 -31 31 -68q0 -39 -23.5 -64.5t-62.5 -25.5q-36 0 -74 33l-162 149q-51 47 -51 94z" />
<glyph unicode="&#xc9;" horiz-adv-x="1024" d="M115 147v1180q0 76 36 112t111 36h535q73 0 108 -33.5t35 -89.5t-35 -89.5t-108 -33.5h-408v-340h381q73 0 108 -33.5t35 -89.5t-35 -89.5t-108 -33.5h-381v-397h422q73 0 108 -33.5t35 -89.5t-35 -89.5t-108 -33.5h-549q-75 0 -111 35.5t-36 111.5zM395 1663q0 37 31 68 l172 174q20 20 36.5 26t43.5 6q35 0 62.5 -24.5t27.5 -63.5q0 -47 -51 -94l-162 -149q-38 -33 -74 -33q-39 0 -62.5 25.5t-23.5 64.5z" />
<glyph unicode="&#xca;" horiz-adv-x="1024" d="M115 147v1180q0 76 36 112t111 36h535q73 0 108 -33.5t35 -89.5t-35 -89.5t-108 -33.5h-408v-340h381q73 0 108 -33.5t35 -89.5t-35 -89.5t-108 -33.5h-381v-397h422q73 0 108 -33.5t35 -89.5t-35 -89.5t-108 -33.5h-549q-75 0 -111 35.5t-36 111.5zM274 1657q0 25 25 63 l88 133q32 48 66.5 66t83.5 18t83 -17.5t66 -66.5l88 -133q25 -38 25 -63q0 -37 -25 -60.5t-65 -23.5q-47 0 -74 45l-98 164l-99 -164q-27 -45 -73 -45q-40 0 -65.5 23.5t-25.5 60.5z" />
<glyph unicode="&#xcb;" horiz-adv-x="1024" d="M115 147v1180q0 76 36 112t111 36h535q73 0 108 -33.5t35 -89.5t-35 -89.5t-108 -33.5h-408v-340h381q73 0 108 -33.5t35 -89.5t-35 -89.5t-108 -33.5h-381v-397h422q73 0 108 -33.5t35 -89.5t-35 -89.5t-108 -33.5h-549q-75 0 -111 35.5t-36 111.5zM209 1731q0 57 40 97 t97 40t97 -40t40 -97t-40 -97.5t-97 -40.5t-97 40.5t-40 97.5zM590 1731q0 57 40 97t97 40t97 -40t40 -97t-40 -97.5t-97 -40.5t-97 40.5t-40 97.5z" />
<glyph unicode="&#xcc;" horiz-adv-x="528" d="M45 1849q0 39 27.5 63.5t62.5 24.5q27 0 43.5 -6t36.5 -26l172 -174q31 -31 31 -68q0 -39 -23.5 -64.5t-62.5 -25.5q-36 0 -74 33l-162 149q-51 47 -51 94zM127 115v1245q0 63 40 102t97 39t97 -39t40 -102v-1245q0 -63 -40 -102.5t-97 -39.5t-97 39.5t-40 102.5z" />
<glyph unicode="&#xcd;" horiz-adv-x="528" d="M127 115v1245q0 63 40 102t97 39t97 -39t40 -102v-1245q0 -63 -40 -102.5t-97 -39.5t-97 39.5t-40 102.5zM135 1663q0 37 31 68l172 174q20 20 36.5 26t43.5 6q35 0 62.5 -24.5t27.5 -63.5q0 -47 -51 -94l-162 -149q-38 -33 -74 -33q-39 0 -62.5 25.5t-23.5 64.5z" />
<glyph unicode="&#xce;" horiz-adv-x="528" d="M2 1657q0 25 25 63l88 133q32 49 66 66.5t83 17.5t83.5 -18t66.5 -66l88 -133q24 -36 24 -63q0 -37 -25 -60.5t-65 -23.5q-47 0 -74 45l-98 164l-98 -164q-27 -45 -74 -45q-40 0 -65 23.5t-25 60.5zM127 115v1245q0 63 40 102t97 39t97 -39t40 -102v-1245 q0 -63 -40 -102.5t-97 -39.5t-97 39.5t-40 102.5z" />
<glyph unicode="&#xcf;" horiz-adv-x="528" d="M-63 1731q0 57 40 97t97 40t97 -40t40 -97t-40 -97.5t-97 -40.5t-97 40.5t-40 97.5zM127 115v1245q0 63 40 102t97 39t97 -39t40 -102v-1245q0 -63 -40 -102.5t-97 -39.5t-97 39.5t-40 102.5zM317 1731q0 57 40.5 97t97.5 40t97 -40t40 -97t-40 -97.5t-97 -40.5 t-97.5 40.5t-40.5 97.5z" />
<glyph unicode="&#xd0;" horiz-adv-x="1099" d="M-35 770q0 50 22.5 77t57.5 27h70v453q0 76 36 112t111 36h359q211 0 304 -154.5t93 -491.5v-190q0 -639 -410 -639h-346q-75 0 -111 35.5t-36 111.5v521h-70q-35 0 -57.5 26.5t-22.5 75.5zM389 217h127q76 0 120.5 38t69.5 143t25 292v119q0 252 -41.5 350t-165.5 98 h-135v-383h123q35 0 57.5 -27t22.5 -77q0 -49 -22.5 -75.5t-57.5 -26.5h-123v-451z" />
<glyph unicode="&#xd1;" horiz-adv-x="1175" d="M115 115v1245q0 65 40 103t111 38t113.5 -27.5t77.5 -111.5l325 -807h4v805q0 63 40.5 102t97.5 39t97 -39t40 -102v-1233q0 -71 -39.5 -112.5t-97.5 -41.5q-87 0 -129.5 28t-75.5 112l-326 819h-4v-817q0 -63 -40 -102.5t-97 -39.5t-97 39.5t-40 102.5zM250 1667 q0 60 66 117t135 57q58 0 141.5 -26.5t97.5 -26.5q32 0 78.5 36t75.5 36q35 0 58.5 -21t23.5 -53q0 -65 -62 -124.5t-137 -59.5q-21 0 -130 26.5t-122 26.5q-27 0 -67.5 -35t-69.5 -35q-38 0 -63 22.5t-25 59.5z" />
<glyph unicode="&#xd2;" horiz-adv-x="1064" d="M82 594v311q0 113 13.5 203.5t35.5 153t56.5 108t71 72t85 42t91.5 20.5t97 5q42 0 76 -3t73 -11t70 -22t63 -37.5t56.5 -55.5t46.5 -78t36 -102.5t22 -131.5t8 -163v-311q0 -117 -12 -209.5t-32.5 -158t-53.5 -113t-68.5 -76t-84.5 -45t-95 -22t-105 -5.5t-105 5.5 t-95 22t-84.5 45t-68 76t-53 113t-32.5 158t-12 209.5zM301 1849q0 39 27.5 63.5t62.5 24.5q27 0 43.5 -6t36.5 -26l172 -174q31 -31 31 -68q0 -39 -23.5 -64.5t-62.5 -25.5q-36 0 -74 33l-162 149q-51 47 -51 94zM369 594q0 -133 9 -216t31.5 -125.5t50 -56.5t72.5 -14 q46 0 73.5 14t49.5 56.5t31.5 125.5t9.5 216v311q0 155 -19 241t-53 116t-92 30t-91.5 -30t-52.5 -116t-19 -241v-311z" />
<glyph unicode="&#xd3;" horiz-adv-x="1064" d="M82 594v311q0 113 13.5 203.5t35.5 153t56.5 108t71 72t85 42t91.5 20.5t97 5q42 0 76 -3t73 -11t70 -22t63 -37.5t56.5 -55.5t46.5 -78t36 -102.5t22 -131.5t8 -163v-311q0 -117 -12 -209.5t-32.5 -158t-53.5 -113t-68.5 -76t-84.5 -45t-95 -22t-105 -5.5t-105 5.5 t-95 22t-84.5 45t-68 76t-53 113t-32.5 158t-12 209.5zM369 594q0 -133 9 -216t31.5 -125.5t50 -56.5t72.5 -14q46 0 73.5 14t49.5 56.5t31.5 125.5t9.5 216v311q0 155 -19 241t-53 116t-92 30t-91.5 -30t-52.5 -116t-19 -241v-311zM391 1663q0 37 31 68l172 174 q20 20 36.5 26t43.5 6q35 0 62.5 -24.5t27.5 -63.5q0 -47 -51 -94l-162 -149q-38 -33 -74 -33q-39 0 -62.5 25.5t-23.5 64.5z" />
<glyph unicode="&#xd4;" horiz-adv-x="1064" d="M82 594v311q0 113 13.5 203.5t35.5 153t56.5 108t71 72t85 42t91.5 20.5t97 5q42 0 76 -3t73 -11t70 -22t63 -37.5t56.5 -55.5t46.5 -78t36 -102.5t22 -131.5t8 -163v-311q0 -117 -12 -209.5t-32.5 -158t-53.5 -113t-68.5 -76t-84.5 -45t-95 -22t-105 -5.5t-105 5.5 t-95 22t-84.5 45t-68 76t-53 113t-32.5 158t-12 209.5zM270 1657q0 25 25 63l88 133q32 49 66 66.5t83 17.5t83.5 -18t66.5 -66l88 -133q25 -38 25 -63q0 -37 -25 -60.5t-65 -23.5q-47 0 -74 45l-99 164l-98 -164q-27 -45 -74 -45q-40 0 -65 23.5t-25 60.5zM369 594 q0 -133 9 -216t31.5 -125.5t50 -56.5t72.5 -14q46 0 73.5 14t49.5 56.5t31.5 125.5t9.5 216v311q0 155 -19 241t-53 116t-92 30t-91.5 -30t-52.5 -116t-19 -241v-311z" />
<glyph unicode="&#xd5;" horiz-adv-x="1064" d="M82 594v311q0 113 13.5 203.5t35.5 153t56.5 108t71 72t85 42t91.5 20.5t97 5q42 0 76 -3t73 -11t70 -22t63 -37.5t56.5 -55.5t46.5 -78t36 -102.5t22 -131.5t8 -163v-311q0 -117 -12 -209.5t-32.5 -158t-53.5 -113t-68.5 -76t-84.5 -45t-95 -22t-105 -5.5t-105 5.5 t-95 22t-84.5 45t-68 76t-53 113t-32.5 158t-12 209.5zM195 1667q0 60 65.5 117t134.5 57q58 0 142 -26.5t98 -26.5q32 0 78 36t75 36q35 0 58.5 -21t23.5 -53q0 -65 -61.5 -124.5t-136.5 -59.5q-21 0 -130 26.5t-122 26.5q-27 0 -67.5 -35t-69.5 -35q-38 0 -63 22.5 t-25 59.5zM369 594q0 -133 9 -216t31.5 -125.5t50 -56.5t72.5 -14q46 0 73.5 14t49.5 56.5t31.5 125.5t9.5 216v311q0 155 -19 241t-53 116t-92 30t-91.5 -30t-52.5 -116t-19 -241v-311z" />
<glyph unicode="&#xd6;" horiz-adv-x="1064" d="M82 594v311q0 113 13.5 203.5t35.5 153t56.5 108t71 72t85 42t91.5 20.5t97 5q42 0 76 -3t73 -11t70 -22t63 -37.5t56.5 -55.5t46.5 -78t36 -102.5t22 -131.5t8 -163v-311q0 -117 -12 -209.5t-32.5 -158t-53.5 -113t-68.5 -76t-84.5 -45t-95 -22t-105 -5.5t-105 5.5 t-95 22t-84.5 45t-68 76t-53 113t-32.5 158t-12 209.5zM205 1731q0 57 40 97t97 40t97 -40t40 -97t-40 -97.5t-97 -40.5t-97 40.5t-40 97.5zM369 594q0 -133 9 -216t31.5 -125.5t50 -56.5t72.5 -14q46 0 73.5 14t49.5 56.5t31.5 125.5t9.5 216v311q0 155 -19 241t-53 116 t-92 30t-91.5 -30t-52.5 -116t-19 -241v-311zM586 1731q0 57 40 97t97 40t97 -40t40 -97t-40 -97.5t-97 -40.5t-97 40.5t-40 97.5z" />
<glyph unicode="&#xd7;" horiz-adv-x="1228" d="M127 182q0 66 51 117l283 281l-283 280q-51 51 -51 117q0 33 29 61.5t65 28.5q60 0 113 -53l280 -281l281 281q53 53 113 53q36 0 65 -28.5t29 -61.5q0 -66 -51 -117l-283 -280l283 -281q51 -51 51 -117q0 -33 -29 -61.5t-65 -28.5q-60 0 -113 53l-281 281l-280 -281 q-53 -53 -113 -53q-36 0 -65 28.5t-29 61.5z" />
<glyph unicode="&#xd8;" horiz-adv-x="1064" d="M51 -10q0 20 31 73l65 113q-65 124 -65 418v311q0 113 13.5 203.5t35.5 153t56.5 108t71 72t85 42t91.5 20.5t97 5q224 0 324 -110l39 65q21 37 35 50.5t35 13.5t35 -13.5t14 -31.5q0 -19 -25 -60l-71 -123q65 -148 65 -395v-311q0 -117 -12 -209.5t-32.5 -158 t-53.5 -113t-68.5 -76t-84.5 -45t-95 -22t-105 -5.5q-111 0 -189 23.5t-134 87.5l-29 -51q-43 -78 -82 -78q-20 0 -33.5 14t-13.5 29zM369 561h4l313 537q-12 104 -48.5 149t-105.5 45q-58 0 -91.5 -30t-52.5 -116t-19 -241v-344zM379 373q13 -108 47.5 -149.5t105.5 -41.5 q46 0 73.5 14t49.5 56.5t31.5 125.5t9.5 216v321h-4z" />
<glyph unicode="&#xd9;" horiz-adv-x="1099" d="M104 391v969q0 63 40.5 102t97.5 39t97 -39t40 -102v-942q0 -118 45.5 -177t126.5 -59q79 0 124.5 59t45.5 177v942q0 63 40 102t97 39t97 -39t40 -102v-969q0 -198 -113.5 -312t-330.5 -114t-332 114t-115 312zM319 1849q0 39 28 63.5t63 24.5q27 0 43 -6t36 -26 l173 -174q30 -30 30 -68q0 -39 -23.5 -64.5t-62.5 -25.5q-36 0 -74 33l-161 149q-52 48 -52 94z" />
<glyph unicode="&#xda;" horiz-adv-x="1099" d="M104 391v969q0 63 40.5 102t97.5 39t97 -39t40 -102v-942q0 -118 45.5 -177t126.5 -59q79 0 124.5 59t45.5 177v942q0 63 40 102t97 39t97 -39t40 -102v-969q0 -198 -113.5 -312t-330.5 -114t-332 114t-115 312zM410 1663q0 38 30 68l172 174q20 20 36.5 26t43.5 6 q35 0 62.5 -24.5t27.5 -63.5q0 -47 -51 -94l-162 -149q-38 -33 -73 -33q-39 0 -62.5 25.5t-23.5 64.5z" />
<glyph unicode="&#xdb;" horiz-adv-x="1099" d="M104 391v969q0 63 40.5 102t97.5 39t97 -39t40 -102v-942q0 -118 45.5 -177t126.5 -59q79 0 124.5 59t45.5 177v942q0 63 40 102t97 39t97 -39t40 -102v-969q0 -198 -113.5 -312t-330.5 -114t-332 114t-115 312zM289 1657q0 27 24 63l88 133q32 48 66.5 66t83.5 18 t83 -17.5t66 -66.5l88 -133q25 -38 25 -63q0 -37 -25 -60.5t-65 -23.5q-47 0 -74 45l-98 164l-98 -164q-27 -45 -74 -45q-40 0 -65 23.5t-25 60.5z" />
<glyph unicode="&#xdc;" horiz-adv-x="1099" d="M104 391v969q0 63 40.5 102t97.5 39t97 -39t40 -102v-942q0 -118 45.5 -177t126.5 -59q79 0 124.5 59t45.5 177v942q0 63 40 102t97 39t97 -39t40 -102v-969q0 -198 -113.5 -312t-330.5 -114t-332 114t-115 312zM223 1731q0 57 40 97t97 40t97.5 -40t40.5 -97 t-40.5 -97.5t-97.5 -40.5t-97 40.5t-40 97.5zM604 1731q0 57 40 97t97 40t97.5 -40t40.5 -97t-40.5 -97.5t-97.5 -40.5t-97 40.5t-40 97.5z" />
<glyph unicode="&#xdd;" horiz-adv-x="985" d="M33 1376q0 62 39 93.5t96 31.5q63 0 91 -25t58 -104l177 -467l186 488q24 64 57 86t84 22q56 0 93.5 -33.5t37.5 -76.5q0 -39 -20 -84l-301 -686v-506q0 -63 -40 -102.5t-97 -39.5t-97.5 39.5t-40.5 102.5v491l-299 674q-24 57 -24 96zM352 1663q0 37 31 68l172 174 q20 20 36.5 26t43.5 6q35 0 62.5 -24.5t27.5 -63.5q0 -47 -51 -94l-162 -149q-38 -33 -74 -33q-39 0 -62.5 25.5t-23.5 64.5z" />
<glyph unicode="&#xde;" horiz-adv-x="1024" d="M115 115v1245q0 63 40 102t97 39t97 -39t40 -102v-123h215q373 0 373 -416q0 -89 -21.5 -166t-63 -137t-110 -94.5t-155.5 -34.5h-238v-274q0 -63 -40 -102.5t-97 -39.5t-97 39.5t-40 102.5zM389 596h123q90 0 134 56.5t44 156.5q0 221 -164 221h-137v-434z" />
<glyph unicode="&#xdf;" horiz-adv-x="985" d="M111 123v1044q0 162 97.5 248t285.5 86q173 0 266.5 -90.5t93.5 -249.5q0 -209 -145 -268v-4q95 -26 132.5 -111.5t37.5 -228.5q0 -70 -2 -120.5t-9 -113t-20 -106t-36 -88.5t-55 -72t-80 -44t-108 -17q-52 0 -89.5 26.5t-37.5 77.5q0 42 19 66t78 45q47 17 62 76.5 t15 220.5q0 132 -19.5 193.5t-78.5 82.5q-39 13 -55.5 37t-16.5 64q0 47 16.5 67.5t57.5 40.5q72 35 72 137q0 172 -109 172q-123 0 -123 -159v-1012q0 -75 -32.5 -112.5t-91.5 -37.5t-92 37.5t-33 112.5z" />
<glyph unicode="&#xe0;" horiz-adv-x="909" d="M78 270q0 128 40.5 205t137.5 129l223 117q80 42 80 117q0 47 -25.5 78.5t-70.5 31.5q-62 0 -88.5 -31t-34.5 -100q-4 -37 -36.5 -58.5t-82.5 -21.5t-90.5 25.5t-40.5 77.5q0 140 98.5 217.5t249.5 77.5q70 0 125.5 -9t94 -24t66.5 -39.5t44 -50.5t25.5 -61.5t12.5 -68 t3 -75.5v-569q0 -41 7 -97t7 -69q0 -99 -125 -99q-58 0 -94.5 33t-36.5 109l-4 -2q-32 -71 -93 -105.5t-134 -34.5q-117 0 -187.5 73.5t-70.5 223.5zM223 1483q0 39 27.5 63.5t62.5 24.5q27 0 43 -6t37 -27l172 -174q31 -31 31 -68q0 -39 -23.5 -64.5t-62.5 -25.5 q-36 0 -74 33l-162 150q-51 47 -51 94zM340 301q0 -62 24 -96.5t64 -34.5q60 0 95.5 58.5t35.5 148.5v196l-88 -61q-82 -57 -106.5 -98t-24.5 -113z" />
<glyph unicode="&#xe1;" horiz-adv-x="909" d="M78 270q0 128 40.5 205t137.5 129l223 117q80 42 80 117q0 47 -25.5 78.5t-70.5 31.5q-62 0 -88.5 -31t-34.5 -100q-4 -37 -36.5 -58.5t-82.5 -21.5t-90.5 25.5t-40.5 77.5q0 140 98.5 217.5t249.5 77.5q70 0 125.5 -9t94 -24t66.5 -39.5t44 -50.5t25.5 -61.5t12.5 -68 t3 -75.5v-569q0 -41 7 -97t7 -69q0 -99 -125 -99q-58 0 -94.5 33t-36.5 109l-4 -2q-32 -71 -93 -105.5t-134 -34.5q-117 0 -187.5 73.5t-70.5 223.5zM313 1296q0 37 31 68l172 174q21 21 37 27t43 6q35 0 62.5 -24.5t27.5 -63.5q0 -47 -51 -94l-162 -150q-38 -33 -74 -33 q-39 0 -62.5 25.5t-23.5 64.5zM340 301q0 -62 24 -96.5t64 -34.5q60 0 95.5 58.5t35.5 148.5v196l-88 -61q-82 -57 -106.5 -98t-24.5 -113z" />
<glyph unicode="&#xe2;" horiz-adv-x="909" d="M78 270q0 128 40.5 205t137.5 129l223 117q80 42 80 117q0 47 -25.5 78.5t-70.5 31.5q-62 0 -88.5 -31t-34.5 -100q-4 -37 -36.5 -58.5t-82.5 -21.5t-90.5 25.5t-40.5 77.5q0 140 98.5 217.5t249.5 77.5q70 0 125.5 -9t94 -24t66.5 -39.5t44 -50.5t25.5 -61.5t12.5 -68 t3 -75.5v-569q0 -41 7 -97t7 -69q0 -99 -125 -99q-58 0 -94.5 33t-36.5 109l-4 -2q-32 -71 -93 -105.5t-134 -34.5q-117 0 -187.5 73.5t-70.5 223.5zM193 1290q0 28 24 64l88 133q32 48 66.5 66t83.5 18t83 -17.5t66 -66.5l88 -133q25 -38 25 -64q0 -37 -25 -60.5t-65 -23.5 q-47 0 -74 45l-98 164l-99 -164q-27 -45 -73 -45q-40 0 -65 23.5t-25 60.5zM340 301q0 -62 24 -96.5t64 -34.5q60 0 95.5 58.5t35.5 148.5v196l-88 -61q-82 -57 -106.5 -98t-24.5 -113z" />
<glyph unicode="&#xe3;" horiz-adv-x="909" d="M78 270q0 128 40.5 205t137.5 129l223 117q80 42 80 117q0 47 -25.5 78.5t-70.5 31.5q-62 0 -88.5 -31t-34.5 -100q-4 -37 -36.5 -58.5t-82.5 -21.5t-90.5 25.5t-40.5 77.5q0 140 98.5 217.5t249.5 77.5q70 0 125.5 -9t94 -24t66.5 -39.5t44 -50.5t25.5 -61.5t12.5 -68 t3 -75.5v-569q0 -41 7 -97t7 -69q0 -99 -125 -99q-58 0 -94.5 33t-36.5 109l-4 -2q-32 -71 -93 -105.5t-134 -34.5q-117 0 -187.5 73.5t-70.5 223.5zM117 1300q0 60 65.5 117.5t134.5 57.5q58 0 142 -27t98 -27q32 0 78.5 36t75.5 36q35 0 58.5 -21t23.5 -53 q0 -65 -62 -124.5t-137 -59.5q-21 0 -130 26.5t-122 26.5q-27 0 -67.5 -34.5t-69.5 -34.5q-38 0 -63 22t-25 59zM340 301q0 -62 24 -96.5t64 -34.5q60 0 95.5 58.5t35.5 148.5v196l-88 -61q-82 -57 -106.5 -98t-24.5 -113z" />
<glyph unicode="&#xe4;" horiz-adv-x="909" d="M78 270q0 128 40.5 205t137.5 129l223 117q80 42 80 117q0 47 -25.5 78.5t-70.5 31.5q-62 0 -88.5 -31t-34.5 -100q-4 -37 -36.5 -58.5t-82.5 -21.5t-90.5 25.5t-40.5 77.5q0 140 98.5 217.5t249.5 77.5q70 0 125.5 -9t94 -24t66.5 -39.5t44 -50.5t25.5 -61.5t12.5 -68 t3 -75.5v-569q0 -41 7 -97t7 -69q0 -99 -125 -99q-58 0 -94.5 33t-36.5 109l-4 -2q-32 -71 -93 -105.5t-134 -34.5q-117 0 -187.5 73.5t-70.5 223.5zM127 1364q0 57 40 97t97 40t97 -40t40 -97t-40 -97t-97 -40t-97 40t-40 97zM340 301q0 -62 24 -96.5t64 -34.5 q60 0 95.5 58.5t35.5 148.5v196l-88 -61q-82 -57 -106.5 -98t-24.5 -113zM508 1364q0 57 40 97t97 40t97 -40t40 -97t-40 -97t-97 -40t-97 40t-40 97z" />
<glyph unicode="&#xe5;" horiz-adv-x="909" d="M78 270q0 128 40.5 205t137.5 129l223 117q80 42 80 117q0 47 -25.5 78.5t-70.5 31.5q-62 0 -88.5 -31t-34.5 -100q-4 -37 -36.5 -58.5t-82.5 -21.5t-90.5 25.5t-40.5 77.5q0 140 98.5 217.5t249.5 77.5q70 0 125.5 -9t94 -24t66.5 -39.5t44 -50.5t25.5 -61.5t12.5 -68 t3 -75.5v-569q0 -41 7 -97t7 -69q0 -99 -125 -99q-58 0 -94.5 33t-36.5 109l-4 -2q-32 -71 -93 -105.5t-134 -34.5q-117 0 -187.5 73.5t-70.5 223.5zM258 1423q0 91 63 154t154 63t154 -63t63 -154t-63 -154t-154 -63t-154 63t-63 154zM340 301q0 -62 24 -96.5t64 -34.5 q60 0 95.5 58.5t35.5 148.5v196l-88 -61q-82 -57 -106.5 -98t-24.5 -113zM377 1423q0 -41 28.5 -69.5t69.5 -28.5t69.5 28.5t28.5 69.5t-28.5 70t-69.5 29t-69.5 -29t-28.5 -70z" />
<glyph unicode="&#xe6;" horiz-adv-x="1327" d="M78 270q0 128 40.5 205t137.5 129l223 117q80 42 80 117q0 47 -25.5 78.5t-70.5 31.5q-62 0 -88.5 -31t-34.5 -100q-4 -37 -36.5 -58.5t-82.5 -21.5t-90.5 25.5t-40.5 77.5q0 140 98.5 217.5t249.5 77.5q164 0 246 -82q98 82 229 82q190 0 269.5 -106t79.5 -331 q0 -43 -4.5 -71t-18 -54.5t-42.5 -39.5t-75 -13h-329v-112q0 -46 2 -76.5t8.5 -64t18 -53t32.5 -32t51 -12.5q40 0 68.5 34.5t30.5 80.5q3 76 33.5 104.5t88.5 28.5q61 0 94 -27t33 -96q0 -149 -93 -235.5t-247 -86.5q-116 0 -187.5 34.5t-121.5 111.5q-97 -146 -268 -146 q-117 0 -187.5 73.5t-70.5 223.5zM340 301q0 -62 24 -96.5t64 -34.5q60 0 95.5 58.5t35.5 148.5v196l-88 -61q-82 -57 -106.5 -98t-24.5 -113zM793 696h219v92q0 150 -111 150q-108 0 -108 -150v-92z" />
<glyph unicode="&#xe7;" horiz-adv-x="872" d="M86 453v202q0 91 6 153.5t27.5 129t60 106.5t107.5 65.5t166 25.5q82 0 146 -22.5t100.5 -55.5t60 -76t31.5 -79.5t8 -70.5q0 -70 -34 -105.5t-89 -35.5q-65 0 -96 33t-31 108q0 51 -26.5 79t-67.5 28q-36 0 -58.5 -18.5t-32.5 -58.5t-13 -79t-3 -104v-246 q0 -140 24 -201t83 -61q91 0 94 113q4 102 34 141t93 39q56 0 89.5 -39t33.5 -107q0 -36 -6.5 -73t-26 -83.5t-50.5 -82.5t-86.5 -63.5t-127.5 -34.5l-60 -95h27q82 0 130 -35t48 -108q0 -83 -69.5 -133.5t-171.5 -50.5q-68 0 -114 21.5t-46 55.5q0 23 11.5 37.5t29.5 14.5 q19 0 54 -11.5t50 -11.5q37 0 63.5 19t26.5 55q0 27 -20.5 46t-48.5 19q-10 0 -32.5 -3t-31.5 -3q-17 0 -28 10t-11 23q0 11 23 47l63 100q-59 5 -105.5 21.5t-78.5 39.5t-55.5 58.5t-36.5 71.5t-20.5 86t-10 94.5t-2.5 104.5z" />
<glyph unicode="&#xe8;" horiz-adv-x="872" d="M78 438v232q0 66 3 115t13 100.5t27 87t45.5 68t68.5 52t96 31t128 11.5q190 0 269 -106t79 -331q0 -43 -4 -71t-17.5 -54.5t-42.5 -39.5t-75 -13h-328v-112q0 -57 3.5 -94.5t14.5 -73t34.5 -53t60.5 -17.5q39 0 66.5 34.5t29.5 80.5q3 76 34 104.5t89 28.5q61 0 94 -27 t33 -96q0 -149 -93 -235.5t-247 -86.5q-72 0 -128 11.5t-96 31t-68.5 52t-45.5 68t-27 87t-13 100.5t-3 115zM217 1483q0 39 27.5 63.5t62.5 24.5q27 0 43 -6t37 -27l172 -174q31 -31 31 -68q0 -39 -23.5 -64.5t-62.5 -25.5q-36 0 -74 33l-162 150q-51 47 -51 94zM340 696 h217v92q0 150 -108 150q-109 0 -109 -150v-92z" />
<glyph unicode="&#xe9;" horiz-adv-x="872" d="M78 438v232q0 66 3 115t13 100.5t27 87t45.5 68t68.5 52t96 31t128 11.5q190 0 269 -106t79 -331q0 -43 -4 -71t-17.5 -54.5t-42.5 -39.5t-75 -13h-328v-112q0 -57 3.5 -94.5t14.5 -73t34.5 -53t60.5 -17.5q39 0 66.5 34.5t29.5 80.5q3 76 34 104.5t89 28.5q61 0 94 -27 t33 -96q0 -149 -93 -235.5t-247 -86.5q-72 0 -128 11.5t-96 31t-68.5 52t-45.5 68t-27 87t-13 100.5t-3 115zM307 1296q0 37 31 68l172 174q21 21 37 27t43 6q35 0 62.5 -24.5t27.5 -63.5q0 -47 -51 -94l-162 -150q-38 -33 -74 -33q-39 0 -62.5 25.5t-23.5 64.5zM340 696 h217v92q0 150 -108 150q-109 0 -109 -150v-92z" />
<glyph unicode="&#xea;" horiz-adv-x="872" d="M78 438v232q0 66 3 115t13 100.5t27 87t45.5 68t68.5 52t96 31t128 11.5q190 0 269 -106t79 -331q0 -43 -4 -71t-17.5 -54.5t-42.5 -39.5t-75 -13h-328v-112q0 -57 3.5 -94.5t14.5 -73t34.5 -53t60.5 -17.5q39 0 66.5 34.5t29.5 80.5q3 76 34 104.5t89 28.5q61 0 94 -27 t33 -96q0 -149 -93 -235.5t-247 -86.5q-72 0 -128 11.5t-96 31t-68.5 52t-45.5 68t-27 87t-13 100.5t-3 115zM186 1290q0 26 25 64l88 133q32 48 66.5 66t83.5 18t83 -17.5t66 -66.5l88 -133q25 -38 25 -64q0 -37 -25 -60.5t-65 -23.5q-47 0 -74 45l-98 164l-99 -164 q-27 -45 -74 -45q-40 0 -65 23.5t-25 60.5zM340 696h217v92q0 150 -108 150q-109 0 -109 -150v-92z" />
<glyph unicode="&#xeb;" horiz-adv-x="872" d="M78 438v232q0 66 3 115t13 100.5t27 87t45.5 68t68.5 52t96 31t128 11.5q190 0 269 -106t79 -331q0 -43 -4 -71t-17.5 -54.5t-42.5 -39.5t-75 -13h-328v-112q0 -57 3.5 -94.5t14.5 -73t34.5 -53t60.5 -17.5q39 0 66.5 34.5t29.5 80.5q3 76 34 104.5t89 28.5q61 0 94 -27 t33 -96q0 -149 -93 -235.5t-247 -86.5q-72 0 -128 11.5t-96 31t-68.5 52t-45.5 68t-27 87t-13 100.5t-3 115zM121 1364q0 57 40 97t97 40t97 -40t40 -97t-40 -97t-97 -40t-97 40t-40 97zM340 696h217v92q0 150 -108 150q-109 0 -109 -150v-92zM502 1364q0 57 40 97t97 40 t97 -40t40 -97t-40 -97t-97 -40t-97 40t-40 97z" />
<glyph unicode="&#xec;" d="M14 1483q0 39 27.5 63.5t62.5 24.5q27 0 43 -6t37 -27l172 -174q31 -31 31 -68q0 -39 -23.5 -64.5t-62.5 -25.5q-36 0 -74 33l-161 150q-52 48 -52 94zM121 123v862q0 75 33 112.5t92 37.5t92 -37.5t33 -112.5v-862q0 -75 -33 -112.5t-92 -37.5t-92 37.5t-33 112.5z" />
<glyph unicode="&#xed;" d="M104 1296q0 37 31 68l172 174q21 21 37 27t43 6q35 0 62.5 -24.5t27.5 -63.5q0 -47 -51 -94l-162 -150q-38 -33 -74 -33q-39 0 -62.5 25.5t-23.5 64.5zM121 123v862q0 75 33 112.5t92 37.5t92 -37.5t33 -112.5v-862q0 -75 -33 -112.5t-92 -37.5t-92 37.5t-33 112.5z" />
<glyph unicode="&#xee;" d="M-16 1290q0 28 24 64l88 133q32 48 66.5 66t83.5 18t83 -17.5t66 -66.5l88 -133q25 -38 25 -64q0 -37 -25 -60.5t-65 -23.5q-47 0 -74 45l-98 164l-99 -164q-27 -45 -73 -45q-40 0 -65 23.5t-25 60.5zM121 123v862q0 75 33 112.5t92 37.5t92 -37.5t33 -112.5v-862 q0 -75 -33 -112.5t-92 -37.5t-92 37.5t-33 112.5z" />
<glyph unicode="&#xef;" d="M-82 1364q0 57 40 97t97 40t97.5 -40t40.5 -97t-40.5 -97t-97.5 -40t-97 40t-40 97zM121 123v862q0 75 33 112.5t92 37.5t92 -37.5t33 -112.5v-862q0 -75 -33 -112.5t-92 -37.5t-92 37.5t-33 112.5zM299 1364q0 57 40 97t97 40t97 -40t40 -97t-40 -97t-97 -40t-97 40 t-40 97z" />
<glyph unicode="&#xf0;" horiz-adv-x="909" d="M78 356v269q0 383 352 383q91 0 145 -72l5 4q-18 145 -95 283l-96 -52q-2 -1 -12.5 -6t-14 -6.5t-13.5 -5.5t-17 -5.5t-17.5 -3t-21.5 -1.5q-31 0 -51.5 17t-20.5 44q0 33 16 54t54 40l78 39q-26 23 -73 43t-75 38.5t-28 49.5q0 43 27 63.5t69 20.5q78 0 141.5 -29 t126.5 -87l86 45q2 1 12.5 6t14 6.5t13.5 5.5t17 5.5t17.5 3t21.5 1.5q31 0 51.5 -17t20.5 -44q0 -33 -16 -54t-54 -40l-75 -41q78 -104 121.5 -248t43.5 -289v-420q0 -85 -17.5 -150t-58 -119.5t-116.5 -84t-184 -29.5t-184 29.5t-117 84t-58.5 120t-17.5 149.5zM340 377 q0 -135 24 -181t91 -46t90.5 46t23.5 181v227q0 136 -23.5 181.5t-90.5 45.5t-91 -45.5t-24 -181.5v-227z" />
<glyph unicode="&#xf1;" horiz-adv-x="948" d="M111 123v862q0 75 33 112.5t92 37.5q58 0 91 -36.5t33 -107.5h5q30 69 94 106.5t139 37.5q109 0 174.5 -69.5t65.5 -205.5v-737q0 -75 -33 -112.5t-92 -37.5t-92 37.5t-33 112.5v678q0 58 -27 87.5t-69 29.5q-62 0 -97 -49t-35 -150v-596q0 -75 -32.5 -112.5t-91.5 -37.5 t-92 37.5t-33 112.5zM150 1300q0 60 65.5 117.5t134.5 57.5q58 0 142 -27t98 -27q32 0 78 36t75 36q35 0 58.5 -21t23.5 -53q0 -65 -61.5 -124.5t-136.5 -59.5q-21 0 -130 26.5t-122 26.5q-27 0 -67.5 -34.5t-69.5 -34.5q-38 0 -63 22t-25 59z" />
<glyph unicode="&#xf2;" horiz-adv-x="909" d="M78 403v302q0 75 10.5 136.5t36.5 117.5t68 93.5t108.5 60t153.5 22.5t153.5 -22.5t108 -60t68 -93.5t36.5 -117.5t10 -136.5v-302q0 -75 -10 -136.5t-36.5 -117.5t-68 -93.5t-108 -60t-153.5 -22.5t-153.5 22.5t-108.5 60t-68 93.5t-36.5 117.5t-10.5 136.5zM223 1483 q0 39 27.5 63.5t62.5 24.5q27 0 43 -6t37 -27l172 -174q31 -31 31 -68q0 -39 -23.5 -64.5t-62.5 -25.5q-36 0 -74 33l-162 150q-51 47 -51 94zM340 424q0 -149 25.5 -201.5t89.5 -52.5t89 52.5t25 201.5v264q0 144 -27.5 197t-86.5 53q-39 0 -63 -20t-38 -76t-14 -154v-264z " />
<glyph unicode="&#xf3;" horiz-adv-x="909" d="M78 403v302q0 75 10.5 136.5t36.5 117.5t68 93.5t108.5 60t153.5 22.5t153.5 -22.5t108 -60t68 -93.5t36.5 -117.5t10 -136.5v-302q0 -75 -10 -136.5t-36.5 -117.5t-68 -93.5t-108 -60t-153.5 -22.5t-153.5 22.5t-108.5 60t-68 93.5t-36.5 117.5t-10.5 136.5zM313 1296 q0 37 31 68l172 174q21 21 37 27t43 6q35 0 62.5 -24.5t27.5 -63.5q0 -47 -51 -94l-162 -150q-38 -33 -74 -33q-39 0 -62.5 25.5t-23.5 64.5zM340 424q0 -149 25.5 -201.5t89.5 -52.5t89 52.5t25 201.5v264q0 144 -27.5 197t-86.5 53q-39 0 -63 -20t-38 -76t-14 -154v-264z " />
<glyph unicode="&#xf4;" horiz-adv-x="909" d="M78 403v302q0 75 10.5 136.5t36.5 117.5t68 93.5t108.5 60t153.5 22.5t153.5 -22.5t108 -60t68 -93.5t36.5 -117.5t10 -136.5v-302q0 -75 -10 -136.5t-36.5 -117.5t-68 -93.5t-108 -60t-153.5 -22.5t-153.5 22.5t-108.5 60t-68 93.5t-36.5 117.5t-10.5 136.5zM193 1290 q0 28 24 64l88 133q32 48 66.5 66t83.5 18t83 -17.5t66 -66.5l88 -133q25 -38 25 -64q0 -37 -25 -60.5t-65 -23.5q-47 0 -74 45l-98 164l-99 -164q-27 -45 -73 -45q-40 0 -65 23.5t-25 60.5zM340 424q0 -149 25.5 -201.5t89.5 -52.5t89 52.5t25 201.5v264q0 144 -27.5 197 t-86.5 53q-39 0 -63 -20t-38 -76t-14 -154v-264z" />
<glyph unicode="&#xf5;" horiz-adv-x="909" d="M78 403v302q0 75 10.5 136.5t36.5 117.5t68 93.5t108.5 60t153.5 22.5t153.5 -22.5t108 -60t68 -93.5t36.5 -117.5t10 -136.5v-302q0 -75 -10 -136.5t-36.5 -117.5t-68 -93.5t-108 -60t-153.5 -22.5t-153.5 22.5t-108.5 60t-68 93.5t-36.5 117.5t-10.5 136.5zM117 1300 q0 60 65.5 117.5t134.5 57.5q58 0 142 -27t98 -27q32 0 78.5 36t75.5 36q35 0 58.5 -21t23.5 -53q0 -65 -62 -124.5t-137 -59.5q-21 0 -130 26.5t-122 26.5q-27 0 -67.5 -34.5t-69.5 -34.5q-38 0 -63 22t-25 59zM340 424q0 -149 25.5 -201.5t89.5 -52.5t89 52.5t25 201.5 v264q0 144 -27.5 197t-86.5 53q-39 0 -63 -20t-38 -76t-14 -154v-264z" />
<glyph unicode="&#xf6;" horiz-adv-x="909" d="M78 403v302q0 75 10.5 136.5t36.5 117.5t68 93.5t108.5 60t153.5 22.5t153.5 -22.5t108 -60t68 -93.5t36.5 -117.5t10 -136.5v-302q0 -75 -10 -136.5t-36.5 -117.5t-68 -93.5t-108 -60t-153.5 -22.5t-153.5 22.5t-108.5 60t-68 93.5t-36.5 117.5t-10.5 136.5zM127 1364 q0 57 40 97t97 40t97 -40t40 -97t-40 -97t-97 -40t-97 40t-40 97zM340 424q0 -149 25.5 -201.5t89.5 -52.5t89 52.5t25 201.5v264q0 144 -27.5 197t-86.5 53q-39 0 -63 -20t-38 -76t-14 -154v-264zM508 1364q0 57 40 97t97 40t97 -40t40 -97t-40 -97t-97 -40t-97 40t-40 97z " />
<glyph unicode="&#xf7;" horiz-adv-x="1228" d="M35 580q0 45 40 76.5t103 31.5h873q63 0 103 -31.5t40 -76.5t-40 -77t-103 -32h-873q-63 0 -103 32t-40 77zM459 145q0 65 45.5 110.5t109.5 45.5t110 -45.5t46 -110.5q0 -64 -45.5 -109.5t-110.5 -45.5q-64 0 -109.5 45t-45.5 110zM459 1014q0 64 45.5 109.5t109.5 45.5 q65 0 110.5 -45.5t45.5 -109.5t-46 -110t-110 -46t-109.5 45.5t-45.5 110.5z" />
<glyph unicode="&#xf8;" horiz-adv-x="909" d="M70 -12q0 21 20 55l49 82q-61 100 -61 278v302q0 75 10.5 136.5t36.5 117.5t68 93.5t108.5 60t153.5 22.5q162 0 254 -76l36 61q22 37 58 37q12 0 24.5 -11.5t12.5 -25.5q0 -18 -21 -55l-49 -82q61 -100 61 -278v-302q0 -75 -10 -136.5t-36.5 -117.5t-68 -93.5t-108 -60 t-153.5 -22.5q-166 0 -254 78l-37 -61q-25 -41 -51 -41q-16 0 -29.5 11.5t-13.5 27.5zM340 455h4l217 362q-11 67 -37.5 94t-68.5 27q-39 0 -63 -20t-38 -76t-14 -154v-233zM348 291q10 -68 35.5 -94.5t71.5 -26.5q64 0 89 52.5t25 201.5v231h-4z" />
<glyph unicode="&#xf9;" horiz-adv-x="948" d="M111 248v737q0 75 33 112.5t92 37.5t91.5 -37.5t32.5 -112.5v-678q0 -117 97 -117q67 0 99 48t32 151v596q0 75 33 112.5t92 37.5t92 -37.5t33 -112.5v-862q0 -75 -33 -112.5t-92 -37.5q-58 0 -91.5 37t-33.5 107h-4q-30 -69 -94 -106.5t-140 -37.5q-109 0 -174 69.5 t-65 205.5zM256 1483q0 39 27.5 63.5t62.5 24.5q27 0 43 -6t37 -27l172 -174q31 -31 31 -68q0 -39 -23.5 -64.5t-62.5 -25.5q-36 0 -74 33l-162 150q-51 47 -51 94z" />
<glyph unicode="&#xfa;" horiz-adv-x="948" d="M111 248v737q0 75 33 112.5t92 37.5t91.5 -37.5t32.5 -112.5v-678q0 -117 97 -117q67 0 99 48t32 151v596q0 75 33 112.5t92 37.5t92 -37.5t33 -112.5v-862q0 -75 -33 -112.5t-92 -37.5q-58 0 -91.5 37t-33.5 107h-4q-30 -69 -94 -106.5t-140 -37.5q-109 0 -174 69.5 t-65 205.5zM346 1296q0 37 31 68l172 174q21 21 37 27t43 6q35 0 62.5 -24.5t27.5 -63.5q0 -47 -51 -94l-162 -150q-38 -33 -74 -33q-39 0 -62.5 25.5t-23.5 64.5z" />
<glyph unicode="&#xfb;" horiz-adv-x="948" d="M111 248v737q0 75 33 112.5t92 37.5t91.5 -37.5t32.5 -112.5v-678q0 -117 97 -117q67 0 99 48t32 151v596q0 75 33 112.5t92 37.5t92 -37.5t33 -112.5v-862q0 -75 -33 -112.5t-92 -37.5q-58 0 -91.5 37t-33.5 107h-4q-30 -69 -94 -106.5t-140 -37.5q-109 0 -174 69.5 t-65 205.5zM225 1290q0 26 25 64l88 133q32 49 66 66.5t83 17.5t83.5 -18t66.5 -66l88 -133q25 -38 25 -64q0 -37 -25.5 -60.5t-65.5 -23.5q-46 0 -73 45l-99 164l-98 -164q-27 -45 -74 -45q-40 0 -65 23.5t-25 60.5z" />
<glyph unicode="&#xfc;" horiz-adv-x="948" d="M111 248v737q0 75 33 112.5t92 37.5t91.5 -37.5t32.5 -112.5v-678q0 -117 97 -117q67 0 99 48t32 151v596q0 75 33 112.5t92 37.5t92 -37.5t33 -112.5v-862q0 -75 -33 -112.5t-92 -37.5q-58 0 -91.5 37t-33.5 107h-4q-30 -69 -94 -106.5t-140 -37.5q-109 0 -174 69.5 t-65 205.5zM160 1364q0 57 40 97t97 40t97 -40t40 -97t-40 -97t-97 -40t-97 40t-40 97zM541 1364q0 57 40 97t97 40t97 -40t40 -97t-40 -97t-97 -40t-97 40t-40 97z" />
<glyph unicode="&#xfd;" horiz-adv-x="872" d="M39 1018q0 54 36 85.5t97 31.5q112 0 129 -97l145 -772h5l122 731q12 67 42.5 102.5t93.5 35.5q55 0 90 -30t35 -81q0 -18 -15 -80l-260 -1096q-27 -114 -58.5 -169t-89 -79t-165.5 -24q-117 0 -117 109q0 42 21 65t77 29q22 2 31.5 4t23.5 8.5t19.5 20t5.5 36.5 q0 31 -8 62l-250 1042q-10 58 -10 66zM295 1296q0 37 31 68l172 174q21 21 37 27t43 6q35 0 62.5 -24.5t27.5 -63.5q0 -46 -52 -94l-161 -150q-38 -33 -74 -33q-39 0 -62.5 25.5t-23.5 64.5z" />
<glyph unicode="&#xfe;" horiz-adv-x="948" d="M121 -274v1626q0 74 33 111.5t92 37.5t92 -37.5t33 -111.5v-367h4q31 70 92.5 110t128.5 40q65 0 113.5 -24t77.5 -62.5t46 -97t23 -117t6 -132.5v-296q0 -74 -6 -132.5t-23 -117t-46 -97t-77.5 -62.5t-113.5 -24q-72 0 -130 31.5t-91 93.5l-4 4v-376q0 -75 -33 -112.5 t-92 -37.5t-92 37.5t-33 112.5zM371 440q0 -130 28 -200t97 -70q64 0 84 68.5t20 222.5v155q0 184 -21.5 248t-84.5 64q-123 0 -123 -269v-219z" />
<glyph unicode="&#xff;" horiz-adv-x="872" d="M39 1018q0 54 36 85.5t97 31.5q112 0 129 -97l145 -772h5l122 731q12 67 42.5 102.5t93.5 35.5q55 0 90 -30t35 -81q0 -18 -15 -80l-260 -1096q-27 -114 -58.5 -169t-89 -79t-165.5 -24q-117 0 -117 109q0 42 21 65t77 29q22 2 31.5 4t23.5 8.5t19.5 20t5.5 36.5 q0 31 -8 62l-250 1042q-10 58 -10 66zM109 1364q0 57 40 97t97 40t97 -40t40 -97t-40 -97t-97 -40t-97 40t-40 97zM489 1364q0 57 40.5 97t97.5 40t97 -40t40 -97t-40 -97t-97 -40t-97.5 40t-40.5 97z" />
<glyph unicode="&#x152;" horiz-adv-x="1630" d="M82 594v311q0 113 13.5 203.5t35.5 153t56.5 108t71 72t85 42t91.5 20.5t97 5q166 0 242 -79v-5h4q7 22 34 36t60 14h545q73 0 108.5 -33.5t35.5 -89.5t-35.5 -89.5t-108.5 -33.5h-446v-340h415q73 0 108.5 -33.5t35.5 -89.5t-35.5 -89.5t-108.5 -33.5h-415v-397h446 q73 0 108.5 -33.5t35.5 -89.5t-35.5 -89.5t-108.5 -33.5h-497q-122 0 -146 43q-75 -78 -242 -78q-59 0 -105 5.5t-95 22t-84.5 45t-68 76t-53 113t-32.5 158t-12 209.5zM369 594q0 -133 9 -216t31.5 -125.5t50 -56.5t72.5 -14q46 0 73.5 14t49.5 56.5t31.5 125.5t9.5 216 v311q0 155 -19 241t-53 116t-92 30t-91.5 -30t-52.5 -116t-19 -241v-311z" />
<glyph unicode="&#x153;" horiz-adv-x="1366" d="M94 436v275q0 424 365 424q68 0 138 -23t122 -63v2q108 84 233 84q190 0 269 -106t79 -331q0 -43 -4 -71t-17.5 -54.5t-42.5 -39.5t-75 -13h-327v-112q0 -46 2 -76.5t8.5 -64t18 -53t32.5 -32t51 -12.5q39 0 66.5 34.5t29.5 80.5q3 76 34 104.5t89 28.5q61 0 94 -27 t33 -96q0 -149 -93 -235.5t-247 -86.5q-170 0 -264 88q-39 -43 -104 -65.5t-131 -22.5q-198 0 -278.5 116t-80.5 347zM356 463q0 -75 4 -122.5t15.5 -89.5t35 -61.5t60.5 -19.5q30 0 51 12.5t33 32.5t18.5 56.5t8.5 73.5t2 93v232q0 56 -2 93t-8.5 73.5t-18.5 56.5t-33 32.5 t-51 12.5q-37 0 -60.5 -19.5t-35 -61.5t-15.5 -89.5t-4 -122.5v-182zM834 696h217v92q0 150 -109 150q-108 0 -108 -150v-92z" />
<glyph unicode="&#x178;" horiz-adv-x="985" d="M33 1376q0 62 39 93.5t96 31.5q63 0 91 -25t58 -104l177 -467l186 488q24 64 57 86t84 22q56 0 93.5 -33.5t37.5 -76.5q0 -39 -20 -84l-301 -686v-506q0 -63 -40 -102.5t-97 -39.5t-97.5 39.5t-40.5 102.5v491l-299 674q-24 57 -24 96zM166 1731q0 57 40 97t97 40t97 -40 t40 -97t-40 -97.5t-97 -40.5t-97 40.5t-40 97.5zM547 1731q0 57 40 97t97 40t97 -40t40 -97t-40 -97.5t-97 -40.5t-97 40.5t-40 97.5z" />
<glyph unicode="&#x2c6;" d="M-16 1290q0 28 24 64l88 133q32 48 66.5 66t83.5 18t83 -17.5t66 -66.5l88 -133q25 -38 25 -64q0 -37 -25 -60.5t-65 -23.5q-47 0 -74 45l-98 164l-99 -164q-27 -45 -73 -45q-40 0 -65 23.5t-25 60.5z" />
<glyph unicode="&#x2dc;" d="M-92 1300q0 60 66 117.5t135 57.5q58 0 141.5 -27t97.5 -27q32 0 78.5 36t75.5 36q35 0 58.5 -21t23.5 -53q0 -65 -62 -124.5t-137 -59.5q-21 0 -130 26.5t-122 26.5q-27 0 -67.5 -34.5t-69.5 -34.5q-38 0 -63 22t-25 59z" />
<glyph unicode="&#x2000;" horiz-adv-x="988" />
<glyph unicode="&#x2001;" horiz-adv-x="1976" />
<glyph unicode="&#x2002;" horiz-adv-x="988" />
<glyph unicode="&#x2003;" horiz-adv-x="1976" />
<glyph unicode="&#x2004;" horiz-adv-x="658" />
<glyph unicode="&#x2005;" horiz-adv-x="494" />
<glyph unicode="&#x2006;" horiz-adv-x="329" />
<glyph unicode="&#x2007;" horiz-adv-x="329" />
<glyph unicode="&#x2008;" horiz-adv-x="247" />
<glyph unicode="&#x2009;" horiz-adv-x="395" />
<glyph unicode="&#x200a;" horiz-adv-x="109" />
<glyph unicode="&#x2010;" horiz-adv-x="681" d="M80 580q0 49 32.5 82.5t94.5 33.5h268q62 0 94.5 -33.5t32.5 -82.5q0 -50 -32.5 -83.5t-94.5 -33.5h-268q-62 0 -94.5 33.5t-32.5 83.5z" />
<glyph unicode="&#x2011;" horiz-adv-x="681" d="M80 580q0 49 32.5 82.5t94.5 33.5h268q62 0 94.5 -33.5t32.5 -82.5q0 -50 -32.5 -83.5t-94.5 -33.5h-268q-62 0 -94.5 33.5t-32.5 83.5z" />
<glyph unicode="&#x2012;" horiz-adv-x="681" d="M80 580q0 49 32.5 82.5t94.5 33.5h268q62 0 94.5 -33.5t32.5 -82.5q0 -50 -32.5 -83.5t-94.5 -33.5h-268q-62 0 -94.5 33.5t-32.5 83.5z" />
<glyph unicode="&#x2013;" horiz-adv-x="1024" d="M20 580q0 49 32.5 82.5t94.5 33.5h730q62 0 94.5 -33.5t32.5 -82.5q0 -50 -32.5 -83.5t-94.5 -33.5h-730q-62 0 -94.5 33.5t-32.5 83.5z" />
<glyph unicode="&#x2014;" horiz-adv-x="2048" d="M20 580q0 49 32.5 82.5t94.5 33.5h1754q62 0 94.5 -33.5t32.5 -82.5q0 -50 -32.5 -83.5t-94.5 -33.5h-1754q-62 0 -94.5 33.5t-32.5 83.5z" />
<glyph unicode="&#x2018;" horiz-adv-x="454" d="M63 1130q0 154 89.5 262.5t183.5 108.5q24 0 39.5 -15.5t15.5 -35.5q0 -23 -11 -34.5t-42 -22.5q-42 -14 -87 -57t-56 -93q18 2 43 2q76 0 114.5 -48t38.5 -101q0 -67 -46.5 -114.5t-117.5 -47.5q-79 0 -121.5 60t-42.5 136z" />
<glyph unicode="&#x2019;" horiz-adv-x="454" d="M63 985q0 23 11.5 34.5t42.5 22.5q42 14 87 57t56 93q-18 -2 -43 -2q-76 0 -115 48t-39 101q0 67 46.5 114.5t117.5 47.5q79 0 121.5 -60t42.5 -136q0 -154 -89 -262.5t-183 -108.5q-24 0 -40 15.5t-16 35.5z" />
<glyph unicode="&#x201a;" horiz-adv-x="454" d="M63 123q0 67 46.5 114.5t117.5 47.5q79 0 121.5 -60.5t42.5 -136.5q0 -154 -89 -262.5t-183 -108.5q-24 0 -40 16t-16 36q0 23 11.5 34.5t42.5 22.5q42 14 87 56.5t56 92.5q-18 -2 -43 -2q-76 0 -115 48.5t-39 101.5z" />
<glyph unicode="&#x201c;" horiz-adv-x="872" d="M74 1130q0 154 89 262.5t183 108.5q24 0 39.5 -15.5t15.5 -35.5q0 -23 -11 -34.5t-42 -22.5q-42 -14 -87 -57t-56 -93q18 2 43 2q76 0 114.5 -48t38.5 -101q0 -67 -46 -114.5t-117 -47.5q-79 0 -121.5 60t-42.5 136zM471 1130q0 154 89 262.5t183 108.5q24 0 40 -15.5 t16 -35.5q0 -23 -11.5 -34.5t-42.5 -22.5q-42 -14 -87 -57t-56 -93q18 2 43 2q76 0 115 -48t39 -101q0 -67 -46.5 -114.5t-117.5 -47.5q-79 0 -121.5 60t-42.5 136z" />
<glyph unicode="&#x201d;" horiz-adv-x="872" d="M74 985q0 23 11 34.5t42 22.5q42 14 87 57t56 93q-18 -2 -43 -2q-76 0 -114.5 48t-38.5 101q0 67 46.5 114.5t117.5 47.5q79 0 121 -60t42 -136q0 -154 -89 -262.5t-183 -108.5q-24 0 -39.5 15.5t-15.5 35.5zM471 985q0 23 11 34.5t42 22.5q42 14 87.5 57t56.5 93 q-18 -2 -43 -2q-76 0 -115 48t-39 101q0 67 46.5 114.5t117.5 47.5q79 0 121.5 -60t42.5 -136q0 -154 -89.5 -262.5t-183.5 -108.5q-24 0 -39.5 15.5t-15.5 35.5z" />
<glyph unicode="&#x201e;" horiz-adv-x="872" d="M74 123q0 67 46.5 114.5t117.5 47.5q79 0 121 -60.5t42 -136.5q0 -154 -89 -262.5t-183 -108.5q-24 0 -39.5 16t-15.5 36q0 23 11 34.5t42 22.5q42 14 87 56.5t56 92.5q-18 -2 -43 -2q-76 0 -114.5 48.5t-38.5 101.5zM471 123q0 67 46.5 114.5t117.5 47.5 q79 0 121.5 -60.5t42.5 -136.5q0 -154 -89.5 -262.5t-183.5 -108.5q-24 0 -39.5 16t-15.5 36q0 23 11 34.5t42 22.5q42 14 87.5 56.5t56.5 92.5q-18 -2 -43 -2q-76 0 -115 48.5t-39 101.5z" />
<glyph unicode="&#x2022;" horiz-adv-x="1024" d="M143 737q0 152 108.5 260.5t260.5 108.5t260.5 -108.5t108.5 -260.5t-108.5 -260t-260.5 -108t-260.5 108t-108.5 260z" />
<glyph unicode="&#x2026;" horiz-adv-x="2048" d="M186 129q0 65 46 110.5t110 45.5t110 -45.5t46 -110.5t-46 -110.5t-110 -45.5t-110 45.5t-46 110.5zM868 129q0 65 46 110.5t110 45.5t110 -45.5t46 -110.5t-46 -110.5t-110 -45.5t-110 45.5t-46 110.5zM1550 129q0 65 46 110.5t110 45.5t110 -45.5t46 -110.5t-46 -110.5 t-110 -45.5t-110 45.5t-46 110.5z" />
<glyph unicode="&#x202f;" horiz-adv-x="395" />
<glyph unicode="&#x2039;" horiz-adv-x="530" d="M78 580q0 38 15.5 68.5t58.5 68.5l147 133q29 29 63 29q36 0 63.5 -24.5t27.5 -66.5q0 -18 -13 -34.5t-43 -42.5l-149 -131l149 -131q29 -26 42.5 -43t13.5 -35q0 -42 -27.5 -66t-63.5 -24q-35 0 -63 28l-147 133q-43 38 -58.5 69t-15.5 69z" />
<glyph unicode="&#x203a;" horiz-adv-x="530" d="M78 371q0 30 55 78l150 131l-150 131q-29 26 -42 42.5t-13 34.5q0 42 27 66.5t63 24.5q34 0 63 -29l148 -133q43 -38 58.5 -68.5t15.5 -68.5t-15.5 -69t-58.5 -69l-148 -133q-28 -28 -63 -28q-36 0 -63 24t-27 66z" />
<glyph unicode="&#x205f;" horiz-adv-x="494" />
<glyph unicode="&#x20ac;" horiz-adv-x="983" d="M20 868q0 51 34 67.5t89 14.5q42 235 166.5 379t319.5 144q366 0 366 -175q0 -48 -29 -81t-75 -33q-35 0 -71 18t-79.5 36.5t-95.5 18.5q-60 0 -108 -45t-75 -110.5t-44 -151.5h272q27 0 43.5 -2t35 -9t27.5 -23.5t9 -43.5q0 -51 -29.5 -67.5t-85.5 -16.5h-293v-114h238 q27 0 43.5 -2t35 -9t27.5 -23.5t9 -43.5q0 -51 -29.5 -67.5t-85.5 -16.5h-221q51 -322 233 -322q47 0 93.5 21.5t87.5 43t73 21.5q42 0 66 -29.5t24 -76.5q0 -48 -27.5 -85t-67.5 -57.5t-93.5 -33.5t-97.5 -17t-87 -4q-205 0 -326 146t-157 393q-25 0 -42 2.5t-34.5 10 t-26.5 24.5t-9 43q0 46 27 63t73 19v35q0 52 2 79q-49 0 -77 16t-28 64z" />
<glyph unicode="&#x2122;" horiz-adv-x="2048" d="M55 1382q0 36 25 64.5t76 28.5h506q51 0 74.5 -28t23.5 -65q0 -38 -23.5 -66t-74.5 -28h-138v-543q0 -38 -13.5 -66t-33.5 -41.5t-37.5 -19.5t-31.5 -6t-31.5 6t-38 19.5t-34 41.5t-13.5 66v543h-135q-51 0 -76 28.5t-25 65.5zM864 745v558q0 52 16.5 90t43 57.5t54.5 28 t58 8.5q157 0 219 -158l134 -342l133 342q62 158 219 158q30 0 58 -8.5t54.5 -28t43 -57.5t16.5 -90v-558q0 -59 -32 -96t-77 -37t-76.5 37t-31.5 96v424h-4l-187 -448q-44 -109 -116 -109q-73 0 -117 109l-187 448h-4v-424q0 -59 -31.5 -96t-76.5 -37t-77 37t-32 96z" />
<glyph unicode="&#xe000;" horiz-adv-x="1136" d="M0 0v1137h1137v-1137h-1137z" />
</font>
</defs>
</svg>
