<?xml version="1.0" standalone="no"?>
<!DOCTYPE svg PUBLIC "-//W3C//DTD SVG 1.1//EN" "http://www.w3.org/Graphics/SVG/1.1/DTD/svg11.dtd" >
<svg xmlns="http://www.w3.org/2000/svg">
<metadata></metadata>
<defs>
<font id="PenumbraSansStdLight" horiz-adv-x="1771" >
<font-face units-per-em="2048" ascent="1604" descent="-444" />
<missing-glyph horiz-adv-x="593" />
<glyph horiz-adv-x="0" />
<glyph horiz-adv-x="2048" />
<glyph unicode=" "  horiz-adv-x="593" />
<glyph unicode="&#x09;" horiz-adv-x="593" />
<glyph unicode="&#xa0;" horiz-adv-x="593" />
<glyph unicode="!" horiz-adv-x="524" d="M170 76q0 35 26 66.5t68 31.5h2q45 0 73 -27t28 -73q0 -41 -26.5 -67.5t-72.5 -26.5q-43 0 -70.5 26.5t-27.5 69.5zM205 348v1249h114v-1249h-114z" />
<glyph unicode="&#x22;" horiz-adv-x="577" d="M84 1593l141 15l-41 -420l-61 -12zM352 1593l142 15l-41 -420l-62 -12z" />
<glyph unicode="#" horiz-adv-x="1130" d="M86 535v81h215l57 342h-221v80h236l65 396h92l-65 -396h283l67 396h92l-67 -396h204v-80h-217l-59 -342h223v-81h-235l-70 -404h-92l70 404h-285l-68 -404h-90l66 404h-201zM393 616h283l59 342h-284z" />
<glyph unicode="$" horiz-adv-x="778" d="M70 90q2 15 7 52t7 51h6q110 -33 221 -33t192 75.5t81 202.5q0 57 -18 101.5t-68 101.5q-34 38 -112 100.5t-99 81.5q-37 35 -55.5 53t-48 54t-44 65t-26 71.5t-11.5 88.5q0 133 75.5 228.5t211.5 127.5q5 70 19 230v6h104v-6q-1 -9 -18 -217q102 0 182 -23 q-3 -20 -4.5 -35t-3 -32t-2.5 -31h-7q-66 22 -167 22q-115 0 -193 -68.5t-78 -189.5q0 -93 74 -184q23 -28 141 -130t121 -105q66 -68 107 -141t41 -167v-2q0 -129 -80 -231t-222 -133q-1 -18 -6 -72t-8.5 -97t-3.5 -55v-4h-106v4q1 12 9.5 101t10.5 108q-134 0 -229 31z " />
<glyph unicode="%" horiz-adv-x="1458" d="M61 1262q0 85 42 162.5t122 128.5t178 51h3q147 0 243 -102.5t96 -237.5q0 -62 -22.5 -123.5t-64 -113.5t-108.5 -84t-147 -32q-102 0 -182 53.5t-120 132.5t-40 165zM127 -39q3 4 170.5 264t362.5 562.5t361.5 561t172.5 269.5h115q-8 -14 -532 -829.5t-531 -827.5h-119 zM162 1262q0 -102 66.5 -179t174.5 -77h3q109 0 174 77.5t65 180.5q0 102 -65.5 174.5t-176.5 72.5q-109 0 -175 -74t-66 -175zM705 344q0 85 43.5 163t124 128.5t178.5 50.5h2q150 0 247 -104.5t97 -237.5q0 -61 -23 -122.5t-65 -113t-109 -84t-147 -32.5q-103 0 -185 55 t-122.5 134.5t-40.5 162.5zM805 344q0 -103 70.5 -180.5t177.5 -77.5h2q108 0 174.5 76t66.5 182q0 96 -67.5 172t-177.5 76q-107 0 -176.5 -74.5t-69.5 -173.5z" />
<glyph unicode="&#x26;" horiz-adv-x="1331" d="M61 365q0 103 41.5 195t111 166.5t179.5 158.5v4q-63 76 -108 153q-37 61 -55.5 116t-18.5 132q0 128 102.5 226t245.5 98q133 0 221 -87t88 -220q0 -138 -118 -269q-65 -70 -197 -168v-4q165 -211 414 -473h2q51 88 82.5 161.5t72.5 188.5q16 43 31 97h111v-4 q-17 -69 -43 -142q-78 -213 -183 -379q142 -151 318 -309v-6h-144q-3 0 -4 0.5t-2 2.5t-2 3q-154 144 -225 221h-2q-98 -120 -220 -190t-261 -70h-2q-190 0 -312.5 116t-122.5 282zM182 373q0 -127 93.5 -214t230.5 -87h2q231 0 399 229q-201 201 -452 506 q-136 -105 -204.5 -207.5t-68.5 -226.5zM330 1292q0 -94 42.5 -176t116.5 -174h3q128 100 186 172q74 95 74 186q0 82 -56 145.5t-147 63.5h-2q-94 0 -155.5 -65.5t-61.5 -151.5z" />
<glyph unicode="'" horiz-adv-x="309" d="M84 1593l141 15l-41 -420l-61 -12z" />
<glyph unicode="(" horiz-adv-x="614" d="M131 797q0 139 29.5 278t80.5 259.5t116 223.5t141 183h90q-72 -96 -139 -214t-105 -218q-98 -260 -98 -512q0 -257 96 -514q37 -100 104 -217t138 -213h-95q-73 85 -135 184t-113.5 218t-80.5 259t-29 283z" />
<glyph unicode=")" horiz-adv-x="614" d="M29 1741h94q157 -175 258.5 -424.5t101.5 -519.5q0 -285 -116 -555q-43 -102 -108.5 -207t-135.5 -182h-90q161 215 239 423q99 268 99 521q0 242 -103 520q-81 213 -239 424z" />
<glyph unicode="*" horiz-adv-x="645" d="M61 1421l50 82q27 -21 88.5 -65t87.5 -64l4 2q-14 136 -19 221h99q-2 -35 -8.5 -114.5t-8.5 -106.5l4 -2q48 33 172 129l52 -80q-27 -16 -94 -52t-95 -52v-4q28 -14 95 -44.5t96 -43.5l-52 -84q-20 14 -82.5 56t-91.5 63l-4 -2q7 -105 17 -211h-97q1 9 15 208l-2 3 q-62 -45 -176 -119l-48 82q16 8 86 41t105 51v4q-127 63 -193 102z" />
<glyph unicode="+" horiz-adv-x="1089" d="M106 659v91h392v383h94v-383h391v-91h-391v-421h-94v421h-392z" />
<glyph unicode="," horiz-adv-x="380" d="M92 -207q17 14 49 62q39 62 39 110q0 21 -20 23q-24 3 -45 28t-21 56q0 45 28 74.5t66 29.5h2q44 0 71.5 -34t27.5 -91q0 -87 -70 -186q-49 -69 -102 -98z" />
<glyph unicode="-" horiz-adv-x="569" d="M63 725v102h443v-102h-443z" />
<glyph unicode="." horiz-adv-x="380" d="M92 76q0 41 29 70.5t69 29.5h3q41 0 68.5 -29t27.5 -71q0 -40 -28.5 -69.5t-70.5 -29.5q-40 0 -69 29.5t-29 69.5z" />
<glyph unicode="/" horiz-adv-x="974" d="M-35 -39q171 308 471 846.5t455 818.5h113q-406 -737 -922 -1665h-117z" />
<glyph unicode="0" horiz-adv-x="1257" d="M92 809q0 75 7 149t25 155.5t45 153t69.5 137t96 112.5t128 74.5t162.5 27.5h2q88 0 163 -27.5t129 -74t97.5 -111.5t70.5 -136.5t45 -152.5t25.5 -156t7.5 -151q0 -74 -6.5 -147.5t-23 -157.5t-42.5 -157t-68.5 -141.5t-97 -117.5t-132.5 -78.5t-170 -29.5 q-91 0 -167.5 29t-130 77.5t-96 116.5t-68 141t-42 156.5t-23 158t-6.5 150.5zM213 809q0 -65 4.5 -128.5t17 -136.5t32.5 -136.5t52.5 -123.5t74.5 -102.5t102.5 -68t132.5 -25.5h2q72 0 132 25.5t102 68t74.5 102.5t52 123.5t31.5 137t16.5 136.5t4.5 128q0 57 -4.5 115 t-16.5 128.5t-31 133t-52 123t-75 104t-102.5 70t-133.5 26.5t-134 -26.5t-103 -70t-74.5 -104t-52 -123.5t-31.5 -133.5t-16.5 -128.5t-4.5 -114z" />
<glyph unicode="1" horiz-adv-x="696" d="M-2 1360q28 16 188 110t220 127h51v-1597h-115v1372q0 70 -3 72q-1 1 -7 -2q-119 -58 -291 -156z" />
<glyph unicode="2" horiz-adv-x="1040" d="M16 0v72q165 152 270 254.5t222 228.5q106 115 178 231q121 194 121 383q0 145 -95 241.5t-270 96.5q-211 0 -385 -129h-2q0 45 -4 115q76 57 190 91t222 34h2q109 0 198.5 -35.5t146.5 -95.5t87.5 -137t30.5 -162q0 -318 -275 -631q-104 -120 -234.5 -250.5 t-215.5 -200.5h745v-106h-932z" />
<glyph unicode="3" horiz-adv-x="993" d="M39 90q1 11 3.5 51.5t4.5 69.5h6q168 -117 357 -117q73 0 144.5 28t125.5 79q45 42 69.5 103t24.5 132q0 61 -26.5 123t-75.5 111q-20 19 -48.5 37.5t-65 34.5t-71.5 24q-85 20 -233 20v99q132 3 225.5 27.5t155.5 80.5q47 41 72.5 101t25.5 127q0 131 -89 209.5 t-236 78.5q-78 0 -156 -23.5t-129 -62.5h-4q0 19 -2 60t-2 57q135 78 309 78q195 0 315.5 -113t120.5 -286q0 -140 -83.5 -236t-215.5 -141v-2q58 -10 115.5 -42.5t95.5 -68.5q60 -56 94.5 -132t34.5 -163q0 -189 -139 -321q-60 -57 -152.5 -91t-193.5 -34q-208 0 -377 102z " />
<glyph unicode="4" horiz-adv-x="1146" d="M-10 387v12q32 44 206.5 287t362 502.5t311.5 429.5h7v-1124h235v-107h-235v-387h-115v387h-772zM195 494h567q0 643 6 813h-2q-36 -55 -161.5 -233t-265 -373.5t-144.5 -202.5v-4z" />
<glyph unicode="5" horiz-adv-x="1003" d="M43 53q9 50 18 107h5q121 -58 288 -58q165 0 287 76q69 44 120.5 131.5t51.5 186.5q0 129 -71 209.5t-179 117.5q-104 37 -233 37q-115 0 -221 -18q17 126 51.5 377.5t52.5 377.5h690q-1 -15 -3 -54t-3 -54h-582l-79 -533q203 18 368 -28q146 -39 238 -149.5t92 -280.5 v-2q0 -123 -70.5 -239t-177.5 -177q-153 -84 -336 -84q-167 0 -307 57z" />
<glyph unicode="6" horiz-adv-x="1214" d="M61 492q0 142 78 301q63 129 213 364q34 53 129.5 200.5t153.5 239.5h135q-51 -77 -141.5 -213t-159 -240.5t-141.5 -221.5l2 -2q125 96 286 96q153 0 273 -72.5t182 -187t62 -246.5v-2q0 -211 -142 -365q-153 -166 -399 -166q-123 0 -225 42.5t-168 114t-102 164 t-36 194.5zM180 498q0 -179 120 -297.5t296 -118.5h2q106 0 198.5 50.5t152 148.5t59.5 221q0 181 -119 296t-303 115q-117 0 -199 -45q-85 -45 -139 -127q-68 -109 -68 -243z" />
<glyph unicode="7" horiz-adv-x="1054" d="M61 1489v108h973q3 -6 0 -14q-511 -1009 -813 -1583h-127q126 248 378.5 735.5t387.5 753.5h-799z" />
<glyph unicode="8" horiz-adv-x="1173" d="M92 424q0 146 87 258t222 154q-117 51 -182 143t-65 217q0 183 131.5 301.5t314.5 118.5q188 0 305 -113.5t117 -292.5q0 -132 -65 -225.5t-183 -144.5q136 -37 221.5 -142t85.5 -256q0 -135 -69 -242t-181 -163.5t-245 -56.5h-2q-138 0 -250.5 56.5t-177 158 t-64.5 229.5zM221 428q0 -153 107.5 -247.5t261.5 -94.5q151 0 257.5 97t106.5 245q0 159 -105 252.5t-259 93.5h-2q-155 0 -261 -92.5t-106 -253.5zM279 1198q0 -136 90.5 -226.5t220.5 -90.5q132 0 219.5 90.5t87.5 224.5q0 139 -83.5 226t-223.5 87h-2q-139 0 -224 -87.5 t-85 -223.5z" />
<glyph unicode="9" horiz-adv-x="1216" d="M82 1083q0 108 37.5 205t105.5 166q157 164 416 164q155 0 274.5 -73t179.5 -186.5t60 -244.5v-2q0 -157 -96 -344q-63 -121 -195 -324q-251 -389 -286 -444h-140q71 104 140 208.5t158.5 241t142.5 216.5l-5 4q-124 -88 -282 -88q-143 0 -261 68.5t-183.5 183 t-65.5 249.5zM205 1100q0 -182 118 -299t298 -117q182 0 297 121q114 123 114 293q0 183 -122 300.5t-292 117.5h-2q-176 0 -293.5 -120.5t-117.5 -295.5z" />
<glyph unicode=":" horiz-adv-x="380" d="M92 76q0 41 29 70.5t69 29.5h3q41 0 68.5 -29t27.5 -71q0 -40 -28.5 -69.5t-70.5 -29.5q-40 0 -69 29.5t-29 69.5zM92 821q0 41 29 71t69 30h3q41 0 68.5 -29.5t27.5 -71.5q0 -40 -28.5 -69t-70.5 -29q-40 0 -69 29t-29 69z" />
<glyph unicode=";" horiz-adv-x="380" d="M92 -207q17 14 49 62q39 62 39 110q0 21 -20 23q-24 3 -45 28t-21 56q0 45 28 74.5t66 29.5h2q44 0 71.5 -34t27.5 -91q0 -87 -70 -186q-49 -69 -102 -98zM92 821q0 41 29 71t69 30h3q41 0 68.5 -29.5t27.5 -71.5q0 -40 -28.5 -69t-70.5 -29q-40 0 -69 29t-29 69z" />
<glyph unicode="&#x3c;" horiz-adv-x="1089" d="M131 657v78l827 398v-101l-702 -327v-17l702 -330v-102z" />
<glyph unicode="=" horiz-adv-x="1089" d="M106 481v90h877v-90h-877zM106 827v91h877v-91h-877z" />
<glyph unicode="&#x3e;" horiz-adv-x="1089" d="M131 256v102l703 330v17l-703 327v101l827 -398v-78z" />
<glyph unicode="?" horiz-adv-x="917" d="M53 1503q60 44 151.5 75.5t176.5 31.5h2q149 0 254 -66q88 -55 135 -143t47 -184q0 -121 -51 -217.5t-156 -213.5q-115 -128 -149.5 -213t-40.5 -225h-111q5 147 42.5 253.5t154.5 234.5q97 106 142.5 191t45.5 181q0 132 -89.5 213.5t-233.5 81.5q-63 0 -107 -12.5 t-98 -40.5q-63 -33 -100 -64h-7l-4 56t-3 42.5t-1 18.5zM268 76q0 41 29.5 70.5t69.5 29.5h2q41 0 68.5 -29t27.5 -71q0 -26 -12.5 -49t-35 -36.5t-50.5 -13.5q-40 0 -69.5 29.5t-29.5 69.5z" />
<glyph unicode="@" horiz-adv-x="1732" d="M102 584q0 169 65 318t175.5 254.5t261.5 166.5t318 61q141 0 267 -43t221.5 -122t151.5 -199t56 -264q0 -136 -57 -250.5t-149.5 -179t-197.5 -64.5q-67 0 -116.5 53.5t-50.5 151.5h-7q-57 -92 -140 -146.5t-183 -54.5q-101 0 -169.5 75t-68.5 200q0 210 144.5 354.5 t357.5 144.5q124 0 248 -47l-82 -391q-28 -127 0 -196.5t88 -69.5q77 0 146.5 63t109 157.5t39.5 188.5q0 123 -41 227.5t-118 182t-196 121t-268 43.5q-126 0 -253.5 -56t-229 -151t-165.5 -233t-64 -289q0 -143 50 -261.5t135.5 -196t198.5 -119.5t240 -42q190 0 346 90 l29 -65q-178 -94 -387 -94q-152 0 -281.5 47.5t-223.5 134.5t-147 216t-53 284zM580 551q0 -84 44 -143.5t134 -59.5q67 0 135.5 55.5t113 130t58.5 142.5l55 264q-78 23 -157 23q-101 0 -189.5 -56.5t-141 -152t-52.5 -203.5z" />
<glyph unicode="A" horiz-adv-x="1316" d="M0 0v4l8 18q7 18 26.5 64.5t50 119t86 208.5t124.5 307l367 903h12l354 -907q276 -703 279 -713v-4h-123v4q-9 26 -211 533h-635q-214 -524 -217 -533v-4h-121zM381 639h551l-2 8q-233 609 -264 707h-4q-7 -22 -16 -46t-19.5 -51.5t-33.5 -84.5t-46 -114.5t-70 -175.5 t-94 -235z" />
<glyph unicode="B" horiz-adv-x="1011" d="M174 12v1581q4 0 22 1t25 1q94 4 162 4q144 0 231 -38q29 -12 56.5 -29t60.5 -48t57 -69t40 -95t16 -124q0 -141 -78 -236t-197 -124v-5q146 -20 244 -118t98 -254v-2q0 -257 -233 -387q-121 -68 -330 -68q-74 0 -174 10zM289 115q0 -2 2 -2q33 -4 80 -4q126 0 211 36 q23 9 47.5 24t54 41.5t52 58.5t37.5 78.5t15 98.5v3q0 112 -62.5 188t-162.5 111q-86 28 -190 28q-61 0 -84 -2v-659zM289 881q10 -2 47 -2q95 0 162 20q44 12 83 37t71 61t50.5 87t18.5 110v2q0 73 -26.5 131t-72.5 93.5t-105 54t-126 18.5q-62 0 -102 -4v-608z" />
<glyph unicode="C" horiz-adv-x="1351" d="M82 805v2q0 191 68 347.5t184.5 257.5t270 155.5t327.5 54.5q101 0 164.5 -8.5t152.5 -28.5q-1 -15 -1.5 -41.5t-1 -46t-1.5 -24.5h-6q-135 40 -299 40q-336 0 -533.5 -190.5t-197.5 -521.5q0 -209 95 -373t257.5 -253t362.5 -89q117 0 215 20q17 4 90 29h2q1 -19 2 -56 t2 -54q-156 -48 -330 -48q-129 0 -250 34t-225 103.5t-181.5 167t-122 232.5t-44.5 291z" />
<glyph unicode="D" horiz-adv-x="1390" d="M174 4v1589q11 1 57 4.5t74 4.5q49 2 162 2q303 0 514 -136q148 -95 238 -267t90 -372v-2q0 -400 -262 -637q-217 -196 -582 -196q-116 0 -291 10zM289 111q0 -5 4 -5q61 -6 174 -6q146 0 277.5 44.5t218.5 125.5q225 208 225 553v2q0 169 -74 311.5t-203 237.5 q-79 58 -199.5 91.5t-248.5 33.5q-104 0 -174 -6v-1382z" />
<glyph unicode="E" horiz-adv-x="958" d="M174 0v1597h674v-106h-559v-621h524v-104h-524v-655q0 -2 2 -2h581v-109h-698z" />
<glyph unicode="F" horiz-adv-x="931" d="M174 0v1597h674v-106h-559v-637h524v-104h-524v-750h-115z" />
<glyph unicode="G" horiz-adv-x="1454" d="M82 803v2q0 155 44.5 287.5t123.5 228.5t185.5 164.5t231.5 102.5t261 34q194 0 370 -49q-2 -30 -3 -60t-1.5 -42.5t-1.5 -16.5h-4q-38 19 -82 27q-140 32 -262 32q-218 0 -384 -85.5t-259.5 -249t-93.5 -381.5q0 -210 91 -372.5t253.5 -251.5t370.5 -89q166 0 278 33 v598h115v-674q-189 -64 -412 -64q-175 0 -325.5 57t-260.5 161t-172.5 261t-62.5 347z" />
<glyph unicode="H" horiz-adv-x="1464" d="M174 0v1597h115v-727h887v727h114v-1597h-114v766h-887v-766h-115z" />
<glyph unicode="I" horiz-adv-x="462" d="M174 0v1597h115v-1597h-115z" />
<glyph unicode="J" horiz-adv-x="860" d="M43 14v109h4q38 -15 95.5 -26t111.5 -11q104 0 178 39t105 115q21 49 29.5 112t8.5 180v1065h115v-1065q0 -105 -7 -172.5t-20.5 -112.5t-39.5 -89q-24 -42 -68 -80.5t-88 -57.5q-86 -38 -215 -38q-113 0 -209 32z" />
<glyph unicode="K" horiz-adv-x="1097" d="M174 0v1597h115v-761h2l383 462q209 252 239 297v2h134v-4q-3 -4 -30 -37.5t-87 -107.5t-133 -162l-381 -459l295 -356q367 -445 389 -467v-4h-144v2q-6 6 -34.5 40.5t-127 152.5t-225.5 270l-278 332h-2v-797h-115z" />
<glyph unicode="L" horiz-adv-x="931" d="M174 0v1597h115v-1476q0 -12 8 -12h575v-109h-698z" />
<glyph unicode="M" horiz-adv-x="1863" d="M94 0v4q1 4 5 48t23 222.5t48 442.5l96 897h10q573 -1182 650 -1356h2q34 85 124.5 269.5t540.5 1086.5h11l86 -897q63 -673 69 -713v-4h-114v4q-2 13 -70 713q-38 365 -43 545h-4q-18 -42 -39 -88.5t-38 -82t-45 -92.5l-42 -85.5t-49.5 -98t-48.5 -96.5 q-162 -324 -342 -678h-13q-63 130 -126 258.5t-121 247.5t-84 172q-9 19 -55.5 114t-61 126.5t-46 99.5t-50.5 115t-35 92h-4q-12 -206 -49 -549q-17 -164 -31.5 -303.5t-21.5 -207t-12 -118t-6.5 -65.5t-2.5 -19v-4h-111z" />
<glyph unicode="N" horiz-adv-x="1521" d="M174 0v1622h10q257 -324 527 -666.5t319 -404.5q129 -165 207 -275h4v1321h107v-1617h-11q-378 474 -827 1044q-163 206 -227 299h-2v-1323h-107z" />
<glyph unicode="O" d="M82 786q0 174 63 328t172 265t263 175t329 64q165 0 311 -63t248.5 -171.5t162 -258.5t59.5 -318v-2q0 -167 -61 -319t-167 -264.5t-259.5 -179.5t-328.5 -67q-217 0 -400 110.5t-287.5 297t-104.5 403.5zM209 797q0 -142 52.5 -273.5t142.5 -228.5t216 -155t267 -58 q191 0 346.5 96t242.5 259.5t87 359.5v2q0 199 -88.5 362.5t-245.5 257.5t-348 94q-140 0 -264.5 -56t-214 -152t-141.5 -228.5t-52 -279.5z" />
<glyph unicode="P" horiz-adv-x="1040" d="M174 0v1591q31 3 110 7t109 4q160 0 266 -41q126 -47 204.5 -157.5t78.5 -268.5q0 -74 -20 -141.5t-52.5 -117.5t-74.5 -88q-87 -77 -201 -110q-42 -13 -98.5 -19t-95.5 -7t-111 -1v-651h-115zM289 758q7 0 35.5 -1t42.5 -1q84 0 150 13t118.5 41t93.5 73q90 99 90 254v2 q0 112 -55.5 195.5t-153.5 125.5q-77 35 -233 35q-38 0 -88 -4v-733z" />
<glyph unicode="Q" d="M82 786q0 172 63 326t172 265t263 176t329 65q219 0 398.5 -107.5t281 -293t101.5 -410.5v-2q0 -174 -69.5 -333t-180.5 -267q-98 -94 -230 -152v-4q118 -74 340 -147q14 -6 42.5 -14.5t29.5 -8.5l2 -4l-86 -86h-4q-74 22 -217 88q-62 28 -230 125q-81 -27 -213 -27 q-166 0 -314 65t-252.5 175t-165 259t-60.5 312zM209 797q0 -141 51.5 -271.5t140 -228.5t215.5 -156.5t269 -58.5q146 0 273 57t215.5 153.5t139 228t50.5 276.5v2q0 199 -87.5 362.5t-244.5 257.5t-352 94q-140 0 -265 -57t-213.5 -154t-140 -228.5t-51.5 -276.5z" />
<glyph unicode="R" horiz-adv-x="1044" d="M174 0v1593q22 0 94 4.5t92 4.5q165 0 279 -46q27 -10 54.5 -26.5t63.5 -48.5t63 -71.5t46 -100t19 -129.5q0 -269 -238 -404q-65 -40 -147 -59v-2q19 -22 442 -551q118 -147 131 -160v-4h-151q-139 176 -551 702h-82v-702h-115zM289 809q10 -2 61 -2q108 0 193 37 q219 94 219 330v2q0 152 -106 235.5t-279 83.5q-64 0 -88 -4v-682z" />
<glyph unicode="S" horiz-adv-x="843" d="M66 8q2 35 3.5 66.5t2.5 46.5h4q93 -35 217 -35q133 0 233.5 83t100.5 218q0 85 -34 152.5t-116 138.5q-26 23 -94.5 80t-108.5 96q-97 97 -133.5 173.5t-36.5 182.5q0 78 31 149.5t87 126.5t140 87.5t183 32.5q95 0 162 -19q-1 -9 -3.5 -46.5t-3.5 -61.5h-4 q-53 20 -145 20q-142 0 -235 -77t-93 -203q0 -136 103 -242q40 -42 115 -105t104 -90q102 -95 151 -182t49 -211v-2q0 -71 -28.5 -141t-83.5 -130.5t-149 -98t-212 -37.5q-104 0 -206 28z" />
<glyph unicode="T" horiz-adv-x="1140" d="M12 1493v104h1116v-104h-501v-1493h-115v1493h-500z" />
<glyph unicode="U" horiz-adv-x="1474" d="M154 657v940h114v-929q0 -267 86 -402q55 -85 156 -133.5t209 -48.5q254 0 377 162q108 143 108 446v905h111v-917q0 -339 -150 -516q-76 -91 -193 -139t-259 -48q-141 0 -256.5 53t-188.5 158q-61 86 -87.5 192.5t-26.5 276.5z" />
<glyph unicode="V" horiz-adv-x="1292" d="M0 1593v4h123v-4q17 -50 264 -671q173 -435 258 -676h2q99 271 260 678q98 247 164 412t84 209.5t19 47.5v4h118v-4q-1 -3 -18.5 -46.5t-84 -210.5t-165.5 -414l-377 -940h-10l-373 940q-256 642 -264 671z" />
<glyph unicode="W" horiz-adv-x="1880" d="M35 1593v4h119v-4q276 -1124 317 -1306h2q13 43 28 89t25 76.5t35 100.5t35.5 99t49.5 137.5t56 154.5q23 65 60 160t96 243.5t92 233.5h11q117 -298 241 -641q180 -496 228 -645h2q22 105 98 429t140 596l65 271v6h110v-6q-1 -3 -11.5 -44.5t-48.5 -200t-93 -388.5 l-236 -999h-14q-285 769 -375 1017.5t-115 336.5h-2q-49 -160 -499 -1354h-15l-250 999q-37 147 -65.5 265t-43.5 183t-24.5 107t-13.5 60t-4 20z" />
<glyph unicode="X" horiz-adv-x="1122" d="M20 0v4q2 3 27 46t117 199t229 386l103 172l-119 203q-287 488 -346 583v4h133v-4q1 -3 352 -596q41 -67 47 -79h2q13 25 43 75q298 502 359 600v4h129v-4q-13 -20 -346 -569l-125 -207l92 -160q160 -277 303 -526q69 -119 74 -127v-4h-138v4q-3 5 -24.5 43.5t-102 183 t-192.5 344.5q-10 18 -36.5 64.5t-39.5 67.5h-4q-41 -70 -68 -119q-319 -549 -339 -584v-4h-130z" />
<glyph unicode="Y" horiz-adv-x="1130" d="M-2 1593v4h131v-4q13 -47 242 -489q36 -72 106 -208t86 -167h6q33 71 187 377q225 451 231 487v4h125v-4q-15 -52 -381 -759l-113 -218v-616h-116v614l-121 230q-368 697 -383 749z" />
<glyph unicode="Z" horiz-adv-x="1112" d="M37 0v4q240 432 393 713l113 205q45 82 154.5 276t164.5 295l2 6h-772v98h955v-4q-62 -112 -185 -336t-186 -335l-115 -205q-302 -537 -340 -606l-2 -7h809v-104h-991z" />
<glyph unicode="[" horiz-adv-x="532" d="M190 -156v1897h302v-66h-173q-18 0 -18 -22v-711v-1012q0 -22 18 -22h173v-64h-302z" />
<glyph unicode="\" horiz-adv-x="974" d="M-35 1626h113q155 -280 455 -818.5t471 -846.5h-117q-516 928 -922 1665z" />
<glyph unicode="]" horiz-adv-x="532" d="M41 -92h172q18 0 18 22v1012v711q0 22 -18 22h-172v66h301v-1897h-301v64z" />
<glyph unicode="^" horiz-adv-x="1091" d="M86 778l410 819h96l412 -819h-115l-348 709l-344 -709h-111z" />
<glyph unicode="_" horiz-adv-x="1024" d="M0 -154h1024v-102h-1024v102z" />
<glyph unicode="`" horiz-adv-x="808" d="M240 1841l57 94l248 -211l-33 -47z" />
<glyph unicode="a" horiz-adv-x="1316" d="M0 0v4l8 18q7 18 26.5 64.5t50 119t86 208.5t124.5 307l367 903h12l354 -907q276 -703 279 -713v-4h-123v4q-9 26 -211 533h-635q-214 -524 -217 -533v-4h-121zM381 639h551l-2 8q-233 609 -264 707h-4q-7 -22 -16 -46t-19.5 -51.5t-33.5 -84.5t-46 -114.5t-70 -175.5 t-94 -235z" />
<glyph unicode="b" horiz-adv-x="1011" d="M174 12v1581q4 0 22 1t25 1q94 4 162 4q144 0 231 -38q29 -12 56.5 -29t60.5 -48t57 -69t40 -95t16 -124q0 -141 -78 -236t-197 -124v-5q146 -20 244 -118t98 -254v-2q0 -257 -233 -387q-121 -68 -330 -68q-74 0 -174 10zM289 115q0 -2 2 -2q33 -4 80 -4q126 0 211 36 q23 9 47.5 24t54 41.5t52 58.5t37.5 78.5t15 98.5v3q0 112 -62.5 188t-162.5 111q-86 28 -190 28q-61 0 -84 -2v-659zM289 881q10 -2 47 -2q95 0 162 20q44 12 83 37t71 61t50.5 87t18.5 110v2q0 73 -26.5 131t-72.5 93.5t-105 54t-126 18.5q-62 0 -102 -4v-608z" />
<glyph unicode="c" horiz-adv-x="1351" d="M82 805v2q0 191 68 347.5t184.5 257.5t270 155.5t327.5 54.5q101 0 164.5 -8.5t152.5 -28.5q-1 -15 -1.5 -41.5t-1 -46t-1.5 -24.5h-6q-135 40 -299 40q-336 0 -533.5 -190.5t-197.5 -521.5q0 -209 95 -373t257.5 -253t362.5 -89q117 0 215 20q17 4 90 29h2q1 -19 2 -56 t2 -54q-156 -48 -330 -48q-129 0 -250 34t-225 103.5t-181.5 167t-122 232.5t-44.5 291z" />
<glyph unicode="d" horiz-adv-x="1390" d="M174 4v1589q11 1 57 4.5t74 4.5q49 2 162 2q303 0 514 -136q148 -95 238 -267t90 -372v-2q0 -400 -262 -637q-217 -196 -582 -196q-116 0 -291 10zM289 111q0 -5 4 -5q61 -6 174 -6q146 0 277.5 44.5t218.5 125.5q225 208 225 553v2q0 169 -74 311.5t-203 237.5 q-79 58 -199.5 91.5t-248.5 33.5q-104 0 -174 -6v-1382z" />
<glyph unicode="e" horiz-adv-x="958" d="M174 0v1597h674v-106h-559v-621h524v-104h-524v-655q0 -2 2 -2h581v-109h-698z" />
<glyph unicode="f" horiz-adv-x="931" d="M174 0v1597h674v-106h-559v-637h524v-104h-524v-750h-115z" />
<glyph unicode="g" horiz-adv-x="1454" d="M82 803v2q0 155 44.5 287.5t123.5 228.5t185.5 164.5t231.5 102.5t261 34q194 0 370 -49q-2 -30 -3 -60t-1.5 -42.5t-1.5 -16.5h-4q-38 19 -82 27q-140 32 -262 32q-218 0 -384 -85.5t-259.5 -249t-93.5 -381.5q0 -210 91 -372.5t253.5 -251.5t370.5 -89q166 0 278 33 v598h115v-674q-189 -64 -412 -64q-175 0 -325.5 57t-260.5 161t-172.5 261t-62.5 347z" />
<glyph unicode="h" horiz-adv-x="1464" d="M174 0v1597h115v-727h887v727h114v-1597h-114v766h-887v-766h-115z" />
<glyph unicode="i" horiz-adv-x="462" d="M174 0v1597h115v-1597h-115z" />
<glyph unicode="j" horiz-adv-x="860" d="M43 14v109h4q38 -15 95.5 -26t111.5 -11q104 0 178 39t105 115q21 49 29.5 112t8.5 180v1065h115v-1065q0 -105 -7 -172.5t-20.5 -112.5t-39.5 -89q-24 -42 -68 -80.5t-88 -57.5q-86 -38 -215 -38q-113 0 -209 32z" />
<glyph unicode="k" horiz-adv-x="1097" d="M174 0v1597h115v-761h2l383 462q209 252 239 297v2h134v-4q-3 -4 -30 -37.5t-87 -107.5t-133 -162l-381 -459l295 -356q367 -445 389 -467v-4h-144v2q-6 6 -34.5 40.5t-127 152.5t-225.5 270l-278 332h-2v-797h-115z" />
<glyph unicode="l" horiz-adv-x="931" d="M174 0v1597h115v-1476q0 -12 8 -12h575v-109h-698z" />
<glyph unicode="m" horiz-adv-x="1863" d="M94 0v4q1 4 5 48t23 222.5t48 442.5l96 897h10q573 -1182 650 -1356h2q34 85 124.5 269.5t540.5 1086.5h11l86 -897q63 -673 69 -713v-4h-114v4q-2 13 -70 713q-38 365 -43 545h-4q-18 -42 -39 -88.5t-38 -82t-45 -92.5l-42 -85.5t-49.5 -98t-48.5 -96.5 q-162 -324 -342 -678h-13q-63 130 -126 258.5t-121 247.5t-84 172q-9 19 -55.5 114t-61 126.5t-46 99.5t-50.5 115t-35 92h-4q-12 -206 -49 -549q-17 -164 -31.5 -303.5t-21.5 -207t-12 -118t-6.5 -65.5t-2.5 -19v-4h-111z" />
<glyph unicode="n" horiz-adv-x="1521" d="M174 0v1622h10q257 -324 527 -666.5t319 -404.5q129 -165 207 -275h4v1321h107v-1617h-11q-378 474 -827 1044q-163 206 -227 299h-2v-1323h-107z" />
<glyph unicode="o" d="M82 786q0 174 63 328t172 265t263 175t329 64q165 0 311 -63t248.5 -171.5t162 -258.5t59.5 -318v-2q0 -167 -61 -319t-167 -264.5t-259.5 -179.5t-328.5 -67q-217 0 -400 110.5t-287.5 297t-104.5 403.5zM209 797q0 -142 52.5 -273.5t142.5 -228.5t216 -155t267 -58 q191 0 346.5 96t242.5 259.5t87 359.5v2q0 199 -88.5 362.5t-245.5 257.5t-348 94q-140 0 -264.5 -56t-214 -152t-141.5 -228.5t-52 -279.5z" />
<glyph unicode="p" horiz-adv-x="1040" d="M174 0v1591q31 3 110 7t109 4q160 0 266 -41q126 -47 204.5 -157.5t78.5 -268.5q0 -74 -20 -141.5t-52.5 -117.5t-74.5 -88q-87 -77 -201 -110q-42 -13 -98.5 -19t-95.5 -7t-111 -1v-651h-115zM289 758q7 0 35.5 -1t42.5 -1q84 0 150 13t118.5 41t93.5 73q90 99 90 254v2 q0 112 -55.5 195.5t-153.5 125.5q-77 35 -233 35q-38 0 -88 -4v-733z" />
<glyph unicode="q" d="M82 786q0 172 63 326t172 265t263 176t329 65q219 0 398.5 -107.5t281 -293t101.5 -410.5v-2q0 -174 -69.5 -333t-180.5 -267q-98 -94 -230 -152v-4q118 -74 340 -147q14 -6 42.5 -14.5t29.5 -8.5l2 -4l-86 -86h-4q-74 22 -217 88q-62 28 -230 125q-81 -27 -213 -27 q-166 0 -314 65t-252.5 175t-165 259t-60.5 312zM209 797q0 -141 51.5 -271.5t140 -228.5t215.5 -156.5t269 -58.5q146 0 273 57t215.5 153.5t139 228t50.5 276.5v2q0 199 -87.5 362.5t-244.5 257.5t-352 94q-140 0 -265 -57t-213.5 -154t-140 -228.5t-51.5 -276.5z" />
<glyph unicode="r" horiz-adv-x="1044" d="M174 0v1593q22 0 94 4.5t92 4.5q165 0 279 -46q27 -10 54.5 -26.5t63.5 -48.5t63 -71.5t46 -100t19 -129.5q0 -269 -238 -404q-65 -40 -147 -59v-2q19 -22 442 -551q118 -147 131 -160v-4h-151q-139 176 -551 702h-82v-702h-115zM289 809q10 -2 61 -2q108 0 193 37 q219 94 219 330v2q0 152 -106 235.5t-279 83.5q-64 0 -88 -4v-682z" />
<glyph unicode="s" horiz-adv-x="843" d="M66 8q2 35 3.5 66.5t2.5 46.5h4q93 -35 217 -35q133 0 233.5 83t100.5 218q0 85 -34 152.5t-116 138.5q-26 23 -94.5 80t-108.5 96q-97 97 -133.5 173.5t-36.5 182.5q0 78 31 149.5t87 126.5t140 87.5t183 32.5q95 0 162 -19q-1 -9 -3.5 -46.5t-3.5 -61.5h-4 q-53 20 -145 20q-142 0 -235 -77t-93 -203q0 -136 103 -242q40 -42 115 -105t104 -90q102 -95 151 -182t49 -211v-2q0 -71 -28.5 -141t-83.5 -130.5t-149 -98t-212 -37.5q-104 0 -206 28z" />
<glyph unicode="t" horiz-adv-x="1140" d="M12 1493v104h1116v-104h-501v-1493h-115v1493h-500z" />
<glyph unicode="u" horiz-adv-x="1474" d="M154 657v940h114v-929q0 -267 86 -402q55 -85 156 -133.5t209 -48.5q254 0 377 162q108 143 108 446v905h111v-917q0 -339 -150 -516q-76 -91 -193 -139t-259 -48q-141 0 -256.5 53t-188.5 158q-61 86 -87.5 192.5t-26.5 276.5z" />
<glyph unicode="v" horiz-adv-x="1292" d="M0 1593v4h123v-4q17 -50 264 -671q173 -435 258 -676h2q99 271 260 678q98 247 164 412t84 209.5t19 47.5v4h118v-4q-1 -3 -18.5 -46.5t-84 -210.5t-165.5 -414l-377 -940h-10l-373 940q-256 642 -264 671z" />
<glyph unicode="w" horiz-adv-x="1880" d="M35 1593v4h119v-4q276 -1124 317 -1306h2q13 43 28 89t25 76.5t35 100.5t35.5 99t49.5 137.5t56 154.5q23 65 60 160t96 243.5t92 233.5h11q117 -298 241 -641q180 -496 228 -645h2q22 105 98 429t140 596l65 271v6h110v-6q-1 -3 -11.5 -44.5t-48.5 -200t-93 -388.5 l-236 -999h-14q-285 769 -375 1017.5t-115 336.5h-2q-49 -160 -499 -1354h-15l-250 999q-37 147 -65.5 265t-43.5 183t-24.5 107t-13.5 60t-4 20z" />
<glyph unicode="x" horiz-adv-x="1122" d="M20 0v4q2 3 27 46t117 199t229 386l103 172l-119 203q-287 488 -346 583v4h133v-4q1 -3 352 -596q41 -67 47 -79h2q13 25 43 75q298 502 359 600v4h129v-4q-13 -20 -346 -569l-125 -207l92 -160q160 -277 303 -526q69 -119 74 -127v-4h-138v4q-3 5 -24.5 43.5t-102 183 t-192.5 344.5q-10 18 -36.5 64.5t-39.5 67.5h-4q-41 -70 -68 -119q-319 -549 -339 -584v-4h-130z" />
<glyph unicode="y" horiz-adv-x="1130" d="M-2 1593v4h131v-4q13 -47 242 -489q36 -72 106 -208t86 -167h6q33 71 187 377q225 451 231 487v4h125v-4q-15 -52 -381 -759l-113 -218v-616h-116v614l-121 230q-368 697 -383 749z" />
<glyph unicode="z" horiz-adv-x="1112" d="M37 0v4q240 432 393 713l113 205q45 82 154.5 276t164.5 295l2 6h-772v98h955v-4q-62 -112 -185 -336t-186 -335l-115 -205q-302 -537 -340 -606l-2 -7h809v-104h-991z" />
<glyph unicode="{" horiz-adv-x="614" d="M10 750v63q92 -2 136 36.5t61 143.5q10 56 1 245.5t-3 248.5q6 61 24 106t47 72t61 42.5t73 23.5q49 10 110 10v-64q-65 0 -104 -14q-93 -34 -105 -174q-4 -50 5 -238t-1 -241q-14 -96 -61.5 -156t-101.5 -68l-2 -6q53 -10 101 -70.5t64 -156.5q9 -76 5.5 -151.5 t-8.5 -178.5t-1 -149q5 -56 20.5 -93.5t43 -58.5t62 -29t83.5 -8v-63q-79 0 -110 8q-43 11 -74.5 26.5t-60.5 43t-46.5 71.5t-23.5 105q-5 54 6 248t-4 245q-20 105 -63 144t-134 37z" />
<glyph unicode="|" horiz-adv-x="546" d="M225 -512v2048h97v-2048h-97z" />
<glyph unicode="}" horiz-adv-x="614" d="M94 -115q66 0 105 15q92 34 104 174q4 52 -4.5 238t0.5 241q16 96 63.5 155.5t100.5 67.5v6q-51 10 -98.5 71t-65.5 157q-10 53 -1 241t5 238q-10 110 -59 149t-150 39v64q72 0 111 -8q90 -23 142 -76.5t63 -169.5q5 -55 -5 -248.5t3 -245.5q22 -105 62 -141.5t134 -38.5 v-63q-95 -2 -137 -39t-59 -142q-10 -56 -1 -245t3 -248q-11 -117 -64.5 -172t-140.5 -72q-65 -10 -111 -10v63z" />
<glyph unicode="~" horiz-adv-x="1089" d="M113 651q98 164 249 164q49 0 98.5 -17t112 -49.5t89.5 -43.5q46 -17 86 -17q53 0 92.5 31t74.5 96l64 -51q-44 -77 -97 -119.5t-134 -42.5h-3q-52 0 -99 14t-119.5 50t-88.5 43q-45 20 -86 20q-29 0 -53.5 -10t-48 -32.5t-37 -38.5t-37.5 -48z" />
<glyph unicode="&#xa1;" horiz-adv-x="524" d="M158 1524q0 41 26 67.5t72 26.5q43 0 70.5 -26.5t27.5 -69.5q0 -35 -26 -67t-68 -32h-2q-45 0 -72.5 27t-27.5 74zM205 0v1249h114v-1249h-114z" />
<glyph unicode="&#xa2;" horiz-adv-x="890" d="M88 803v2q0 191 122 319.5t322 145.5q4 36 9 96.5t9.5 114.5t4.5 57v6h104v-6q0 -13 -4.5 -62.5t-11 -113t-8.5 -92.5q53 0 153 -25q-3 -35 -14 -108h-6q-75 30 -178 30q-176 0 -277.5 -100.5t-101.5 -263.5q0 -115 52 -201t133.5 -127t178.5 -41q108 0 183 43h4 q17 -98 18 -104q-108 -43 -233 -43q-23 -241 -23 -281v-4h-106v4q0 12 6 65.5t14 124t11 103.5q-155 37 -258 159t-103 302z" />
<glyph unicode="&#xa3;" horiz-adv-x="1011" d="M59 0v70q171 27 197 432q9 142 12 246h-159v94h163q9 252 31 379q33 196 150.5 294.5t294.5 98.5h2q79 0 153 -19q-7 -77 -10 -106h-4q-80 20 -141 20q-139 0 -222.5 -74.5t-105.5 -205.5q-24 -146 -33 -387h393v-94h-397q-1 -20 -4.5 -87t-5.5 -102 q-12 -166 -39.5 -272.5t-79.5 -177.5q-4 -5 -2 -8t8 -3h715v-98h-916z" />
<glyph unicode="&#xa4;" horiz-adv-x="1202" d="M154 293l141 141q-105 123 -105 287q0 75 30 154.5t77 128.5l-143 143l63 59l137 -155q49 48 116 69t130 21q159 0 252 -88l137 155l60 -61l-142 -141q47 -49 76 -129t29 -156q0 -73 -31.5 -154t-79.5 -131l148 -143l-64 -62l-139 156q-104 -86 -248 -86q-152 0 -246 80 l-135 -150zM291 721q0 -152 89 -246t220 -94q129 0 221 95.5t92 244.5q0 142 -88 240t-227 98h-2q-127 0 -216 -94t-89 -244z" />
<glyph unicode="&#xa5;" horiz-adv-x="1044" d="M29 1591v6h125v-6q123 -247 268 -532q89 -174 104 -211h2q7 16 101 209q261 520 266 532v8h121v-8q-5 -8 -268 -532l-150 -297h295v-74h-307v-141h307v-74h-307v-471h-117v471h-309v74h309v141h-309v74h295l-156 301q-261 504 -270 530z" />
<glyph unicode="&#xa6;" horiz-adv-x="546" d="M225 358h97v-716h-97v716zM225 666v716h97v-716h-97z" />
<glyph unicode="&#xa7;" horiz-adv-x="1122" d="M100 727q0 72 43.5 142t132.5 118q-41 33 -66.5 84.5t-25.5 104.5v2q0 75 34 136.5t91.5 100t132 59.5t158.5 21q39 0 74 -3t65.5 -8.5t57 -12.5t52.5 -16.5t46.5 -18.5t44.5 -21q-6 -17 -12 -32.5t-13 -32.5t-12 -31q-107 53 -164 65q-87 17 -139 17 q-120 0 -206.5 -57.5t-86.5 -151.5q0 -91 76.5 -141t282.5 -113q191 -59 277.5 -138t86.5 -212q0 -164 -147 -269q46 -35 69 -90t23 -104q0 -92 -41 -161t-108.5 -106.5t-142 -55t-153.5 -17.5q-110 0 -193 24.5t-173 71.5q7 16 22.5 48t24.5 51l6 -5q52 -30 83.5 -42.5 t88.5 -28.5q68 -19 141 -19q145 0 232.5 65t87.5 159q0 98 -78 155t-272 117q-106 33 -175 63t-123 70.5t-78 92t-24 120.5zM211 741q0 -25 7 -48t17 -41t28 -35.5t33.5 -29.5t41 -25t42.5 -20.5t46 -17.5t44.5 -15t43.5 -13q8 -3 12 -4q187 -58 281 -113q49 32 78.5 85.5 t29.5 110.5q0 93 -62.5 150t-209.5 102q-189 60 -291 105q-141 -72 -141 -189v-2z" />
<glyph unicode="&#xa8;" horiz-adv-x="808" d="M182 1757v2q0 27 21.5 48.5t52.5 21.5q29 0 49.5 -22t20.5 -50q0 -30 -20.5 -53t-49.5 -23q-31 0 -52.5 23t-21.5 53zM471 1757v2q0 27 21.5 48.5t52.5 21.5q29 0 49 -22t20 -50q0 -30 -20 -53t-49 -23q-31 0 -52.5 23t-21.5 53z" />
<glyph unicode="&#xa9;" horiz-adv-x="1564" d="M82 817q0 113 36 219.5t101.5 193t152 152t191.5 101t215 35.5h2q195 0 356 -90.5t254.5 -251.5t92.5 -359q0 -183 -92 -343.5t-256 -258.5t-359 -98q-193 0 -353 94t-250.5 254.5t-90.5 351.5zM172 813q0 -126 48.5 -241.5t130.5 -198t193.5 -131.5t233.5 -49h2 q166 0 307 82.5t223.5 226t82.5 315.5q0 131 -51 248.5t-135.5 199.5t-196 129.5t-230.5 47.5q-120 1 -231.5 -47.5t-194.5 -131.5t-132.5 -201t-49.5 -249zM436 813q0 189 120 296.5t304 107.5h2q62 0 148 -19q0 -20 -4 -82h-5q-70 21 -131 21q-146 0 -239.5 -84 t-93.5 -232q0 -78 28.5 -142t75 -104t104 -61.5t117.5 -21.5q90 0 133 26h4q0 -3 7 -80q-64 -24 -150 -24q-185 0 -302.5 109.5t-117.5 289.5z" />
<glyph unicode="&#xaa;" horiz-adv-x="606" d="M53 1081q0 37 12.5 69.5t33.5 56.5t52.5 44.5t63 34.5t73 26.5t76 20t76.5 15.5q0 90 -47 135q-35 35 -110 35q-42 0 -89 -11.5t-77 -27.5h-6l-7 80q89 38 201 38h2q96 0 156 -51q40 -34 56 -84.5t16 -130.5v-213q0 -119 22 -198v-2h-94q-13 46 -17 79h-6 q-32 -43 -83 -67.5t-107 -24.5q-84 0 -140.5 45.5t-56.5 130.5zM150 1085q0 -30 14.5 -53t40.5 -35t61 -12q42 0 80 16.5t62.5 45t27.5 61.5q4 47 4 164h-4q-119 -17 -194 -55q-38 -20 -65 -54t-27 -76v-2z" />
<glyph unicode="&#xab;" horiz-adv-x="870" d="M82 793q159 185 315 366l52 -39q-35 -53 -104.5 -159.5t-104.5 -159.5q64 -98 211 -336l-54 -37q-132 156 -315 365zM389 793q43 50 150.5 174.5t165.5 191.5l51 -39q-35 -53 -104.5 -159.5t-104.5 -159.5q64 -98 211 -336l-53 -37q-104 123 -316 365z" />
<glyph unicode="&#xac;" horiz-adv-x="1089" d="M106 762v90h877v-410h-92v320h-785z" />
<glyph unicode="&#xad;" horiz-adv-x="569" d="M63 725v102h443v-102h-443z" />
<glyph unicode="&#xae;" horiz-adv-x="806" d="M61 1253q0 139 102.5 241.5t246.5 102.5q140 0 237.5 -101.5t97.5 -240.5v-2q0 -139 -102.5 -240.5t-247.5 -101.5q-142 0 -238 101.5t-96 240.5zM131 1253q0 -117 79 -199.5t193 -82.5q117 0 195 82t78 202v2q0 115 -81 198t-194 83q-114 0 -192 -83t-78 -202zM291 1075 v385q4 2 22 2q16 2 54 2q50 0 75 -10q28 -10 51 -34t23 -62v-2q0 -45 -21 -69.5t-59 -39.5v-4q1 -2 3.5 -4.5t8.5 -9.5t15.5 -19t28.5 -36.5t45 -57.5q8 -10 16 -22.5t12 -16.5v-2h-61q-8 0 -10 4q-84 107 -127 160h-15v-164h-61zM352 1288h15q41 0 63.5 13.5t22.5 50.5v2 q0 55 -82 55h-19v-121z" />
<glyph unicode="&#xaf;" horiz-adv-x="808" d="M213 1716v76h385v-76h-385z" />
<glyph unicode="&#xb0;" horiz-adv-x="751" d="M82 1071q0 123 79 206t201 83h3q120 0 199 -83t79 -206q0 -130 -81 -207.5t-202 -77.5q-117 0 -197.5 78t-80.5 207zM166 1071q0 -95 55.5 -158t143.5 -63q90 0 142 59.5t52 159.5q0 99 -52.5 161t-150.5 62h-2q-83 0 -135.5 -59.5t-52.5 -161.5z" />
<glyph unicode="&#xb1;" horiz-adv-x="1089" d="M106 78v90h877v-90h-877zM106 659v91h392v383h94v-383h391v-91h-391v-421h-94v421h-392z" />
<glyph unicode="&#xb2;" horiz-adv-x="696" d="M80 850v63q140 103 244 197q69 63 110 121q45 65 45 137q0 71 -45.5 109.5t-116.5 38.5q-83 0 -157 -33q-49 -22 -60 -33v86q43 29 108.5 45t123.5 16q118 0 184 -58t66 -155q0 -78 -35.5 -142.5t-110.5 -139.5q-103 -100 -200 -168h344v-84h-500z" />
<glyph unicode="&#xb3;" horiz-adv-x="665" d="M72 877q0 28 8 90h2q31 -24 87.5 -39t109.5 -15q28 0 55 6t52.5 20t41.5 40.5t16 62.5q0 45 -23.5 76.5t-63.5 46t-81.5 20t-89.5 3.5v82q43 0 77 4t74 16t62.5 41t22.5 72q0 55 -42 82.5t-104 27.5q-72 0 -157 -34h-4q0 57 -2 84q67 34 180 34q92 0 161.5 -47t69.5 -135 q0 -73 -43 -118.5t-102 -61.5v-2q65 -8 116.5 -60.5t51.5 -132.5q0 -67 -40.5 -116.5t-98.5 -72t-121 -22.5q-122 0 -215 48z" />
<glyph unicode="&#xb4;" horiz-adv-x="808" d="M268 1724l248 211l57 -94l-272 -164z" />
<glyph unicode="&#xb5;" horiz-adv-x="1122" d="M150 -268q24 131 34.5 246t10.5 270v706h106v-436q0 -171 33 -266q26 -73 82.5 -122.5t134.5 -49.5q85 0 142.5 48t84.5 122q56 145 56 442v262h106v-262q0 -308 16 -456q14 -142 60 -236h-111q-26 51 -35.5 104.5t-9.5 143.5h-2q-84 -266 -317 -266q-62 0 -115.5 24 t-87.5 62q-26 32 -47 73h-4v-61q0 -85 -12 -188t-25 -160h-100z" />
<glyph unicode="&#xb6;" horiz-adv-x="1097" d="M123 1030q0 73 18 138.5t61 126t106.5 104.5t161.5 70t220 26q148 0 223 -16v-1629h-90v1561h-153v-1561h-90v775h-21q-80 0 -155 24.5t-139 72t-103 127.5t-39 181z" />
<glyph unicode="&#xb7;" horiz-adv-x="380" d="M92 793q0 41 29 70.5t69 29.5h3q41 0 68.5 -29t27.5 -71q0 -40 -28.5 -69.5t-70.5 -29.5q-40 0 -69 29.5t-29 69.5z" />
<glyph unicode="&#xb8;" horiz-adv-x="808" d="M227 -385l17 61q31 -8 67 -8q59 0 94 24.5t35 67.5q0 81 -123 90v5l86 145h78l-59 -98v-4q55 -12 85 -46.5t30 -84.5q0 -55 -37.5 -94t-86 -54.5t-98.5 -15.5q-61 0 -88 12z" />
<glyph unicode="&#xb9;" horiz-adv-x="450" d="M0 1483q219 101 229 106h66v-739h-98v616q0 12 -1.5 16t-7.5 3q-104 -42 -159 -68z" />
<glyph unicode="&#xba;" horiz-adv-x="806" d="M61 1255q0 85 42 162.5t122 128.5t178 51h3q148 0 243.5 -102.5t95.5 -237.5q0 -62 -22.5 -123t-64 -112.5t-108.5 -83t-147 -31.5q-102 0 -182 52.5t-120 131t-40 164.5zM160 1255q0 -103 68 -182.5t175 -79.5h3q108 0 174.5 80t66.5 184q0 103 -66 178.5t-178 75.5 q-109 0 -176 -77.5t-67 -178.5z" />
<glyph unicode="&#xbb;" horiz-adv-x="870" d="M113 469q48 72 206 319q-97 160 -206 334l51 39q194 -235 303 -368q-57 -69 -163 -197t-140 -168zM410 469q48 72 206 319q-97 160 -206 334l51 39q194 -235 303 -368q-57 -69 -163 -197t-140 -168z" />
<glyph unicode="&#xbc;" horiz-adv-x="1423" d="M76 1483q219 101 229 106h66v-739h-99v616q0 12 -1 16t-7 3q-110 -44 -160 -68zM133 -43l901 1679h94l-901 -1679h-94zM614 186v35q26 30 192.5 224t258.5 298h74v-479h127v-78h-127v-186h-99v186h-426zM748 264h292q-2 260 2 346h-6q-274 -328 -288 -344v-2z" />
<glyph unicode="&#xbd;" horiz-adv-x="1423" d="M76 1483q219 101 229 106h66v-739h-99v616q0 12 -1 16t-7 3q-110 -44 -160 -68zM133 -43l901 1679h94l-901 -1679h-94zM784 0v63q140 103 244 197q72 66 111 121q45 65 45 137q0 71 -45.5 109.5t-116.5 38.5q-130 0 -215 -64l-2 -2v86q44 29 108.5 45.5t122.5 16.5 q118 0 184 -58t66 -155q0 -78 -35 -143t-110 -140q-101 -98 -201 -168h344v-84h-500z" />
<glyph unicode="&#xbe;" horiz-adv-x="1423" d="M104 877q0 20 9 90h4q31 -24 86.5 -39t107.5 -15q39 0 74 10t63.5 41t28.5 78q0 45 -23.5 76.5t-63.5 46t-81.5 20t-89.5 3.5v82q43 0 77 4t74 16t62.5 41t22.5 72q0 55 -42 82.5t-104 27.5q-72 0 -157 -34h-5q0 57 -2 84q67 34 181 34q92 0 161.5 -47t69.5 -135 q0 -73 -43 -118.5t-102 -61.5v-2q65 -8 116.5 -60.5t51.5 -132.5q0 -67 -41 -116.5t-99 -72t-121 -22.5q-122 0 -215 48zM240 -43l901 1679h94l-901 -1679h-94zM721 186v35q26 30 192 224t258 298h74v-479h127v-78h-127v-186h-98v186h-426zM854 264h293q-2 260 2 346h-6 q-240 -287 -289 -344v-2z" />
<glyph unicode="&#xbf;" horiz-adv-x="917" d="M98 371q0 121 51 217t156 213q116 128 150.5 213t40.5 225h110q-5 -147 -42 -253t-154 -234q-97 -107 -143 -192t-46 -181q0 -132 89.5 -213.5t234.5 -81.5q62 0 107 13t98 40q63 33 100 64h6l4 -56t3 -42.5t1 -18.5q-60 -44 -151 -75.5t-176 -31.5h-2q-149 0 -254 66 q-88 55 -135.5 143.5t-47.5 184.5zM453 1511q0 41 28 70t70 29q40 0 69 -29.5t29 -69.5q0 -41 -29 -70.5t-69 -29.5h-2q-41 0 -68.5 29t-27.5 71z" />
<glyph unicode="&#xc0;" horiz-adv-x="1316" d="M0 0v4l8 18q7 18 26.5 64.5t50 119t86 208.5t124.5 307l367 903h12l354 -907q276 -703 279 -713v-4h-123v4q-9 26 -211 533h-635q-214 -524 -217 -533v-4h-121zM381 639h551l-2 8q-233 609 -264 707h-4q-7 -22 -16 -46t-19.5 -51.5t-33.5 -84.5t-46 -114.5t-70 -175.5 t-94 -235zM412 1851l57 95l248 -211l-33 -47z" />
<glyph unicode="&#xc1;" horiz-adv-x="1316" d="M0 0v4l8 18q7 18 26.5 64.5t50 119t86 208.5t124.5 307l367 903h12l354 -907q276 -703 279 -713v-4h-123v4q-9 26 -211 533h-635q-214 -524 -217 -533v-4h-121zM381 639h551l-2 8q-233 609 -264 707h-4q-7 -22 -16 -46t-19.5 -51.5t-33.5 -84.5t-46 -114.5t-70 -175.5 t-94 -235zM614 1735l248 211l58 -95l-273 -163z" />
<glyph unicode="&#xc2;" horiz-adv-x="1316" d="M0 0v4l8 18q7 18 26.5 64.5t50 119t86 208.5t124.5 307l367 903h12l354 -907q276 -703 279 -713v-4h-123v4q-9 26 -211 533h-635q-214 -524 -217 -533v-4h-121zM381 639h551l-2 8q-233 609 -264 707h-4q-7 -22 -16 -46t-19.5 -51.5t-33.5 -84.5t-46 -114.5t-70 -175.5 t-94 -235zM459 1694l215 190l207 -190l-39 -47l-170 116l-178 -116z" />
<glyph unicode="&#xc3;" horiz-adv-x="1316" d="M0 0v4l8 18q7 18 26.5 64.5t50 119t86 208.5t124.5 307l367 903h12l354 -907q276 -703 279 -713v-4h-123v4q-9 26 -211 533h-635q-214 -524 -217 -533v-4h-121zM381 639h551l-2 8q-233 609 -264 707h-4q-7 -22 -16 -46t-19.5 -51.5t-33.5 -84.5t-46 -114.5t-70 -175.5 t-94 -235zM453 1710q31 143 137 143q47 0 106 -43q44 -30 78 -30q55 0 74 63l53 -8q-7 -54 -43.5 -97.5t-89.5 -43.5q-48 0 -96 32q-56 39 -92 39q-51 0 -72 -61z" />
<glyph unicode="&#xc4;" horiz-adv-x="1316" d="M0 0v4l8 18q7 18 26.5 64.5t50 119t86 208.5t124.5 307l367 903h12l354 -907q276 -703 279 -713v-4h-123v4q-9 26 -211 533h-635q-214 -524 -217 -533v-4h-121zM381 639h551l-2 8q-233 609 -264 707h-4q-7 -22 -16 -46t-19.5 -51.5t-33.5 -84.5t-46 -114.5t-70 -175.5 t-94 -235zM457 1757v2q0 27 21 48.5t52 21.5q29 0 49.5 -22t20.5 -50q0 -30 -20.5 -53t-49.5 -23q-31 0 -52 23t-21 53zM745 1757v2q0 27 21.5 48.5t52.5 21.5q29 0 49.5 -22t20.5 -50q0 -30 -20.5 -53t-49.5 -23q-31 0 -52.5 23t-21.5 53z" />
<glyph unicode="&#xc5;" horiz-adv-x="1316" d="M0 0v4l8 18q7 18 26.5 64.5t50 119t86 208.5t124.5 307l367 903h12l354 -907q276 -703 279 -713v-4h-123v4q-9 26 -211 533h-635q-214 -524 -217 -533v-4h-121zM381 639h551l-2 8q-233 609 -264 707h-4q-7 -22 -16 -46t-19.5 -51.5t-33.5 -84.5t-46 -114.5t-70 -175.5 t-94 -235zM537 1792v2q0 52 40 87.5t97 35.5q51 0 90 -35.5t39 -87.5q0 -48 -39 -82.5t-94 -34.5q-58 0 -95.5 33.5t-37.5 81.5zM608 1794q2 -27 18.5 -45t43.5 -18q30 0 45.5 18t15.5 47v2q0 27 -16 46.5t-43 19.5q-30 0 -47 -20.5t-17 -49.5z" />
<glyph unicode="&#xc6;" horiz-adv-x="1568" d="M-14 0v4q81 170 387.5 798.5t382.5 786.5v8h698v-106h-518v-621h483v-104h-483v-639q0 -12 3.5 -15t18.5 -3h521v-109h-658v559h-442q-234 -481 -266 -555v-4h-127zM428 659h397v844q-77 -164 -233.5 -492.5t-163.5 -344.5v-7z" />
<glyph unicode="&#xc7;" horiz-adv-x="1353" d="M84 807q0 155 43.5 287t121.5 228.5t184 164.5t233 101.5t268 33.5q101 0 164.5 -8.5t152.5 -28.5q-1 -15 -1.5 -41.5t-1 -46t-1.5 -24.5h-6q-53 16 -115 26q-72 14 -176 14q-341 0 -539 -190t-198 -522q0 -208 95 -372.5t257 -253.5t361 -89q169 0 305 49h2q1 -19 2 -56 t2 -54q-156 -48 -330 -48q-40 0 -69 5l-47 -80v-4q55 -12 84.5 -46.5t29.5 -84.5q0 -55 -37 -94t-85.5 -54.5t-98.5 -15.5q-61 0 -88 12l16 61q31 -8 68 -8q59 0 94 24.5t35 67.5q0 81 -123 90v5l78 135q-140 21 -262 85t-216 165t-148 247.5t-54 319.5z" />
<glyph unicode="&#xc8;" horiz-adv-x="958" d="M174 0v1597h674v-106h-559v-621h524v-104h-524v-655q0 -2 2 -2h581v-109h-698zM291 1841l57 94l248 -211l-33 -47z" />
<glyph unicode="&#xc9;" horiz-adv-x="958" d="M174 0v1597h674v-106h-559v-621h524v-104h-524v-655q0 -2 2 -2h581v-109h-698zM406 1724l247 211l58 -94l-273 -164z" />
<glyph unicode="&#xca;" horiz-adv-x="958" d="M174 0v1597h674v-106h-559v-621h524v-104h-524v-655q0 -2 2 -2h581v-109h-698zM317 1714l215 191l207 -191l-39 -47l-170 117l-178 -117z" />
<glyph unicode="&#xcb;" horiz-adv-x="958" d="M174 0v1597h674v-106h-559v-621h524v-104h-524v-655q0 -2 2 -2h581v-109h-698zM285 1757v2q0 27 21 48.5t52 21.5q29 0 49.5 -22t20.5 -50q0 -30 -20.5 -53t-49.5 -23q-31 0 -52 23t-21 53zM573 1757v2q0 27 21.5 48.5t52.5 21.5q29 0 49.5 -22t20.5 -50q0 -30 -20.5 -53 t-49.5 -23q-31 0 -52.5 23t-21.5 53z" />
<glyph unicode="&#xcc;" horiz-adv-x="462" d="M4 1841l57 94l248 -211l-33 -47zM174 0v1597h115v-1597h-115z" />
<glyph unicode="&#xcd;" horiz-adv-x="462" d="M156 1724l247 211l58 -94l-273 -164zM174 0v1597h115v-1597h-115z" />
<glyph unicode="&#xce;" horiz-adv-x="462" d="M16 1714l215 191l207 -191l-39 -47l-170 117l-178 -117zM174 0v1597h115v-1597h-115z" />
<glyph unicode="&#xcf;" horiz-adv-x="462" d="M10 1757v2q0 27 21.5 48.5t52.5 21.5q29 0 49.5 -22t20.5 -50q0 -30 -20.5 -53t-49.5 -23q-31 0 -52.5 23t-21.5 53zM174 0v1597h115v-1597h-115zM299 1757v2q0 27 21.5 48.5t52.5 21.5q29 0 49 -22t20 -50q0 -30 -20 -53t-49 -23q-31 0 -52.5 23t-21.5 53z" />
<glyph unicode="&#xd0;" horiz-adv-x="1419" d="M27 772v92h176v729q21 1 65 3.5t76 4.5t72 3.5t69 1.5q309 0 519 -133q149 -95 241 -267t92 -377v-2q0 -113 -21 -213t-58.5 -177.5t-81.5 -136.5t-99 -107q-67 -59 -140.5 -100t-151 -61.5t-148.5 -29t-154 -8.5q-75 0 -280 10v768h-176zM317 117q0 -9 9 -11 q34 -6 159 -6q149 0 287.5 45t233.5 140q104 104 157.5 233.5t53.5 306.5v2q0 98 -25 187t-67.5 157.5t-90 119t-102.5 89.5q-86 62 -211 90.5t-238 28.5q-105 0 -166 -6v-629h416v-92h-416v-655z" />
<glyph unicode="&#xd1;" horiz-adv-x="1521" d="M174 0v1622h10q257 -324 527 -666.5t319 -404.5q129 -165 207 -275h4v1321h107v-1617h-11q-378 474 -827 1044q-163 206 -227 299h-2v-1323h-107zM586 1679q32 144 137 144q47 0 106 -43q45 -31 78 -31q55 0 74 63l53 -8q-7 -54 -43.5 -97.5t-89.5 -43.5q-40 0 -98 36 t-90 36q-51 0 -72 -62z" />
<glyph unicode="&#xd2;" d="M82 786q0 174 63 328t172 265t263 175t329 64q165 0 311 -63t248.5 -171.5t162 -258.5t59.5 -318v-2q0 -167 -61 -319t-167 -264.5t-259.5 -179.5t-328.5 -67q-217 0 -400 110.5t-287.5 297t-104.5 403.5zM209 797q0 -142 52.5 -273.5t142.5 -228.5t216 -155t267 -58 q191 0 346.5 96t242.5 259.5t87 359.5v2q0 199 -88.5 362.5t-245.5 257.5t-348 94q-140 0 -264.5 -56t-214 -152t-141.5 -228.5t-52 -279.5zM659 1851l58 95l248 -211l-33 -47z" />
<glyph unicode="&#xd3;" d="M82 786q0 174 63 328t172 265t263 175t329 64q165 0 311 -63t248.5 -171.5t162 -258.5t59.5 -318v-2q0 -167 -61 -319t-167 -264.5t-259.5 -179.5t-328.5 -67q-217 0 -400 110.5t-287.5 297t-104.5 403.5zM209 797q0 -142 52.5 -273.5t142.5 -228.5t216 -155t267 -58 q191 0 346.5 96t242.5 259.5t87 359.5v2q0 199 -88.5 362.5t-245.5 257.5t-348 94q-140 0 -264.5 -56t-214 -152t-141.5 -228.5t-52 -279.5zM811 1735l248 211l57 -95l-272 -163z" />
<glyph unicode="&#xd4;" d="M82 786q0 174 63 328t172 265t263 175t329 64q165 0 311 -63t248.5 -171.5t162 -258.5t59.5 -318v-2q0 -167 -61 -319t-167 -264.5t-259.5 -179.5t-328.5 -67q-217 0 -400 110.5t-287.5 297t-104.5 403.5zM209 797q0 -142 52.5 -273.5t142.5 -228.5t216 -155t267 -58 q191 0 346.5 96t242.5 259.5t87 359.5v2q0 199 -88.5 362.5t-245.5 257.5t-348 94q-140 0 -264.5 -56t-214 -152t-141.5 -228.5t-52 -279.5zM680 1724l215 191l207 -191l-39 -47l-170 117l-178 -117z" />
<glyph unicode="&#xd5;" d="M82 786q0 174 63 328t172 265t263 175t329 64q165 0 311 -63t248.5 -171.5t162 -258.5t59.5 -318v-2q0 -167 -61 -319t-167 -264.5t-259.5 -179.5t-328.5 -67q-217 0 -400 110.5t-287.5 297t-104.5 403.5zM209 797q0 -142 52.5 -273.5t142.5 -228.5t216 -155t267 -58 q191 0 346.5 96t242.5 259.5t87 359.5v2q0 199 -88.5 362.5t-245.5 257.5t-348 94q-140 0 -264.5 -56t-214 -152t-141.5 -228.5t-52 -279.5zM674 1710q31 143 137 143q48 0 107 -43q44 -30 77 -30q55 0 74 63l53 -8q-7 -54 -43.5 -97.5t-89.5 -43.5q-48 0 -96 32 q-56 39 -92 39q-51 0 -72 -61z" />
<glyph unicode="&#xd6;" d="M82 786q0 174 63 328t172 265t263 175t329 64q165 0 311 -63t248.5 -171.5t162 -258.5t59.5 -318v-2q0 -167 -61 -319t-167 -264.5t-259.5 -179.5t-328.5 -67q-217 0 -400 110.5t-287.5 297t-104.5 403.5zM209 797q0 -142 52.5 -273.5t142.5 -228.5t216 -155t267 -58 q191 0 346.5 96t242.5 259.5t87 359.5v2q0 199 -88.5 362.5t-245.5 257.5t-348 94q-140 0 -264.5 -56t-214 -152t-141.5 -228.5t-52 -279.5zM674 1757v2q0 27 21.5 48.5t52.5 21.5q29 0 49 -22t20 -50q0 -30 -20 -53t-49 -23q-31 0 -52.5 23t-21.5 53zM963 1757v2 q0 27 21 48.5t52 21.5q29 0 49.5 -22t20.5 -50q0 -30 -20.5 -53t-49.5 -23q-31 0 -52 23t-21 53z" />
<glyph unicode="&#xd7;" horiz-adv-x="1089" d="M156 379l323 323l-323 324l67 68l324 -324l323 322l64 -64l-324 -321l326 -326l-68 -68l-325 326l-322 -324z" />
<glyph unicode="&#xd8;" d="M70 -2q18 20 100.5 110.5t118.5 127.5q-98 107 -152.5 252.5t-54.5 302.5q0 174 63.5 327.5t173 263t261.5 173t323 63.5h2q143 0 272 -47t228 -131q19 20 76 79t78 80h133q-15 -16 -68.5 -71.5t-85.5 -90t-59 -67.5q102 -109 157.5 -263.5t55.5 -297.5 q0 -170 -60.5 -323t-167 -265.5t-261 -179t-333.5 -66.5q-144 0 -280 53t-234 140q-11 -13 -44 -49t-62.5 -68.5t-46.5 -52.5h-133zM209 795q0 -274 164 -478q388 426 960 1039q-174 157 -467 157h-2q-130 0 -250.5 -55t-209.5 -149.5t-142 -229t-53 -284.5zM436 252 q91 -82 210 -127t235 -45h2q106 0 206 31.5t186 93.5t151 148.5t102 204t37 251.5q0 276 -166 479q-414 -444 -963 -1036z" />
<glyph unicode="&#xd9;" horiz-adv-x="1474" d="M154 657v940h114v-929q0 -267 86 -402q55 -85 156 -133.5t209 -48.5q254 0 377 162q108 143 108 446v905h111v-917q0 -339 -150 -516q-76 -91 -193 -139t-259 -48q-141 0 -256.5 53t-188.5 158q-61 86 -87.5 192.5t-26.5 276.5zM504 1821l57 94l248 -211l-33 -47z" />
<glyph unicode="&#xda;" horiz-adv-x="1474" d="M154 657v940h114v-929q0 -267 86 -402q55 -85 156 -133.5t209 -48.5q254 0 377 162q108 143 108 446v905h111v-917q0 -339 -150 -516q-76 -91 -193 -139t-259 -48q-141 0 -256.5 53t-188.5 158q-61 86 -87.5 192.5t-26.5 276.5zM684 1704l248 211l57 -94l-272 -164z" />
<glyph unicode="&#xdb;" horiz-adv-x="1474" d="M154 657v940h114v-929q0 -267 86 -402q55 -85 156 -133.5t209 -48.5q254 0 377 162q108 143 108 446v905h111v-917q0 -339 -150 -516q-76 -91 -193 -139t-259 -48q-141 0 -256.5 53t-188.5 158q-61 86 -87.5 192.5t-26.5 276.5zM539 1714l215 191l207 -191l-39 -47 l-170 117l-179 -117z" />
<glyph unicode="&#xdc;" horiz-adv-x="1474" d="M154 657v940h114v-929q0 -267 86 -402q55 -85 156 -133.5t209 -48.5q254 0 377 162q108 143 108 446v905h111v-917q0 -339 -150 -516q-76 -91 -193 -139t-259 -48q-141 0 -256.5 53t-188.5 158q-61 86 -87.5 192.5t-26.5 276.5zM526 1757v2q0 27 21.5 48.5t52.5 21.5 q29 0 49.5 -22t20.5 -50q0 -30 -20.5 -53t-49.5 -23q-31 0 -52.5 23t-21.5 53zM815 1757v2q0 27 21.5 48.5t52.5 21.5q29 0 49 -22t20 -50q0 -30 -20 -53t-49 -23q-31 0 -52.5 23t-21.5 53z" />
<glyph unicode="&#xdd;" horiz-adv-x="1130" d="M-2 1593v4h131v-4q13 -47 242 -489q36 -72 106 -208t86 -167h6q33 71 187 377q225 451 231 487v4h125v-4q-15 -52 -381 -759l-113 -218v-616h-116v614l-121 230q-368 697 -383 749zM532 1694l248 211l58 -95l-273 -163z" />
<glyph unicode="&#xde;" horiz-adv-x="968" d="M174 0v1597h115v-331q66 3 135 0q69 -4 149.5 -25t135.5 -59q32 -22 60 -51.5t56 -71.5t44 -99t16 -122v-2q0 -81 -28.5 -159.5t-74.5 -131.5q-42 -48 -106 -88.5t-129 -57.5q-105 -28 -258 -28v-371h-115zM289 471h61q104 0 191 34t141 93q82 92 82 238v2 q0 89 -40 158.5t-106 109.5q-93 57 -245 57q-38 0 -84 -4v-688z" />
<glyph unicode="&#xdf;" horiz-adv-x="1773" d="M66 8q2 35 3.5 66.5t2.5 46.5h4q93 -35 217 -35q133 0 233.5 83t100.5 218q0 85 -34 152.5t-116 138.5q-26 23 -94.5 80t-108.5 96q-97 97 -133.5 173.5t-36.5 182.5q0 78 31 149.5t87 126.5t140 87.5t183 32.5q95 0 162 -19q-1 -9 -3.5 -46.5t-3.5 -61.5h-4 q-53 20 -145 20q-142 0 -235 -77t-93 -203q0 -136 103 -242q40 -42 115 -105t104 -90q102 -95 151 -182t49 -211v-2q0 -71 -28.5 -141t-83.5 -130.5t-149 -98t-212 -37.5q-104 0 -206 28zM909 8q2 35 3.5 66.5t2.5 46.5h5q93 -35 217 -35q133 0 233 83t100 218 q0 85 -33.5 152.5t-115.5 138.5q-26 23 -94.5 80t-108.5 96q-97 97 -133.5 173.5t-36.5 182.5q0 78 31 149.5t87 126.5t140 87.5t183 32.5q95 0 161 -19q-4 -62 -6 -108h-4q-53 20 -145 20q-142 0 -235 -77t-93 -203q0 -137 102 -242q39 -42 114.5 -104.5t105.5 -90.5 q102 -95 151 -182t49 -211v-2q0 -71 -28.5 -141t-83.5 -130.5t-149 -98t-212 -37.5q-105 0 -207 28z" />
<glyph unicode="&#xe0;" horiz-adv-x="1316" d="M0 0v4l8 18q7 18 26.5 64.5t50 119t86 208.5t124.5 307l367 903h12l354 -907q276 -703 279 -713v-4h-123v4q-9 26 -211 533h-635q-214 -524 -217 -533v-4h-121zM381 639h551l-2 8q-233 609 -264 707h-4q-7 -22 -16 -46t-19.5 -51.5t-33.5 -84.5t-46 -114.5t-70 -175.5 t-94 -235zM412 1851l57 95l248 -211l-33 -47z" />
<glyph unicode="&#xe1;" horiz-adv-x="1316" d="M0 0v4l8 18q7 18 26.5 64.5t50 119t86 208.5t124.5 307l367 903h12l354 -907q276 -703 279 -713v-4h-123v4q-9 26 -211 533h-635q-214 -524 -217 -533v-4h-121zM381 639h551l-2 8q-233 609 -264 707h-4q-7 -22 -16 -46t-19.5 -51.5t-33.5 -84.5t-46 -114.5t-70 -175.5 t-94 -235zM614 1735l248 211l58 -95l-273 -163z" />
<glyph unicode="&#xe2;" horiz-adv-x="1316" d="M0 0v4l8 18q7 18 26.5 64.5t50 119t86 208.5t124.5 307l367 903h12l354 -907q276 -703 279 -713v-4h-123v4q-9 26 -211 533h-635q-214 -524 -217 -533v-4h-121zM381 639h551l-2 8q-233 609 -264 707h-4q-7 -22 -16 -46t-19.5 -51.5t-33.5 -84.5t-46 -114.5t-70 -175.5 t-94 -235zM459 1694l215 190l207 -190l-39 -47l-170 116l-178 -116z" />
<glyph unicode="&#xe3;" horiz-adv-x="1316" d="M0 0v4l8 18q7 18 26.5 64.5t50 119t86 208.5t124.5 307l367 903h12l354 -907q276 -703 279 -713v-4h-123v4q-9 26 -211 533h-635q-214 -524 -217 -533v-4h-121zM381 639h551l-2 8q-233 609 -264 707h-4q-7 -22 -16 -46t-19.5 -51.5t-33.5 -84.5t-46 -114.5t-70 -175.5 t-94 -235zM453 1710q31 143 137 143q47 0 106 -43q44 -30 78 -30q55 0 74 63l53 -8q-7 -54 -43.5 -97.5t-89.5 -43.5q-48 0 -96 32q-56 39 -92 39q-51 0 -72 -61z" />
<glyph unicode="&#xe4;" horiz-adv-x="1316" d="M0 0v4l8 18q7 18 26.5 64.5t50 119t86 208.5t124.5 307l367 903h12l354 -907q276 -703 279 -713v-4h-123v4q-9 26 -211 533h-635q-214 -524 -217 -533v-4h-121zM381 639h551l-2 8q-233 609 -264 707h-4q-7 -22 -16 -46t-19.5 -51.5t-33.5 -84.5t-46 -114.5t-70 -175.5 t-94 -235zM457 1757v2q0 27 21 48.5t52 21.5q29 0 49.5 -22t20.5 -50q0 -30 -20.5 -53t-49.5 -23q-31 0 -52 23t-21 53zM745 1757v2q0 27 21.5 48.5t52.5 21.5q29 0 49.5 -22t20.5 -50q0 -30 -20.5 -53t-49.5 -23q-31 0 -52.5 23t-21.5 53z" />
<glyph unicode="&#xe5;" horiz-adv-x="1316" d="M0 0v4l8 18q7 18 26.5 64.5t50 119t86 208.5t124.5 307l367 903h12l354 -907q276 -703 279 -713v-4h-123v4q-9 26 -211 533h-635q-214 -524 -217 -533v-4h-121zM381 639h551l-2 8q-233 609 -264 707h-4q-7 -22 -16 -46t-19.5 -51.5t-33.5 -84.5t-46 -114.5t-70 -175.5 t-94 -235zM537 1792v2q0 52 40 87.5t97 35.5q51 0 90 -35.5t39 -87.5q0 -48 -39 -82.5t-94 -34.5q-58 0 -95.5 33.5t-37.5 81.5zM608 1794q2 -27 18.5 -45t43.5 -18q30 0 45.5 18t15.5 47v2q0 27 -16 46.5t-43 19.5q-30 0 -47 -20.5t-17 -49.5z" />
<glyph unicode="&#xe6;" horiz-adv-x="1568" d="M-14 0v4q81 170 387.5 798.5t382.5 786.5v8h698v-106h-518v-621h483v-104h-483v-639q0 -12 3.5 -15t18.5 -3h521v-109h-658v559h-442q-234 -481 -266 -555v-4h-127zM428 659h397v844q-77 -164 -233.5 -492.5t-163.5 -344.5v-7z" />
<glyph unicode="&#xe7;" horiz-adv-x="1353" d="M84 807q0 155 43.5 287t121.5 228.5t184 164.5t233 101.5t268 33.5q101 0 164.5 -8.5t152.5 -28.5q-1 -15 -1.5 -41.5t-1 -46t-1.5 -24.5h-6q-53 16 -115 26q-72 14 -176 14q-341 0 -539 -190t-198 -522q0 -208 95 -372.5t257 -253.5t361 -89q169 0 305 49h2q1 -19 2 -56 t2 -54q-156 -48 -330 -48q-40 0 -69 5l-47 -80v-4q55 -12 84.5 -46.5t29.5 -84.5q0 -55 -37 -94t-85.5 -54.5t-98.5 -15.5q-61 0 -88 12l16 61q31 -8 68 -8q59 0 94 24.5t35 67.5q0 81 -123 90v5l78 135q-140 21 -262 85t-216 165t-148 247.5t-54 319.5z" />
<glyph unicode="&#xe8;" horiz-adv-x="958" d="M174 0v1597h674v-106h-559v-621h524v-104h-524v-655q0 -2 2 -2h581v-109h-698zM291 1841l57 94l248 -211l-33 -47z" />
<glyph unicode="&#xe9;" horiz-adv-x="958" d="M174 0v1597h674v-106h-559v-621h524v-104h-524v-655q0 -2 2 -2h581v-109h-698zM406 1724l247 211l58 -94l-273 -164z" />
<glyph unicode="&#xea;" horiz-adv-x="958" d="M174 0v1597h674v-106h-559v-621h524v-104h-524v-655q0 -2 2 -2h581v-109h-698zM317 1714l215 191l207 -191l-39 -47l-170 117l-178 -117z" />
<glyph unicode="&#xeb;" horiz-adv-x="958" d="M174 0v1597h674v-106h-559v-621h524v-104h-524v-655q0 -2 2 -2h581v-109h-698zM285 1757v2q0 27 21 48.5t52 21.5q29 0 49.5 -22t20.5 -50q0 -30 -20.5 -53t-49.5 -23q-31 0 -52 23t-21 53zM573 1757v2q0 27 21.5 48.5t52.5 21.5q29 0 49.5 -22t20.5 -50q0 -30 -20.5 -53 t-49.5 -23q-31 0 -52.5 23t-21.5 53z" />
<glyph unicode="&#xec;" horiz-adv-x="462" d="M4 1841l57 94l248 -211l-33 -47zM174 0v1597h115v-1597h-115z" />
<glyph unicode="&#xed;" horiz-adv-x="462" d="M156 1724l247 211l58 -94l-273 -164zM174 0v1597h115v-1597h-115z" />
<glyph unicode="&#xee;" horiz-adv-x="462" d="M16 1714l215 191l207 -191l-39 -47l-170 117l-178 -117zM174 0v1597h115v-1597h-115z" />
<glyph unicode="&#xef;" horiz-adv-x="462" d="M10 1757v2q0 27 21.5 48.5t52.5 21.5q29 0 49.5 -22t20.5 -50q0 -30 -20.5 -53t-49.5 -23q-31 0 -52.5 23t-21.5 53zM174 0v1597h115v-1597h-115zM299 1757v2q0 27 21.5 48.5t52.5 21.5q29 0 49 -22t20 -50q0 -30 -20 -53t-49 -23q-31 0 -52.5 23t-21.5 53z" />
<glyph unicode="&#xf0;" horiz-adv-x="1419" d="M27 772v92h176v729q21 1 65 3.5t76 4.5t72 3.5t69 1.5q309 0 519 -133q149 -95 241 -267t92 -377v-2q0 -113 -21 -213t-58.5 -177.5t-81.5 -136.5t-99 -107q-67 -59 -140.5 -100t-151 -61.5t-148.5 -29t-154 -8.5q-75 0 -280 10v768h-176zM317 117q0 -9 9 -11 q34 -6 159 -6q149 0 287.5 45t233.5 140q104 104 157.5 233.5t53.5 306.5v2q0 98 -25 187t-67.5 157.5t-90 119t-102.5 89.5q-86 62 -211 90.5t-238 28.5q-105 0 -166 -6v-629h416v-92h-416v-655z" />
<glyph unicode="&#xf1;" horiz-adv-x="1521" d="M174 0v1622h10q257 -324 527 -666.5t319 -404.5q129 -165 207 -275h4v1321h107v-1617h-11q-378 474 -827 1044q-163 206 -227 299h-2v-1323h-107zM586 1679q32 144 137 144q47 0 106 -43q45 -31 78 -31q55 0 74 63l53 -8q-7 -54 -43.5 -97.5t-89.5 -43.5q-40 0 -98 36 t-90 36q-51 0 -72 -62z" />
<glyph unicode="&#xf2;" d="M82 786q0 174 63 328t172 265t263 175t329 64q165 0 311 -63t248.5 -171.5t162 -258.5t59.5 -318v-2q0 -167 -61 -319t-167 -264.5t-259.5 -179.5t-328.5 -67q-217 0 -400 110.5t-287.5 297t-104.5 403.5zM209 797q0 -142 52.5 -273.5t142.5 -228.5t216 -155t267 -58 q191 0 346.5 96t242.5 259.5t87 359.5v2q0 199 -88.5 362.5t-245.5 257.5t-348 94q-140 0 -264.5 -56t-214 -152t-141.5 -228.5t-52 -279.5zM659 1851l58 95l248 -211l-33 -47z" />
<glyph unicode="&#xf3;" d="M82 786q0 174 63 328t172 265t263 175t329 64q165 0 311 -63t248.5 -171.5t162 -258.5t59.5 -318v-2q0 -167 -61 -319t-167 -264.5t-259.5 -179.5t-328.5 -67q-217 0 -400 110.5t-287.5 297t-104.5 403.5zM209 797q0 -142 52.5 -273.5t142.5 -228.5t216 -155t267 -58 q191 0 346.5 96t242.5 259.5t87 359.5v2q0 199 -88.5 362.5t-245.5 257.5t-348 94q-140 0 -264.5 -56t-214 -152t-141.5 -228.5t-52 -279.5zM811 1735l248 211l57 -95l-272 -163z" />
<glyph unicode="&#xf4;" d="M82 786q0 174 63 328t172 265t263 175t329 64q165 0 311 -63t248.5 -171.5t162 -258.5t59.5 -318v-2q0 -167 -61 -319t-167 -264.5t-259.5 -179.5t-328.5 -67q-217 0 -400 110.5t-287.5 297t-104.5 403.5zM209 797q0 -142 52.5 -273.5t142.5 -228.5t216 -155t267 -58 q191 0 346.5 96t242.5 259.5t87 359.5v2q0 199 -88.5 362.5t-245.5 257.5t-348 94q-140 0 -264.5 -56t-214 -152t-141.5 -228.5t-52 -279.5zM680 1724l215 191l207 -191l-39 -47l-170 117l-178 -117z" />
<glyph unicode="&#xf5;" d="M82 786q0 174 63 328t172 265t263 175t329 64q165 0 311 -63t248.5 -171.5t162 -258.5t59.5 -318v-2q0 -167 -61 -319t-167 -264.5t-259.5 -179.5t-328.5 -67q-217 0 -400 110.5t-287.5 297t-104.5 403.5zM209 797q0 -142 52.5 -273.5t142.5 -228.5t216 -155t267 -58 q191 0 346.5 96t242.5 259.5t87 359.5v2q0 199 -88.5 362.5t-245.5 257.5t-348 94q-140 0 -264.5 -56t-214 -152t-141.5 -228.5t-52 -279.5zM674 1710q31 143 137 143q48 0 107 -43q44 -30 77 -30q55 0 74 63l53 -8q-7 -54 -43.5 -97.5t-89.5 -43.5q-48 0 -96 32 q-56 39 -92 39q-51 0 -72 -61z" />
<glyph unicode="&#xf6;" d="M82 786q0 174 63 328t172 265t263 175t329 64q165 0 311 -63t248.5 -171.5t162 -258.5t59.5 -318v-2q0 -167 -61 -319t-167 -264.5t-259.5 -179.5t-328.5 -67q-217 0 -400 110.5t-287.5 297t-104.5 403.5zM209 797q0 -142 52.5 -273.5t142.5 -228.5t216 -155t267 -58 q191 0 346.5 96t242.5 259.5t87 359.5v2q0 199 -88.5 362.5t-245.5 257.5t-348 94q-140 0 -264.5 -56t-214 -152t-141.5 -228.5t-52 -279.5zM674 1757v2q0 27 21.5 48.5t52.5 21.5q29 0 49 -22t20 -50q0 -30 -20 -53t-49 -23q-31 0 -52.5 23t-21.5 53zM963 1757v2 q0 27 21 48.5t52 21.5q29 0 49.5 -22t20.5 -50q0 -30 -20.5 -53t-49.5 -23q-31 0 -52 23t-21 53z" />
<glyph unicode="&#xf7;" horiz-adv-x="1089" d="M106 659v91h877v-91h-877zM469 371v2q0 32 24 56t58 24q32 0 56 -24t24 -58q0 -32 -24 -56t-56 -24q-34 0 -58 24t-24 56zM469 1042v2q0 32 24 55t58 23q33 0 56.5 -23.5t23.5 -56.5t-23.5 -56t-56.5 -23q-34 0 -58 23t-24 56z" />
<glyph unicode="&#xf8;" d="M70 -2q18 20 100.5 110.5t118.5 127.5q-98 107 -152.5 252.5t-54.5 302.5q0 174 63.5 327.5t173 263t261.5 173t323 63.5h2q143 0 272 -47t228 -131q19 20 76 79t78 80h133q-15 -16 -68.5 -71.5t-85.5 -90t-59 -67.5q102 -109 157.5 -263.5t55.5 -297.5 q0 -170 -60.5 -323t-167 -265.5t-261 -179t-333.5 -66.5q-144 0 -280 53t-234 140q-11 -13 -44 -49t-62.5 -68.5t-46.5 -52.5h-133zM209 795q0 -274 164 -478q388 426 960 1039q-174 157 -467 157h-2q-130 0 -250.5 -55t-209.5 -149.5t-142 -229t-53 -284.5zM436 252 q91 -82 210 -127t235 -45h2q106 0 206 31.5t186 93.5t151 148.5t102 204t37 251.5q0 276 -166 479q-414 -444 -963 -1036z" />
<glyph unicode="&#xf9;" horiz-adv-x="1474" d="M154 657v940h114v-929q0 -267 86 -402q55 -85 156 -133.5t209 -48.5q254 0 377 162q108 143 108 446v905h111v-917q0 -339 -150 -516q-76 -91 -193 -139t-259 -48q-141 0 -256.5 53t-188.5 158q-61 86 -87.5 192.5t-26.5 276.5zM504 1821l57 94l248 -211l-33 -47z" />
<glyph unicode="&#xfa;" horiz-adv-x="1474" d="M154 657v940h114v-929q0 -267 86 -402q55 -85 156 -133.5t209 -48.5q254 0 377 162q108 143 108 446v905h111v-917q0 -339 -150 -516q-76 -91 -193 -139t-259 -48q-141 0 -256.5 53t-188.5 158q-61 86 -87.5 192.5t-26.5 276.5zM684 1704l248 211l57 -94l-272 -164z" />
<glyph unicode="&#xfb;" horiz-adv-x="1474" d="M154 657v940h114v-929q0 -267 86 -402q55 -85 156 -133.5t209 -48.5q254 0 377 162q108 143 108 446v905h111v-917q0 -339 -150 -516q-76 -91 -193 -139t-259 -48q-141 0 -256.5 53t-188.5 158q-61 86 -87.5 192.5t-26.5 276.5zM539 1714l215 191l207 -191l-39 -47 l-170 117l-179 -117z" />
<glyph unicode="&#xfc;" horiz-adv-x="1474" d="M154 657v940h114v-929q0 -267 86 -402q55 -85 156 -133.5t209 -48.5q254 0 377 162q108 143 108 446v905h111v-917q0 -339 -150 -516q-76 -91 -193 -139t-259 -48q-141 0 -256.5 53t-188.5 158q-61 86 -87.5 192.5t-26.5 276.5zM526 1757v2q0 27 21.5 48.5t52.5 21.5 q29 0 49.5 -22t20.5 -50q0 -30 -20.5 -53t-49.5 -23q-31 0 -52.5 23t-21.5 53zM815 1757v2q0 27 21.5 48.5t52.5 21.5q29 0 49 -22t20 -50q0 -30 -20 -53t-49 -23q-31 0 -52.5 23t-21.5 53z" />
<glyph unicode="&#xfd;" horiz-adv-x="1130" d="M-2 1593v4h131v-4q13 -47 242 -489q36 -72 106 -208t86 -167h6q33 71 187 377q225 451 231 487v4h125v-4q-15 -52 -381 -759l-113 -218v-616h-116v614l-121 230q-368 697 -383 749zM532 1694l248 211l58 -95l-273 -163z" />
<glyph unicode="&#xfe;" horiz-adv-x="968" d="M174 0v1597h115v-331q66 3 135 0q69 -4 149.5 -25t135.5 -59q32 -22 60 -51.5t56 -71.5t44 -99t16 -122v-2q0 -81 -28.5 -159.5t-74.5 -131.5q-42 -48 -106 -88.5t-129 -57.5q-105 -28 -258 -28v-371h-115zM289 471h61q104 0 191 34t141 93q82 92 82 238v2 q0 89 -40 158.5t-106 109.5q-93 57 -245 57q-38 0 -84 -4v-688z" />
<glyph unicode="&#xff;" horiz-adv-x="1130" d="M-2 1593v4h131v-4q13 -47 242 -489q36 -72 106 -208t86 -167h6q33 71 187 377q225 451 231 487v4h125v-4q-15 -52 -381 -759l-113 -218v-616h-116v614l-121 230q-368 697 -383 749zM365 1757v2q0 27 21 48.5t52 21.5q29 0 49.5 -22t20.5 -50q0 -30 -20.5 -53t-49.5 -23 q-31 0 -52 23t-21 53zM653 1757v2q0 27 21.5 48.5t52.5 21.5q29 0 49.5 -22t20.5 -50q0 -30 -20.5 -53t-49.5 -23q-31 0 -52.5 23t-21.5 53z" />
<glyph unicode="&#x152;" horiz-adv-x="1945" d="M82 784v2q0 191 67 347.5t184.5 260t276.5 159t344 55.5q40 0 209 -11q9 -1 81.5 -1t166.5 0.5t105 0.5h319v-106h-559v-621h524v-104h-524v-645q0 -9 2 -10.5t9 -1.5h5h568v-109h-279q-403 0 -416 -2q-86 -12 -256 -12q-130 0 -251.5 33.5t-226 101t-182.5 161.5 t-122.5 223.5t-44.5 278.5zM211 782q0 -162 58 -294.5t158.5 -218t233 -131.5t283.5 -46q75 0 217 19v1376q-103 14 -209 14q-160 0 -296.5 -50t-235 -141t-154 -226.5t-55.5 -299.5v-2z" />
<glyph unicode="&#x153;" horiz-adv-x="1945" d="M82 784v2q0 191 67 347.5t184.5 260t276.5 159t344 55.5q40 0 209 -11q9 -1 81.5 -1t166.5 0.5t105 0.5h319v-106h-559v-621h524v-104h-524v-645q0 -9 2 -10.5t9 -1.5h5h568v-109h-279q-403 0 -416 -2q-86 -12 -256 -12q-130 0 -251.5 33.5t-226 101t-182.5 161.5 t-122.5 223.5t-44.5 278.5zM211 782q0 -162 58 -294.5t158.5 -218t233 -131.5t283.5 -46q75 0 217 19v1376q-103 14 -209 14q-160 0 -296.5 -50t-235 -141t-154 -226.5t-55.5 -299.5v-2z" />
<glyph unicode="&#x178;" horiz-adv-x="1130" d="M-2 1593v4h131v-4q13 -47 242 -489q36 -72 106 -208t86 -167h6q33 71 187 377q225 451 231 487v4h125v-4q-15 -52 -381 -759l-113 -218v-616h-116v614l-121 230q-368 697 -383 749zM365 1757v2q0 27 21 48.5t52 21.5q29 0 49.5 -22t20.5 -50q0 -30 -20.5 -53t-49.5 -23 q-31 0 -52 23t-21 53zM653 1757v2q0 27 21.5 48.5t52.5 21.5q29 0 49.5 -22t20.5 -50q0 -30 -20.5 -53t-49.5 -23q-31 0 -52.5 23t-21.5 53z" />
<glyph unicode="&#x2c6;" horiz-adv-x="808" d="M188 1714l215 191l207 -191l-39 -47l-170 117l-178 -117z" />
<glyph unicode="&#x2dc;" horiz-adv-x="808" d="M182 1700q31 143 137 143q48 0 107 -43q45 -31 78 -31q55 0 74 64l53 -8q-7 -55 -43.5 -98.5t-89.5 -43.5q-48 0 -97 33q-56 39 -92 39q-50 0 -71 -61z" />
<glyph unicode="&#x2000;" horiz-adv-x="973" />
<glyph unicode="&#x2001;" horiz-adv-x="1946" />
<glyph unicode="&#x2002;" horiz-adv-x="973" />
<glyph unicode="&#x2003;" horiz-adv-x="1946" />
<glyph unicode="&#x2004;" horiz-adv-x="648" />
<glyph unicode="&#x2005;" horiz-adv-x="486" />
<glyph unicode="&#x2006;" horiz-adv-x="324" />
<glyph unicode="&#x2007;" horiz-adv-x="324" />
<glyph unicode="&#x2008;" horiz-adv-x="243" />
<glyph unicode="&#x2009;" horiz-adv-x="389" />
<glyph unicode="&#x200a;" horiz-adv-x="108" />
<glyph unicode="&#x2010;" horiz-adv-x="569" d="M63 725v102h443v-102h-443z" />
<glyph unicode="&#x2011;" horiz-adv-x="569" d="M63 725v102h443v-102h-443z" />
<glyph unicode="&#x2012;" horiz-adv-x="569" d="M63 725v102h443v-102h-443z" />
<glyph unicode="&#x2013;" horiz-adv-x="1024" d="M61 725v102h902v-102h-902z" />
<glyph unicode="&#x2014;" horiz-adv-x="2048" d="M61 725v102h1926v-102h-1926z" />
<glyph unicode="&#x2018;" horiz-adv-x="348" d="M76 1325q0 88 69 186q49 70 103 99l24 -27q-19 -16 -49 -61q-39 -62 -39 -111q0 -20 21 -22q24 -3 44.5 -28t20.5 -56q0 -45 -28 -75t-66 -30h-2q-44 0 -71 34t-27 91z" />
<glyph unicode="&#x2019;" horiz-adv-x="348" d="M76 1223q19 16 49 61q39 62 39 111q0 20 -21 22q-24 3 -44.5 28t-20.5 56q0 45 28 75t66 30h2q44 0 71 -34t27 -91q0 -89 -69 -187q-48 -68 -103 -98z" />
<glyph unicode="&#x201a;" horiz-adv-x="348" d="M76 -207q17 14 49 62q39 62 39 110q0 21 -21 23q-24 3 -44.5 28t-20.5 56q0 45 28 74.5t66 29.5h2q44 0 71 -34t27 -91q0 -88 -69 -186q-48 -68 -103 -98z" />
<glyph unicode="&#x201c;" horiz-adv-x="645" d="M76 1325q0 88 69 186q49 70 103 99l24 -27q-19 -16 -49 -61q-39 -62 -39 -111q0 -20 21 -22q24 -3 44.5 -28t20.5 -56q0 -45 -28 -75t-66 -30h-2q-44 0 -71 34t-27 91zM373 1325q0 88 69 186q49 70 103 99l24 -27q-19 -16 -49 -61q-39 -62 -39 -111q0 -20 21 -22 q24 -3 44.5 -28t20.5 -56q0 -45 -28 -75t-66 -30h-2q-44 0 -71 34t-27 91z" />
<glyph unicode="&#x201d;" horiz-adv-x="645" d="M76 1223q19 16 49 61q39 62 39 111q0 20 -21 22q-24 3 -44.5 28t-20.5 56q0 45 28 75t66 30h2q44 0 71 -34t27 -91q0 -89 -69 -187q-48 -68 -103 -98zM373 1223q19 16 49 61q39 62 39 111q0 20 -21 22q-24 3 -44.5 28t-20.5 56q0 45 28 75t66 30h2q44 0 71 -34t27 -91 q0 -89 -69 -187q-48 -68 -103 -98z" />
<glyph unicode="&#x201e;" horiz-adv-x="645" d="M76 -207q17 14 49 62q39 62 39 110q0 21 -21 23q-24 3 -44.5 28t-20.5 56q0 45 28 74.5t66 29.5h2q44 0 71 -34t27 -91q0 -88 -69 -186q-48 -68 -103 -98zM373 -207q17 14 49 62q39 62 39 110q0 21 -21 23q-24 3 -44.5 28t-20.5 56q0 45 28 74.5t66 29.5h2q44 0 71 -34 t27 -91q0 -88 -69 -186q-48 -68 -103 -98z" />
<glyph unicode="&#x2022;" horiz-adv-x="471" d="M78 801q0 66 46.5 113t111.5 47h2q66 0 110.5 -47t44.5 -113q0 -65 -45 -111.5t-112 -46.5q-64 0 -111 46.5t-47 111.5z" />
<glyph unicode="&#x2026;" horiz-adv-x="2048" d="M244 76q0 41 29 70.5t69 29.5h2q41 0 68.5 -29t27.5 -71q0 -41 -28 -70t-70 -29q-40 0 -69 29.5t-29 69.5zM926 76q0 41 29 70.5t69 29.5h2q41 0 68.5 -29t27.5 -71q0 -41 -28 -70t-70 -29q-40 0 -69 29.5t-29 69.5zM1608 76q0 41 29 70.5t69 29.5h2q41 0 68.5 -29 t27.5 -71q0 -41 -28 -70t-70 -29q-40 0 -69 29.5t-29 69.5z" />
<glyph unicode="&#x202f;" horiz-adv-x="389" />
<glyph unicode="&#x2039;" horiz-adv-x="563" d="M82 793q159 185 315 366l52 -39q-35 -53 -104.5 -159.5t-104.5 -159.5q64 -98 211 -336l-54 -37q-132 156 -315 365z" />
<glyph unicode="&#x203a;" horiz-adv-x="563" d="M113 469q48 72 206 319q-97 160 -206 334l51 39q194 -235 303 -368q-57 -69 -163 -197t-140 -168z" />
<glyph unicode="&#x205f;" horiz-adv-x="486" />
<glyph unicode="&#x20ac;" horiz-adv-x="1105" d="M-41 649q0 10 7.5 38.5t13.5 43.5h129q-3 38 -3 74q0 39 3 76h-113q2 8 12 43q5 30 8 39h101q22 155 85.5 279.5t157 205t209.5 123.5t246 43q46 0 81 -2t67.5 -8t55 -11.5t60.5 -15.5q-1 -15 -1.5 -40.5t-1 -44.5t-1.5 -24h-4q-102 37 -250 37q-236 0 -393 -144 t-197 -398h662q-6 -15 -12 -43t-9 -39h-651q-2 -27 -2 -80q0 -47 2 -70h635q-5 -13 -8 -25.5t-6 -28.5t-6 -28h-605q40 -243 198.5 -399t377.5 -156q102 0 180 19q6 2 72 28h4q1 -19 2 -55t2 -53q-129 -47 -274 -47q-121 0 -232.5 44t-203.5 125.5t-155.5 209t-84.5 284.5 h-158z" />
<glyph unicode="&#x2122;" horiz-adv-x="921" d="M27 1548v49h335v-49h-135v-393h-65v393h-135zM365 1155v4v2.5t0.5 4.5t1 7.5t1.5 12.5t2.5 17.5t3 24.5t3.5 32t4.5 41t5.5 51l29 252h14q153 -268 182 -336h4q50 117 170 336h15l35 -252q26 -185 26 -193v-4h-59v4q-31 189 -39 283h-4q-52 -131 -144 -277h-12 q-12 20 -112 207q-2 5 -14 28t-19 40h-4q-2 -28 -10 -94.5t-14.5 -122t-6.5 -64.5v-4h-59z" />
<glyph unicode="&#xe000;" horiz-adv-x="1597" d="M0 0v1597h1597v-1597h-1597z" />
<glyph unicode="&#xfb01;" horiz-adv-x="1488" d="M174 0v1597h674v-106h-559v-637h524v-104h-524v-750h-115zM1106 0v1597h115v-1597h-115z" />
<glyph unicode="&#xfb02;" horiz-adv-x="1923" d="M174 0v1597h674v-106h-559v-637h524v-104h-524v-750h-115zM1106 0v1597h115v-1476q0 -12 8 -12h575v-109h-698z" />
</font>
</defs>
</svg>
